fira-sans_extralight-italic.sfdir

StartChar: exclam
Encoding: 33 33 987
Width: 239
Flags: MW
HStem: -11 80<80 98.5> 664 20G<154 202 202 202>
VStem: 49 80<20 38.5>
LayerCount: 2
Fore
SplineSet
133 214 m 1
 91 214 l 1
 154 684 l 1
 202 684 l 1
 133 214 l 1
92 69 m 0
 115 69 129 53 129 32 c 0
 129 8 111 -11 86 -11 c 0
 64 -11 49 6 49 26 c 0
 49 51 68 69 92 69 c 0
EndSplineSet
EndChar

StartChar: quotedbl
Encoding: 34 34 993
Width: 348
Flags: MW
HStem: 664 20G<134 183 183 183 284 333 333 333>
VStem: 105 228
LayerCount: 2
Fore
SplineSet
134 684 m 1
 183 684 l 1
 141 436 l 1
 105 436 l 1
 134 684 l 1
284 684 m 1
 333 684 l 1
 291 436 l 1
 256 436 l 1
 284 684 l 1
EndSplineSet
EndChar
StartChar: numbersign
Encoding: 35 35 2128
Width: 496
Flags: MW
HStem: 0 21G<28 73 28 28 260 305 260 260> 186 39<10 79 4 89 134 311 10 123 367 434> 454 39<84 152 79 162 84 196 207 384 440 509>
VStem: 4 510<186 493>
LayerCount: 2
Back
Fore
SplineSet
509 454 m 1
 429 454 l 1
 367 225 l 1
 440 225 l 1
 434 186 l 1
 356 186 l 1
 305 0 l 1
 260 0 l 1
 311 186 l 1
 123 186 l 1
 73 0 l 1
 28 0 l 1
 79 186 l 1
 4 186 l 1
 10 225 l 1
 89 225 l 1
 152 454 l 1
 79 454 l 1
 84 493 l 1
 162 493 l 1
 209 664 l 1
 254 664 l 1
 207 493 l 1
 395 493 l 1
 441 664 l 1
 486 664 l 1
 440 493 l 1
 514 493 l 1
 509 454 l 1
321 225 m 1
 384 454 l 1
 196 454 l 1
 134 225 l 1
 321 225 l 1
EndSplineSet
Substitution2: "'onum' Oldstyle Figures lookup 26 subtable" numbersign.osf
Substitution2: "'tnum' Tabular Numbers lookup 25 subtable" numbersign.tf
AlternateSubs2: "'aalt' Access All Alternates lookup 1 subtable" numbersign.tf numbersign.osf
EndChar
StartChar: dollar
Encoding: 36 36 2206
Width: 521
GlyphClass: 2
Flags: MW
HStem: -10 40<200 200 241 241> 634 38<337 337 337 340.5>
VStem: 103 47<470.5 543.5> 408 47<157 232.5>
LayerCount: 2
Back
Fore
SplineSet
313 634 m 0
 219 634 150 588 150 502 c 0
 150 439 188 407 287 374 c 0
 394 340 455 292 455 202 c 0
 455 110 399 2 241 -10 c 1
 222 -149 l 1
 181 -149 l 1
 200 -10 l 1
 123 -7 61 25 17 72 c 1
 48 99 l 1
 87 58 143 30 214 30 c 0
 353 30 408 114 408 200 c 0
 408 265 367 302 268 336 c 0
 153 373 103 421 103 501 c 0
 103 586 165 667 297 673 c 1
 317 817 l 1
 357 817 l 1
 337 672 l 1
 402 667 448 640 491 600 c 1
 460 572 l 1
 415 616 368 634 313 634 c 0
EndSplineSet
Substitution2: "'onum' Oldstyle Figures lookup 26 subtable" dollar.osf
Substitution2: "'tnum' Tabular Numbers lookup 25 subtable" dollar.tf
AlternateSubs2: "'aalt' Access All Alternates lookup 1 subtable" dollar.tf dollar.osf
EndChar
StartChar: ampersand
Encoding: 38 38 2379
Width: 735
GlyphClass: 2
Flags: MW
HStem: -11 40<224 310.5 224 315.5> 657 37<302.5 380>
VStem: 84 47<120.5 187 120.5 196.5> 175 45<510.5 560 510.5 580> 458 46<531 593>
LayerCount: 2
Back
Fore
SplineSet
350 694 m 0
 441 694 504 638 504 564 c 0
 504 482 454 433 317 363 c 1
 503 162 l 1
 541 223 569 281 595 342 c 1
 636 326 l 1
 606 258 572 193 530 133 c 1
 637 16 l 1
 599 -10 l 1
 501 100 l 1
 440 35 369 -11 262 -11 c 0
 157 -11 84 61 84 155 c 0
 84 238 121 303 253 371 c 1
 203 427 175 475 175 530 c 0
 175 630 246 694 350 694 c 0
350 657 m 0
 255 657 220 590 220 530 c 0
 220 491 236 450 290 390 c 1
 421 455 458 498 458 564 c 0
 458 622 410 657 350 657 c 0
278 343 m 1
 160 283 131 219 131 155 c 0
 131 86 183 29 265 29 c 0
 356 29 418 68 474 129 c 1
 278 343 l 1
EndSplineSet
Substitution2: "'ss03' Style Set 3 lookup 36 subtable" ampersand.ss03
Substitution2: "'aalt' Access All Alternates lookup 0 subtable" ampersand.ss03
EndChar
StartChar: quotesingle
Encoding: 39 39 2133
Width: 197
Flags: MW
HStem: 664 20G<134 183 183 183>
VStem: 105 78
LayerCount: 2
Back
Fore
SplineSet
105 436 m 1
 134 684 l 1
 183 684 l 1
 141 436 l 1
 105 436 l 1
EndSplineSet
EndChar

StartChar: parenleft
Encoding: 40 40 1009
Width: 322
Flags: MW
HStem: -133 969<180 314>
VStem: 62.48 46.04
LayerCount: 2
Fore
SplineSet
342 814 m 1
 235 683 148 567 117 347 c 0
 87 130 141 14 211 -117 c 1
 180 -133 l 1
 102 3 39 120 71 353 c 0
 103 583 199 700 314 836 c 1
 342 814 l 1
EndSplineSet
Substitution2: "'case' Case-Sensitive Forms lookup 25 subtable" parenleft.case
Substitution2: "'dnom' Denominators lookup 14 subtable" parenleft.dnom
Substitution2: "'numr' Numerators lookup 13 subtable" parenleft.numr
Substitution2: "'sups' Superscript lookup 12 subtable" parenleftsuperior
Substitution2: "'subs' Subscript lookup 11 subtable" uni208D
AlternateSubs2: "'aalt' Access All Alternates lookup 1 subtable" uni208D parenleftsuperior parenleft.numr parenleft.dnom parenleft.case
EndChar
StartChar: parenright
Encoding: 41 41 2151
Width: 322
Flags: MW
HStem: -136 969<33 168>
VStem: 239.45 45.42
LayerCount: 2
Back
Fore
SplineSet
168 833 m 1
 245 697 309 580 276 347 c 0
 244 117 148 0 33 -136 c 1
 5 -114 l 1
 112 17 200 133 231 353 c 0
 261 570 207 686 137 817 c 1
 168 833 l 1
EndSplineSet
Substitution2: "'case' Case-Sensitive Forms lookup 29 subtable" parenright.case
Substitution2: "'dnom' Denominators lookup 17 subtable" parenright.dnom
Substitution2: "'numr' Numerators lookup 16 subtable" parenright.numr
Substitution2: "'sups' Superscript lookup 15 subtable" uni207E
Substitution2: "'subs' Subscript lookup 14 subtable" uni208E
AlternateSubs2: "'aalt' Access All Alternates lookup 1 subtable" uni208E uni207E parenright.numr parenright.dnom parenright.case
EndChar

StartChar: asterisk
Encoding: 42 42 980
Width: 433
Flags: MW
HStem: 555 20G<244 244> 715 20G<261 307 307 307>
VStem: 84 357<589 589>
LayerCount: 2
Fore
SplineSet
283 547 m 1
 363 422 l 1
 324 395 l 1
 255 527 l 1
 149 395 l 1
 115 422 l 1
 230 546 l 1
 84 589 l 1
 102 629 l 1
 244 575 l 1
 261 735 l 1
 307 735 l 1
 278 577 l 1
 432 631 l 1
 441 589 l 1
 283 547 l 1
EndSplineSet
EndChar
StartChar: plus
Encoding: 43 43 2273
Width: 489
GlyphClass: 2
Flags: MW
HStem: 310 41<84 230 78 235 280 425 84 274>
VStem: 78 353<310 351>
LayerCount: 2
Back
Fore
SplineSet
302 504 m 1
 280 351 l 1
 431 351 l 1
 425 310 l 1
 274 310 l 1
 252 157 l 1
 208 157 l 1
 230 310 l 1
 78 310 l 1
 84 351 l 1
 235 351 l 1
 257 504 l 1
 302 504 l 1
EndSplineSet
Substitution2: "'onum' Oldstyle Figures lookup 26 subtable" plus.osf
Substitution2: "'tnum' Tabular Numbers lookup 25 subtable" plus.tf
Substitution2: "'dnom' Denominators lookup 17 subtable" plus.dnom
Substitution2: "'numr' Numerators lookup 16 subtable" plus.numr
Substitution2: "'sups' Superscript lookup 15 subtable" uni207A
Substitution2: "'subs' Subscript lookup 14 subtable" uni208A
AlternateSubs2: "'aalt' Access All Alternates lookup 1 subtable" uni208A uni207A plus.numr plus.dnom plus.tf plus.osf
EndChar
StartChar: comma
Encoding: 44 44 2123
Width: 196
Flags: MW
HStem: -5 21G<41 41>
VStem: 24 80<24.5 38.5>
LayerCount: 2
Back
Fore
SplineSet
67 69 m 0
 90 69 104 53 104 32 c 0
 104 17 98 3 85 -21 c 2
 14 -146 l 1
 -20 -146 l 1
 41 -5 l 1
 30 1 24 12 24 27 c 0
 24 50 43 69 67 69 c 0
EndSplineSet
EndChar

StartChar: hyphen
Encoding: 45 45 1027
Width: 398
Flags: MW
HStem: 293 40<80 332 75 338>
VStem: 75 263<293 333>
LayerCount: 2
Fore
SplineSet
80 333 m 1
 338 333 l 1
 332 293 l 1
 75 293 l 1
 80 333 l 1
EndSplineSet
Substitution2: "'case' Case-Sensitive Forms lookup 25 subtable" hyphen.case
Substitution2: "'aalt' Access All Alternates lookup 0 subtable" hyphen.case
EndChar

StartChar: period
Encoding: 46 46 990
Width: 195
Flags: MW
HStem: -11 80<55 73>
VStem: 24 80<20 38.5>
LayerCount: 2
Fore
SplineSet
67 69 m 0
 90 69 104 53 104 32 c 0
 104 8 85 -11 61 -11 c 0
 38 -11 24 6 24 26 c 0
 24 51 43 69 67 69 c 0
EndSplineSet
EndChar

StartChar: slash
Encoding: 47 47 996
Width: 518
Flags: MW
HStem: -98 900<113 430>
VStem: 74 395
LayerCount: 2
Fore
SplineSet
469 791 m 1
 113 -98 l 1
 74 -87 l 1
 430 802 l 1
 469 791 l 1
EndSplineSet
Substitution2: "'frac' Diagonal Fractions lookup 15 subtable" fraction
Substitution2: "'aalt' Access All Alternates lookup 0 subtable" fraction
EndChar
StartChar: zero
Encoding: 48 48 2017
Width: 545
Flags: MW
HStem: -11 40<199 288.5 199 337> 636 39<277.5 367>
VStem: 71 47<151 231 151 307.5> 447 47<434 513.5>
LayerCount: 2
Back
Fore
SplineSet
328 675 m 0
 436 675 494 597 494 443 c 0
 494 269 436 -11 238 -11 c 0
 129 -11 71 69 71 222 c 0
 71 393 129 675 328 675 c 0
328 636 m 0
 227 636 156 539 127 330 c 0
 121 286 118 248 118 214 c 0
 118 88 160 29 238 29 c 0
 339 29 409 125 438 334 c 0
 444 378 447 417 447 451 c 0
 447 576 406 636 328 636 c 0
EndSplineSet
Substitution2: "'zero' Slashed Zero lookup 32 subtable" zero.zero
Substitution2: "'onum' Oldstyle Figures lookup 26 subtable" zero.osf
Substitution2: "'tnum' Tabular Numbers lookup 25 subtable" zero.tf
Substitution2: "'frac' Diagonal Fractions lookup 19 subtable" zero.numr
Substitution2: "'dnom' Denominators lookup 17 subtable" zero.dnom
Substitution2: "'numr' Numerators lookup 16 subtable" zero.numr
Substitution2: "'sups' Superscript lookup 15 subtable" uni2070
Substitution2: "'subs' Subscript lookup 14 subtable" uni2080
AlternateSubs2: "'aalt' Access All Alternates lookup 1 subtable" uni2080 uni2070 zero.numr zero.dnom zero.tf zero.osf zero.zero
EndChar

StartChar: one
Encoding: 49 49 880
Width: 404
Flags: MW
HStem: 0 21G<197 243 197 197>
VStem: 85 251<542 664>
LayerCount: 2
Fore
SplineSet
243 0 m 1
 197 0 l 1
 283 609 l 1
 102 504 l 1
 85 542 l 1
 297 664 l 1
 336 664 l 1
 243 0 l 1
EndSplineSet
Substitution2: "'onum' Oldstyle Figures lookup 22 subtable" one.osf
Substitution2: "'tnum' Tabular Numbers lookup 21 subtable" one.tf
Substitution2: "'frac' Diagonal Fractions lookup 16 subtable" one.numr
Substitution2: "'dnom' Denominators lookup 14 subtable" one.dnom
Substitution2: "'numr' Numerators lookup 13 subtable" one.numr
Substitution2: "'sups' Superscript lookup 12 subtable" onesuperior
Substitution2: "'subs' Subscript lookup 11 subtable" oneinferior
AlternateSubs2: "'aalt' Access All Alternates lookup 1 subtable" oneinferior onesuperior one.numr one.dnom one.tf one.osf
EndChar

StartChar: two
Encoding: 50 50 881
Width: 471
Flags: MW
HStem: 0 41.5 635 40<238.5 308.5>
VStem: 390 48<472 557.5>
LayerCount: 2
Fore
SplineSet
275 675 m 0
 378 675 438 614 438 522 c 0
 438 411 380 329 70 41 c 1
 387 42 l 1
 373 0 l 1
 7 0 l 1
 12 42 l 1
 345 354 390 423 390 521 c 0
 390 594 345 635 272 635 c 0
 205 635 157 605 111 557 c 1
 80 585 l 1
 140 648 200 675 275 675 c 0
EndSplineSet
Substitution2: "'onum' Oldstyle Figures lookup 22 subtable" two.osf
Substitution2: "'tnum' Tabular Numbers lookup 21 subtable" two.tf
Substitution2: "'frac' Diagonal Fractions lookup 16 subtable" two.numr
Substitution2: "'dnom' Denominators lookup 14 subtable" two.dnom
Substitution2: "'numr' Numerators lookup 13 subtable" two.numr
Substitution2: "'sups' Superscript lookup 12 subtable" twosuperior
Substitution2: "'subs' Subscript lookup 11 subtable" twoinferior
AlternateSubs2: "'aalt' Access All Alternates lookup 1 subtable" twoinferior twosuperior two.numr two.dnom two.tf two.osf
EndChar

StartChar: three
Encoding: 51 51 882
Width: 480
Flags: MW
HStem: -11 41<143 242 143 258> 332 38<191 223 191 223 180 223> 637 38<242 307>
VStem: 359 47<174 255.5> 386 47<495.5 564.5>
LayerCount: 2
Fore
SplineSet
274 675 m 0xe8
 376 675 433 615 433 532 c 0xe8
 433 459 388 369 276 353 c 1
 350 351 406 302 406 209 c 0
 406 119 343 -11 173 -11 c 0
 94 -11 38 19 -4 76 c 1
 29 101 l 1
 68 47 114 30 172 30 c 0
 312 30 359 135 359 213 c 0xf0
 359 298 306 332 223 332 c 2
 180 332 l 1
 191 370 l 1
 223 370 l 2
 334 370 386 459 386 532 c 0
 386 597 343 637 271 637 c 0
 213 637 166 616 111 570 c 1
 87 601 l 1
 144 650 202 675 274 675 c 0xe8
EndSplineSet
Substitution2: "'onum' Oldstyle Figures lookup 22 subtable" three.osf
Substitution2: "'tnum' Tabular Numbers lookup 21 subtable" three.tf
Substitution2: "'frac' Diagonal Fractions lookup 16 subtable" three.numr
Substitution2: "'dnom' Denominators lookup 14 subtable" three.dnom
Substitution2: "'numr' Numerators lookup 13 subtable" three.numr
Substitution2: "'sups' Superscript lookup 12 subtable" threesuperior
Substitution2: "'subs' Subscript lookup 11 subtable" threeinferior
AlternateSubs2: "'aalt' Access All Alternates lookup 1 subtable" threeinferior threesuperior three.numr three.dnom three.tf three.osf
EndChar

StartChar: four
Encoding: 52 52 883
Width: 512
Flags: MW
HStem: 0 21G<302 347 302 302> 178 40<91 328 378 463 91 372>
VStem: 35 434<178 218>
LayerCount: 2
Fore
SplineSet
463 178 m 1
 372 178 l 1
 347 0 l 1
 302 0 l 1
 328 178 l 1
 35 178 l 1
 41 214 l 1
 306 675 l 1
 345 659 l 1
 91 218 l 1
 333 218 l 1
 366 418 l 1
 406 418 l 1
 378 218 l 1
 469 218 l 1
 463 178 l 1
EndSplineSet
Substitution2: "'onum' Oldstyle Figures lookup 22 subtable" four.osf
Substitution2: "'tnum' Tabular Numbers lookup 21 subtable" four.tf
Substitution2: "'frac' Diagonal Fractions lookup 16 subtable" four.numr
Substitution2: "'dnom' Denominators lookup 14 subtable" four.dnom
Substitution2: "'numr' Numerators lookup 13 subtable" four.numr
Substitution2: "'sups' Superscript lookup 12 subtable" foursuperior
Substitution2: "'subs' Subscript lookup 11 subtable" fourinferior
AlternateSubs2: "'aalt' Access All Alternates lookup 1 subtable" fourinferior foursuperior four.numr four.dnom four.tf four.osf
EndChar

StartChar: five
Encoding: 53 53 884
Width: 480
Flags: MW
HStem: -11 41<153 257 153 272.5> 381 38<238 290> 624 40<178 450 178 178>
VStem: 377 47<203.5 289.5>
LayerCount: 2
Fore
SplineSet
450 624 m 1
 178 624 l 1
 143 386 l 1
 176 405 214 419 262 419 c 0
 364 419 424 351 424 244 c 0
 424 142 360 -11 185 -11 c 0
 104 -11 51 20 10 69 c 1
 42 96 l 1
 78 52 120 30 186 30 c 0
 328 30 377 162 377 245 c 0
 377 334 327 381 253 381 c 0
 204 381 173 369 131 346 c 1
 94 346 l 1
 138 664 l 1
 463 664 l 1
 450 624 l 1
EndSplineSet
Substitution2: "'onum' Oldstyle Figures lookup 22 subtable" five.osf
Substitution2: "'tnum' Tabular Numbers lookup 21 subtable" five.tf
Substitution2: "'frac' Diagonal Fractions lookup 16 subtable" five.numr
Substitution2: "'dnom' Denominators lookup 14 subtable" five.dnom
Substitution2: "'numr' Numerators lookup 13 subtable" five.numr
Substitution2: "'sups' Superscript lookup 12 subtable" fivesuperior
Substitution2: "'subs' Subscript lookup 11 subtable" fiveinferior
AlternateSubs2: "'aalt' Access All Alternates lookup 1 subtable" fiveinferior fivesuperior five.numr five.dnom five.tf five.osf
EndChar
StartChar: six
Encoding: 54 54 2023
Width: 517
Flags: MW
HStem: -11 40<193 305.5 193 318> 392 39<271.5 336> 636 39<297.5 374.5>
VStem: 66 45<148 212 148 222.5> 415 46<224.5 309.5>
LayerCount: 2
Back
Fore
SplineSet
309 431 m 0
 394 431 461 377 461 265 c 0
 461 156 398 -11 238 -11 c 0
 113 -11 66 81 66 208 c 0
 66 237 68 267 73 298 c 0
 106 533 214 675 358 675 c 0
 408 675 442 660 473 636 c 1
 449 604 l 1
 422 625 393 636 356 636 c 0
 239 636 152 506 122 329 c 1
 171 394 234 431 309 431 c 0
239 29 m 0
 372 29 415 183 415 266 c 0
 415 353 368 392 304 392 c 0
 230 392 167 345 115 272 c 1
 113 247 111 223 111 201 c 0
 111 95 147 29 239 29 c 0
EndSplineSet
Substitution2: "'onum' Oldstyle Figures lookup 26 subtable" six.osf
Substitution2: "'tnum' Tabular Numbers lookup 25 subtable" six.tf
Substitution2: "'frac' Diagonal Fractions lookup 19 subtable" six.numr
Substitution2: "'dnom' Denominators lookup 17 subtable" six.dnom
Substitution2: "'numr' Numerators lookup 16 subtable" six.numr
Substitution2: "'sups' Superscript lookup 15 subtable" uni2076
Substitution2: "'subs' Subscript lookup 14 subtable" uni2086
AlternateSubs2: "'aalt' Access All Alternates lookup 1 subtable" uni2086 uni2076 six.numr six.dnom six.tf six.osf
EndChar
StartChar: seven
Encoding: 55 55 2024
Width: 433
Flags: MW
HStem: -7 21G<94 94> 624 40<88 396 83 452>
VStem: 51 401
LayerCount: 2
Back
Fore
SplineSet
452 664 m 1
 447 627 l 1
 94 -7 l 1
 51 8 l 1
 396 624 l 1
 83 624 l 1
 88 664 l 1
 452 664 l 1
EndSplineSet
Substitution2: "'onum' Oldstyle Figures lookup 26 subtable" seven.osf
Substitution2: "'tnum' Tabular Numbers lookup 25 subtable" seven.tf
Substitution2: "'frac' Diagonal Fractions lookup 19 subtable" seven.numr
Substitution2: "'dnom' Denominators lookup 17 subtable" seven.dnom
Substitution2: "'numr' Numerators lookup 16 subtable" seven.numr
Substitution2: "'sups' Superscript lookup 15 subtable" uni2077
Substitution2: "'subs' Subscript lookup 14 subtable" uni2087
AlternateSubs2: "'aalt' Access All Alternates lookup 1 subtable" uni2087 uni2077 seven.numr seven.dnom seven.tf seven.osf
EndChar
StartChar: eight
Encoding: 56 56 2025
Width: 532
Flags: MW
HStem: -11 41<187 282.5 187 309> 637 38<276.5 356>
VStem: 41 48<113 185 113 190.5> 119 45<469 537.5 469 554> 418 47<144 229.5> 438 46<497.5 567.5>
LayerCount: 2
Back
Fore
SplineSet
338 349 m 1xd8
 423 313 465 268 465 195 c 0
 465 93 389 -11 229 -11 c 0
 111 -11 41 58 41 152 c 0xf8
 41 229 83 312 217 359 c 1
 151 391 119 433 119 497 c 0
 119 611 220 675 321 675 c 0
 407 675 484 627 484 533 c 0xd4
 484 447 439 397 338 349 c 1xd8
164 496 m 0
 164 442 193 408 269 378 c 2
 303 364 l 1
 402 412 438 461 438 534 c 0xd4
 438 601 390 637 322 637 c 0
 231 637 164 579 164 496 c 0
230 30 m 0
 335 30 418 88 418 198 c 0
 418 261 377 294 290 329 c 2
 256 343 l 1
 116 293 89 219 89 151 c 0xf8
 89 75 144 30 230 30 c 0
EndSplineSet
Substitution2: "'onum' Oldstyle Figures lookup 26 subtable" eight.osf
Substitution2: "'tnum' Tabular Numbers lookup 25 subtable" eight.tf
Substitution2: "'frac' Diagonal Fractions lookup 19 subtable" eight.numr
Substitution2: "'dnom' Denominators lookup 17 subtable" eight.dnom
Substitution2: "'numr' Numerators lookup 16 subtable" eight.numr
Substitution2: "'sups' Superscript lookup 15 subtable" uni2078
Substitution2: "'subs' Subscript lookup 14 subtable" uni2088
AlternateSubs2: "'aalt' Access All Alternates lookup 1 subtable" uni2088 uni2078 eight.numr eight.dnom eight.tf eight.osf
EndChar

StartChar: nine
Encoding: 57 57 888
Width: 514
Flags: MW
HStem: 250 40<207 270.5> 636 39<238.5 350>
VStem: 81 46<382 466 382 481> 429 46<465.5 528.5>
LayerCount: 2
Fore
SplineSet
307 675 m 0
 421 675 475 598 475 476 c 0
 475 276 408 66 86 -19 c 1
 77 18 l 1
 258 74 378 160 416 345 c 1
 367 285 305 250 236 250 c 0
 145 250 81 319 81 427 c 0
 81 535 145 675 307 675 c 0
243 290 m 0
 313 290 370 330 423 399 c 1
 427 429 429 453 429 478 c 0
 429 579 392 636 308 636 c 0
 169 636 127 508 127 424 c 0
 127 340 171 290 243 290 c 0
EndSplineSet
Substitution2: "'onum' Oldstyle Figures lookup 22 subtable" nine.osf
Substitution2: "'tnum' Tabular Numbers lookup 21 subtable" nine.tf
Substitution2: "'frac' Diagonal Fractions lookup 16 subtable" nine.numr
Substitution2: "'dnom' Denominators lookup 14 subtable" nine.dnom
Substitution2: "'numr' Numerators lookup 13 subtable" nine.numr
Substitution2: "'sups' Superscript lookup 12 subtable" ninesuperior
Substitution2: "'subs' Subscript lookup 11 subtable" nineinferior
AlternateSubs2: "'aalt' Access All Alternates lookup 1 subtable" nineinferior ninesuperior nine.numr nine.dnom nine.tf nine.osf
EndChar
StartChar: colon
Encoding: 58 58 2122
Width: 195
Flags: MW
HStem: -11 21G<49.5 73> -11 80<55 73> 388 80<111 129.5>
VStem: 24 80<20 38.5> 80 80<418.5 436.5>
LayerCount: 2
Back
Fore
SplineSet
123 468 m 0xa8
 146 468 160 451 160 431 c 0
 160 406 142 388 117 388 c 0
 95 388 80 404 80 424 c 0
 80 449 99 468 123 468 c 0xa8
67 69 m 0x70
 90 69 104 53 104 32 c 0
 104 8 85 -11 61 -11 c 0
 38 -11 24 6 24 26 c 0
 24 51 43 69 67 69 c 0x70
EndSplineSet
EndChar

StartChar: less
Encoding: 60 60 1103
Width: 493
Flags: MW
HStem: 501 20G<444 444>
VStem: 75 382<313 481>
LayerCount: 2
Fore
SplineSet
457 481 m 1
 122 332 l 1
 414 181 l 1
 392 142 l 1
 75 313 l 1
 81 353 l 1
 444 521 l 1
 457 481 l 1
EndSplineSet
Substitution2: "'onum' Oldstyle Figures lookup 22 subtable" less.osf
Substitution2: "'tnum' Tabular Numbers lookup 21 subtable" less.tf
AlternateSubs2: "'aalt' Access All Alternates lookup 1 subtable" less.tf less.osf
EndChar

StartChar: equal
Encoding: 61 61 1095
Width: 490
Flags: MW
HStem: 226 41<72 413 67 419> 394 42<96 437 91 443>
VStem: 67 376<226 436>
LayerCount: 2
Fore
SplineSet
96 436 m 1
 443 436 l 1
 437 394 l 1
 91 394 l 1
 96 436 l 1
72 267 m 1
 419 267 l 1
 413 226 l 1
 67 226 l 1
 72 267 l 1
EndSplineSet
Substitution2: "'onum' Oldstyle Figures lookup 22 subtable" equal.osf
Substitution2: "'tnum' Tabular Numbers lookup 21 subtable" equal.tf
Substitution2: "'dnom' Denominators lookup 14 subtable" equal.dnom
Substitution2: "'numr' Numerators lookup 13 subtable" equal.numr
Substitution2: "'sups' Superscript lookup 12 subtable" equalsuperior
AlternateSubs2: "'aalt' Access All Alternates lookup 1 subtable" equalsuperior equal.numr equal.dnom equal.tf equal.osf
EndChar
StartChar: greater
Encoding: 62 62 2256
Width: 494
GlyphClass: 2
Flags: MW
HStem: 142 379<69 122>
VStem: 56 383<181 353>
LayerCount: 2
Back
Fore
SplineSet
122 521 m 1
 439 353 l 1
 433 313 l 1
 69 142 l 1
 56 181 l 1
 392 334 l 1
 99 482 l 1
 122 521 l 1
EndSplineSet
Substitution2: "'onum' Oldstyle Figures lookup 26 subtable" greater.osf
Substitution2: "'tnum' Tabular Numbers lookup 25 subtable" greater.tf
AlternateSubs2: "'aalt' Access All Alternates lookup 1 subtable" greater.tf greater.osf
EndChar
StartChar: question
Encoding: 63 63 2130
Width: 442
Flags: MW
HStem: -11 21G<168 191.5> -11 79<174 191.5> 655 39<255.5 320.5>
VStem: 143 80<19 37.5> 163 45<262.5 336.5 260 349.5> 391 48<494.5 595>
LayerCount: 2
Back
Fore
SplineSet
291 694 m 0xac
 387 694 439 640 439 570 c 0
 439 394 208 404 208 269 c 0
 208 251 211 237 214 224 c 1
 173 215 l 1
 167 233 163 254 163 271 c 0
 163 428 391 420 391 569 c 0
 391 621 353 655 288 655 c 0
 223 655 176 629 123 578 c 1
 93 605 l 1
 154 667 214 694 291 694 c 0xac
186 68 m 0x74
 209 68 223 52 223 31 c 0
 223 7 204 -11 179 -11 c 0
 157 -11 143 5 143 25 c 0
 143 50 162 68 186 68 c 0x74
EndSplineSet
EndChar

StartChar: at
Encoding: 64 64 1220
Width: 1018
Flags: MW
HStem: -203 41<369 510.5 369 514> 13 38<687.5 783 685 799.5> 15 39<427 488.5> 444 38<478.5 572> 654 40<410.5 676.5>
VStem: 82 46<74.5 275.5 74.5 284> 311 46<137 231.5 137 247> 615 36.51 892 47<292.5 445>
LayerCount: 2
Fore
SplineSet
574 694 m 0xdf80
 814 694 939 547 939 356 c 0
 939 206 878 13 721 13 c 0xdf80
 654 13 619 60 615 124 c 1
 577 57 524 15 453 15 c 0xbf80
 371 15 311 75 311 185 c 0
 311 309 377 482 552 482 c 0
 605 482 651 467 689 446 c 1
 654 181 l 2
 647 121 650 51 720 51 c 0
 846 51 892 228 892 357 c 0
 892 533 780 654 573 654 c 0
 248 654 128 374 128 177 c 0
 128 -28 266 -162 472 -162 c 0
 549 -162 608 -149 665 -129 c 1
 675 -168 l 1
 615 -188 558 -203 470 -203 c 0
 244 -203 82 -54 82 177 c 0
 82 391 215 694 574 694 c 0xdf80
458 54 m 0xbf80
 529 54 584 114 609 171 c 1
 645 422 l 1
 616 436 590 444 554 444 c 0
 403 444 357 284 357 179 c 0
 357 95 396 54 458 54 c 0xbf80
EndSplineSet
EndChar
StartChar: D
Encoding: 68 68 50
Width: 626
GlyphClass: 2
Flags: MW
HStem: 0 41<131 219> 643 41<215 305 215 215>
VStem: 527 47<338 522.5>
AnchorPoint: "Anchor-14" 329 342 basechar 0
AnchorPoint: "Anchor-13" 0 0 basechar 0
AnchorPoint: "Anchor-12" 357 684 basechar 0
AnchorPoint: "Anchor-11" 0 0 basechar 0
AnchorPoint: "Anchor-10" 252 0 basechar 0
LayerCount: 2
Back
Fore
SplineSet
305 684 m 2
 442 684 574 639 574 429 c 0
 574 218 482 0 219 0 c 2
 78 0 l 1
 174 684 l 1
 305 684 l 2
305 643 m 2
 215 643 l 1
 131 41 l 1
 226 41 l 2
 453 41 527 246 527 430 c 0
 527 615 414 643 305 643 c 2
EndSplineSet
Substitution2: "'c2sc' Capitals to Small Capitals lookup 27 subtable" d.sc
Substitution2: "'aalt' Access All Alternates lookup 0 subtable" d.sc
Position2: "'cpsp' Capital Spacing lookup 0 subtable" dx=5 dy=0 dh=10 dv=0
EndChar

StartChar: E
Encoding: 69 69 24
Width: 502
GlyphClass: 2
Flags: MW
HStem: 0 41<131 422> 336 41<178 419 173 424> 643 41<215 500 215 215>
VStem: 78 434
AnchorPoint: "Anchor-11" 247 0 basechar 0
AnchorPoint: "Anchor-10" 78 524 basechar 0
AnchorPoint: "Anchor-9" 347 684 basechar 0
AnchorPoint: "Anchor-8" 403 0 basechar 0
LayerCount: 2
Fore
SplineSet
500 643 m 1
 215 643 l 1
 178 377 l 1
 424 377 l 1
 419 336 l 1
 173 336 l 1
 131 41 l 1
 428 41 l 1
 422 0 l 1
 78 0 l 1
 174 684 l 1
 512 684 l 1
 500 643 l 1
EndSplineSet
Substitution2: "'c2sc' Capitals to Small Capitals lookup 23 subtable" e.sc
Substitution2: "'aalt' Access All Alternates lookup 0 subtable" e.sc
Position2: "'cpsp' Capital Spacing lookup 0 subtable" dx=5 dy=0 dh=10 dv=0
EndChar
StartChar: F
Encoding: 70 70 93
Width: 475
GlyphClass: 2
Flags: MW
HStem: 0 21G<78 125 78 78> 324 40<176 412 171 418> 643 41<215 495 215 215>
VStem: 78 428
AnchorPoint: "Anchor-14" 0 0 basechar 0
AnchorPoint: "Anchor-13" 0 0 basechar 0
AnchorPoint: "Anchor-12" 340 684 basechar 0
AnchorPoint: "Anchor-11" 0 0 basechar 0
AnchorPoint: "Anchor-10" 0 0 basechar 0
LayerCount: 2
Back
Fore
SplineSet
506 684 m 1
 495 643 l 1
 215 643 l 1
 176 364 l 1
 418 364 l 1
 412 324 l 1
 171 324 l 1
 125 0 l 1
 78 0 l 1
 174 684 l 1
 506 684 l 1
EndSplineSet
Substitution2: "'c2sc' Capitals to Small Capitals lookup 27 subtable" f.sc
Substitution2: "'aalt' Access All Alternates lookup 0 subtable" f.sc
Position2: "'cpsp' Capital Spacing lookup 0 subtable" dx=5 dy=0 dh=10 dv=0
EndChar
StartChar: H
Encoding: 72 72 107
Width: 665
GlyphClass: 2
Flags: MW
HStem: 0 21G<78 125 78 78 466 514 466 466> 339 42<179 514 173 520> 664 20G<174 221 221 221 563 610 610 610>
VStem: 78 532
AnchorPoint: "Anchor-14" 342 342 basechar 0
AnchorPoint: "Anchor-13" 0 0 basechar 0
AnchorPoint: "Anchor-12" 390 684 basechar 0
AnchorPoint: "Anchor-11" 0 0 basechar 0
AnchorPoint: "Anchor-10" 294 0 basechar 0
LayerCount: 2
Back
Fore
SplineSet
466 0 m 1
 514 339 l 1
 173 339 l 1
 125 0 l 1
 78 0 l 1
 174 684 l 1
 221 684 l 1
 179 381 l 1
 520 381 l 1
 563 684 l 1
 610 684 l 1
 514 0 l 1
 466 0 l 1
EndSplineSet
Substitution2: "'c2sc' Capitals to Small Capitals lookup 27 subtable" h.sc
Substitution2: "'aalt' Access All Alternates lookup 0 subtable" h.sc
Position2: "'cpsp' Capital Spacing lookup 0 subtable" dx=5 dy=0 dh=10 dv=0
EndChar
StartChar: I
Encoding: 73 73 115
Width: 276
GlyphClass: 2
Flags: MW
HStem: 0 21G<78 125 78 78> 664 20G<174 221 221 221>
VStem: 78 143
AnchorPoint: "Anchor-14" 0 0 basechar 0
AnchorPoint: "Anchor-13" 0 0 basechar 0
AnchorPoint: "Anchor-12" 198 684 basechar 0
AnchorPoint: "Anchor-11" 122 0 basechar 0
AnchorPoint: "Anchor-10" 101 0 basechar 0
LayerCount: 2
Back
Fore
SplineSet
221 684 m 1
 125 0 l 1
 78 0 l 1
 174 684 l 1
 221 684 l 1
EndSplineSet
Substitution2: "'c2sc' Capitals to Small Capitals lookup 27 subtable" i.sc
Substitution2: "'aalt' Access All Alternates lookup 0 subtable" i.sc
Position2: "'cpsp' Capital Spacing lookup 0 subtable" dx=5 dy=0 dh=10 dv=0
EndChar
StartChar: J
Encoding: 74 74 134
Width: 285
GlyphClass: 2
Flags: MW
HStem: 664 20G<188 235 235 235>
VStem: -33 268
AnchorPoint: "Anchor-14" 0 0 basechar 0
AnchorPoint: "Anchor-13" 0 0 basechar 0
AnchorPoint: "Anchor-12" 209 684 basechar 0
AnchorPoint: "Anchor-11" 0 0 basechar 0
AnchorPoint: "Anchor-10" 0 0 basechar 0
LayerCount: 2
Back
Fore
SplineSet
235 684 m 1
 152 89 l 2
 135 -25 95 -67 -22 -113 c 1
 -33 -77 l 1
 63 -35 92 1 105 95 c 2
 188 684 l 1
 235 684 l 1
EndSplineSet
Substitution2: "'c2sc' Capitals to Small Capitals lookup 27 subtable" j.sc
Substitution2: "'aalt' Access All Alternates lookup 0 subtable" j.sc
Position2: "'cpsp' Capital Spacing lookup 0 subtable" dx=5 dy=0 dh=10 dv=0
EndChar

StartChar: K
Encoding: 75 75 56
Width: 531
GlyphClass: 2
Flags: MW
HStem: 0 21G<78 125 78 78 438 438 438 494> 664 20G<174 221 221 221 516 574 574 574>
VStem: 78 496
AnchorPoint: "Anchor-11" 266 0 basechar 0
AnchorPoint: "Anchor-10" 0 0 basechar 0
AnchorPoint: "Anchor-9" 358 684 basechar 0
AnchorPoint: "Anchor-8" 0 0 basechar 0
LayerCount: 2
Fore
SplineSet
125 0 m 1
 78 0 l 1
 174 684 l 1
 221 684 l 1
 125 0 l 1
236 365 m 1
 494 0 l 1
 438 0 l 1
 180 367 l 1
 516 684 l 1
 574 684 l 1
 236 365 l 1
EndSplineSet
Substitution2: "'c2sc' Capitals to Small Capitals lookup 23 subtable" k.sc
Substitution2: "'aalt' Access All Alternates lookup 0 subtable" k.sc
Position2: "'cpsp' Capital Spacing lookup 0 subtable" dx=5 dy=0 dh=10 dv=0
EndChar

StartChar: L
Encoding: 76 76 58
Width: 465
GlyphClass: 2
Flags: MW
HStem: 0 44<132 404> 664 20G<174 221 221 221>
VStem: 78 340<0 44>
AnchorPoint: "Anchor-11" 244 0 basechar 0
AnchorPoint: "Anchor-10" 0 0 basechar 0
AnchorPoint: "Anchor-9" 198 684 basechar 0
AnchorPoint: "Anchor-8" 0 0 basechar 0
LayerCount: 2
Fore
SplineSet
132 44 m 1
 418 44 l 1
 404 0 l 1
 78 0 l 1
 174 684 l 1
 221 684 l 1
 132 44 l 1
EndSplineSet
Substitution2: "'c2sc' Capitals to Small Capitals lookup 23 subtable" l.sc
Substitution2: "'aalt' Access All Alternates lookup 0 subtable" l.sc
Position2: "'cpsp' Capital Spacing lookup 0 subtable" dx=5 dy=0 dh=10 dv=0
EndChar
StartChar: O
Encoding: 79 79 170
Width: 689
GlyphClass: 2
Flags: MW
HStem: -11 42<253.5 419 253.5 432.5> 653 41<295.5 460>
VStem: 75 49<182 335.5 182 347> 588 49<351 503.5>
AnchorPoint: "Anchor-14" 0 0 basechar 0
AnchorPoint: "Anchor-13" 598 684 basechar 0
AnchorPoint: "Anchor-12" 405 684 basechar 0
AnchorPoint: "Anchor-11" 0 0 basechar 0
AnchorPoint: "Anchor-10" 307 0 basechar 0
LayerCount: 2
Back
Fore
SplineSet
404 694 m 0
 546 694 637 602 637 425 c 0
 637 247 556 -11 309 -11 c 0
 166 -11 75 85 75 261 c 0
 75 433 159 694 404 694 c 0
402 653 m 0
 189 653 124 412 124 259 c 0
 124 105 197 31 310 31 c 0
 528 31 588 275 588 427 c 0
 588 580 518 653 402 653 c 0
EndSplineSet
Substitution2: "Single Substitution lookup 41 subtable" ordmasculine
Substitution2: "'c2sc' Capitals to Small Capitals lookup 27 subtable" o.sc
AlternateSubs2: "'aalt' Access All Alternates lookup 1 subtable" ordmasculine o.sc
Position2: "'cpsp' Capital Spacing lookup 0 subtable" dx=5 dy=0 dh=10 dv=0
EndChar
StartChar: P
Encoding: 80 80 211
Width: 565
GlyphClass: 2
Flags: MW
HStem: 0 21G<78 125 78 78> 272 40<169 267 163 271> 643 41<215 322 215 215>
VStem: 500 49<463 561.5>
AnchorPoint: "Anchor-14" 0 0 basechar 0
AnchorPoint: "Anchor-13" 0 0 basechar 0
AnchorPoint: "Anchor-12" 342 684 basechar 0
AnchorPoint: "Anchor-11" 0 0 basechar 0
AnchorPoint: "Anchor-10" 246 0 basechar 0
LayerCount: 2
Back
Fore
SplineSet
326 684 m 2
 467 684 549 631 549 514 c 0
 549 392 484 272 267 272 c 2
 163 272 l 1
 125 0 l 1
 78 0 l 1
 174 684 l 1
 326 684 l 2
271 312 m 2
 453 312 500 412 500 514 c 0
 500 609 435 643 322 643 c 2
 215 643 l 1
 169 312 l 1
 271 312 l 2
EndSplineSet
Substitution2: "'c2sc' Capitals to Small Capitals lookup 27 subtable" p.sc
Substitution2: "'aalt' Access All Alternates lookup 0 subtable" p.sc
Position2: "'cpsp' Capital Spacing lookup 0 subtable" dx=5 dy=0 dh=10 dv=0
EndChar
StartChar: Q
Encoding: 81 81 216
Width: 676
GlyphClass: 2
Flags: MW
HStem: -11 27 -11 42<253.5 369.5> 653 41<295.5 460>
VStem: 75 49<180.5 334 180.5 347> 588 49<352.5 505>
LayerCount: 2
Back
Fore
SplineSet
637 425 m 0x78
 637 276 580 70 415 16 c 1
 486 13 552 -7 599 -52 c 1xb8
 564 -90 l 1
 500 -26 430 -11 309 -11 c 0
 166 -11 75 85 75 261 c 0
 75 433 159 694 404 694 c 0
 546 694 637 602 637 425 c 0x78
124 256 m 0
 124 105 197 31 310 31 c 0
 528 31 588 275 588 430 c 0
 588 580 518 653 402 653 c 0
 189 653 124 412 124 256 c 0
EndSplineSet
Substitution2: "'c2sc' Capitals to Small Capitals lookup 27 subtable" q.sc
Substitution2: "'aalt' Access All Alternates lookup 0 subtable" q.sc
Position2: "'cpsp' Capital Spacing lookup 0 subtable" dx=5 dy=0 dh=10 dv=0
EndChar

StartChar: R
Encoding: 82 82 86
Width: 583
GlyphClass: 2
Flags: MW
HStem: 0 21G<78 125 78 78 457 510 457 457> 313 40<174 299 299 318 169 299> 643 41<215 333 333 335 215 215>
VStem: 497 50<492 569.5>
AnchorPoint: "Anchor-11" 268 0 basechar 0
AnchorPoint: "Anchor-10" 0 0 basechar 0
AnchorPoint: "Anchor-9" 351 684 basechar 0
AnchorPoint: "Anchor-8" 0 0 basechar 0
LayerCount: 2
Fore
SplineSet
547 530 m 0
 547 443 503 350 364 320 c 1
 510 0 l 1
 457 0 l 1
 318 313 l 1
 169 313 l 1
 125 0 l 1
 78 0 l 1
 174 684 l 1
 333 684 l 2
 480 684 547 633 547 530 c 0
299 353 m 2
 453 353 497 452 497 532 c 0
 497 607 451 643 335 643 c 2
 215 643 l 1
 174 353 l 1
 299 353 l 2
EndSplineSet
Substitution2: "'c2sc' Capitals to Small Capitals lookup 23 subtable" r.sc
Substitution2: "'aalt' Access All Alternates lookup 0 subtable" r.sc
Position2: "'cpsp' Capital Spacing lookup 0 subtable" dx=5 dy=0 dh=10 dv=0
EndChar
StartChar: S
Encoding: 83 83 227
Width: 535
GlyphClass: 2
Flags: MW
HStem: -11 42<181 291.5 181 311.5> 653 41<275 355>
VStem: 107 48<486 556.5> 421 48<161 237>
AnchorPoint: "Anchor-14" 0 0 basechar 0
AnchorPoint: "Anchor-13" 0 0 basechar 0
AnchorPoint: "Anchor-12" 329 684 basechar 0
AnchorPoint: "Anchor-11" 0 0 basechar 0
AnchorPoint: "Anchor-10" 225 0 basechar 0
LayerCount: 2
Back
Fore
SplineSet
324 694 m 0
 405 694 460 665 505 619 c 1
 475 590 l 1
 431 635 386 653 324 653 c 0
 226 653 155 598 155 519 c 0
 155 453 194 419 296 386 c 0
 407 352 469 301 469 202 c 0
 469 110 402 -11 221 -11 c 0
 128 -11 67 24 18 76 c 1
 49 105 l 1
 91 60 141 31 221 31 c 0
 362 31 421 121 421 201 c 0
 421 273 379 314 277 348 c 0
 158 385 107 432 107 517 c 0
 107 596 174 694 324 694 c 0
EndSplineSet
Substitution2: "'c2sc' Capitals to Small Capitals lookup 27 subtable" s.sc
Substitution2: "'aalt' Access All Alternates lookup 0 subtable" s.sc
Position2: "'cpsp' Capital Spacing lookup 0 subtable" dx=5 dy=0 dh=10 dv=0
EndChar
StartChar: T
Encoding: 84 84 238
Width: 486
GlyphClass: 2
Flags: MW
HStem: 0 21G<182 229 182 182> 641 43<74 272 68 535 320 523 320 320>
VStem: 68 467<641 684>
AnchorPoint: "Anchor-14" 255 347 basechar 0
AnchorPoint: "Anchor-13" 0 0 basechar 0
AnchorPoint: "Anchor-12" 302 684 basechar 0
AnchorPoint: "Anchor-11" 0 0 basechar 0
AnchorPoint: "Anchor-10" 206 0 basechar 0
LayerCount: 2
Back
Fore
SplineSet
535 684 m 1
 523 641 l 1
 320 641 l 1
 229 0 l 1
 182 0 l 1
 272 641 l 1
 68 641 l 1
 74 684 l 1
 535 684 l 1
EndSplineSet
Substitution2: "'c2sc' Capitals to Small Capitals lookup 27 subtable" t.sc
Substitution2: "'aalt' Access All Alternates lookup 0 subtable" t.sc
Position2: "'cpsp' Capital Spacing lookup 0 subtable" dx=5 dy=0 dh=10 dv=0
EndChar
StartChar: V
Encoding: 86 86 282
Width: 541
GlyphClass: 2
Flags: MW
HStem: 0 48<239 239 239 261 206 239> 664 20G<79 128 128 128 530 580 580 580>
VStem: 79 501<684 684>
LayerCount: 2
Back
Fore
SplineSet
580 684 m 1
 261 0 l 1
 206 0 l 1
 79 684 l 1
 128 684 l 1
 239 48 l 1
 530 684 l 1
 580 684 l 1
EndSplineSet
Substitution2: "'c2sc' Capitals to Small Capitals lookup 27 subtable" v.sc
Substitution2: "'aalt' Access All Alternates lookup 0 subtable" v.sc
Position2: "'cpsp' Capital Spacing lookup 0 subtable" dx=5 dy=0 dh=10 dv=0
EndChar
StartChar: W
Encoding: 87 87 285
Width: 802
GlyphClass: 2
Flags: MW
HStem: 0 46<555 555 555 579 521 555> 632 52<453 453>
VStem: 92 737<684 684>
AnchorPoint: "Anchor-14" 0 0 basechar 0
AnchorPoint: "Anchor-13" 0 0 basechar 0
AnchorPoint: "Anchor-12" 460 684 basechar 0
AnchorPoint: "Anchor-11" 0 0 basechar 0
AnchorPoint: "Anchor-10" 0 0 basechar 0
LayerCount: 2
Back
Fore
SplineSet
829 684 m 1
 579 0 l 1
 521 0 l 1
 453 632 l 1
 207 0 l 1
 150 0 l 1
 92 684 l 1
 139 684 l 1
 186 47 l 1
 432 684 l 1
 487 684 l 1
 555 46 l 1
 783 684 l 1
 829 684 l 1
EndSplineSet
Substitution2: "'c2sc' Capitals to Small Capitals lookup 27 subtable" w.sc
Substitution2: "'aalt' Access All Alternates lookup 0 subtable" w.sc
Position2: "'cpsp' Capital Spacing lookup 0 subtable" dx=5 dy=0 dh=10 dv=0
EndChar

StartChar: Z
Encoding: 90 90 124
Width: 512
GlyphClass: 2
Flags: MW
HStem: 0 43<63 412> 642 42<134 462 128 523>
VStem: 0 523
AnchorPoint: "Anchor-11" 0 0 basechar 0
AnchorPoint: "Anchor-10" 0 0 basechar 0
AnchorPoint: "Anchor-9" 319 684 basechar 0
AnchorPoint: "Anchor-8" 0 0 basechar 0
LayerCount: 2
Fore
SplineSet
518 644 m 1
 63 43 l 1
 424 43 l 1
 412 0 l 1
 0 0 l 1
 6 40 l 1
 462 642 l 1
 128 642 l 1
 134 684 l 1
 523 684 l 1
 518 644 l 1
EndSplineSet
Substitution2: "'c2sc' Capitals to Small Capitals lookup 23 subtable" z.sc
Substitution2: "'aalt' Access All Alternates lookup 0 subtable" z.sc
Position2: "'cpsp' Capital Spacing lookup 0 subtable" dx=5 dy=0 dh=10 dv=0
EndChar

StartChar: bracketleft
Encoding: 91 91 1007
Width: 314
Flags: MW
HStem: -111 37<85 190> 766 37<204 313 204 204>
VStem: 38 281
LayerCount: 2
Fore
SplineSet
313 766 m 1
 204 766 l 1
 85 -74 l 1
 195 -74 l 1
 190 -111 l 1
 38 -111 l 1
 167 803 l 1
 319 803 l 1
 313 766 l 1
EndSplineSet
Substitution2: "'case' Case-Sensitive Forms lookup 25 subtable" bracketleft.case
Substitution2: "'aalt' Access All Alternates lookup 0 subtable" bracketleft.case
EndChar

StartChar: backslash
Encoding: 92 92 981
Width: 518
Flags: MW
HStem: -98 899<239 304>
VStem: 198 147
LayerCount: 2
Fore
SplineSet
345 -88 m 1
 304 -98 l 1
 198 791 l 1
 239 801 l 1
 345 -88 l 1
EndSplineSet
EndChar

StartChar: bracketright
Encoding: 93 93 1008
Width: 314
Flags: MW
HStem: -111 37<24 134 24 171 19 134> 766 37<148 253 143 300>
VStem: 19 281
LayerCount: 2
Fore
SplineSet
171 -111 m 1
 19 -111 l 1
 24 -74 l 1
 134 -74 l 1
 253 766 l 1
 143 766 l 1
 148 803 l 1
 300 803 l 1
 171 -111 l 1
EndSplineSet
Substitution2: "'case' Case-Sensitive Forms lookup 25 subtable" bracketright.case
Substitution2: "'aalt' Access All Alternates lookup 0 subtable" bracketright.case
EndChar

StartChar: asciicircum
Encoding: 94 94 1230
Width: 526
Flags: MW
HStem: 527 303<99 361 99 361 325 501 325 448>
VStem: 99 402<527 527>
LayerCount: 2
Fore
SplineSet
501 527 m 1
 448 527 l 1
 337 781 l 1
 154 527 l 1
 99 527 l 1
 325 830 l 1
 361 830 l 1
 501 527 l 1
EndSplineSet
EndChar

StartChar: underscore
Encoding: 95 95 997
Width: 518
Flags: MW
HStem: -115 42<-14 434 -20 440>
VStem: -20 460<-115 -73>
LayerCount: 2
Fore
SplineSet
-14 -73 m 1
 440 -73 l 1
 434 -115 l 1
 -20 -115 l 1
 -14 -73 l 1
EndSplineSet
EndChar

StartChar: grave
Encoding: 96 96 1259
Width: 264
Flags: MW
HStem: 648 128
VStem: 96 195<675 732>
LayerCount: 2
Fore
SplineSet
291 675 m 1
 273 648 l 1
 96 732 l 1
 122 776 l 1
 291 675 l 1
EndSplineSet
Substitution2: "'case' Case-Sensitive Forms lookup 25 subtable" grave.case
Substitution2: "'smcp' Lowercase to Small Capitals lookup 24 subtable" grave.sc
Substitution2: "'c2sc' Capitals to Small Capitals lookup 23 subtable" grave.sc
AlternateSubs2: "'aalt' Access All Alternates lookup 1 subtable" grave.sc grave.case
EndChar

StartChar: b
Encoding: 98 98 146
Width: 569
GlyphClass: 2
Flags: MW
HStem: -11 40<217.5 327 217.5 343> 493 39<317 381> 721 20G<223 223>
VStem: 461 47<280 392>
LayerCount: 2
Fore
SplineSet
182 451 m 1
 228 500 283 532 351 532 c 0
 452 532 508 464 508 337 c 0
 508 196 444 -11 242 -11 c 0
 184 -11 140 -1 76 23 c 1
 177 735 l 1
 223 741 l 1
 182 451 l 1
343 493 m 0
 272 493 223 454 175 401 c 1
 127 52 l 1
 160 38 192 29 243 29 c 0
 411 29 461 220 461 340 c 0
 461 444 419 493 343 493 c 0
EndSplineSet
Substitution2: "'smcp' Lowercase to Small Capitals lookup 24 subtable" b.sc
Substitution2: "'aalt' Access All Alternates lookup 0 subtable" b.sc
EndChar

StartChar: d
Encoding: 100 100 153
Width: 580
GlyphClass: 2
Flags: MW
HStem: -11 40<195 268> 0 21G<394 433 394 394> 493 39<241.5 349 220.5 350.5> 715 20G<537 537> 721 20G<492 492>
VStem: 67 48<139.5 253.5 139.5 262>
LayerCount: 2
Fore
SplineSet
537 735 m 1xb4
 433 0 l 1
 394 0 l 1x6c
 404 113 l 1
 367 48 311 -11 225 -11 c 0
 127 -11 67 66 67 194 c 0
 67 330 129 532 312 532 c 0
 386 532 428 495 452 458 c 1
 492 741 l 1xac
 537 735 l 1xb4
317 493 m 0
 166 493 115 314 115 193 c 0
 115 86 159 29 231 29 c 0xac
 312 29 363 92 413 180 c 1
 446 412 l 1
 421 457 384 493 317 493 c 0
EndSplineSet
Substitution2: "'smcp' Lowercase to Small Capitals lookup 24 subtable" d.sc
Substitution2: "'aalt' Access All Alternates lookup 0 subtable" d.sc
EndChar
StartChar: f
Encoding: 102 102 447
Width: 315
GlyphClass: 2
Flags: MW
HStem: -200 21G<-33 -33> 483 39<61 145 55 151 196 326> 702 39<287.5 335.5>
VStem: -47 481
AnchorPoint: "Anchor-14" 0 0 basechar 0
AnchorPoint: "Anchor-13" 0 0 basechar 0
AnchorPoint: "Anchor-12" 307 735 basechar 0
AnchorPoint: "Anchor-11" 0 0 basechar 0
AnchorPoint: "Anchor-10" 73 -195 basechar 0
LayerCount: 2
Back
Fore
SplineSet
318 702 m 0
 257 702 217 674 208 609 c 2
 196 522 l 1
 337 522 l 1
 326 483 l 1
 191 483 l 1
 125 13 l 2
 106 -124 61 -158 -33 -200 c 1
 -47 -165 l 1
 26 -130 63 -101 80 15 c 2
 145 483 l 1
 55 483 l 1
 61 522 l 1
 151 522 l 1
 163 613 l 2
 175 694 233 741 319 741 c 0
 361 741 397 729 434 706 c 1
 415 674 l 1
 380 694 353 702 318 702 c 0
EndSplineSet
Substitution2: "'smcp' Lowercase to Small Capitals lookup 28 subtable" f.sc
Substitution2: "'locl' Localized Forms in Latin lookup 11 subtable" f.loclEWE
AlternateSubs2: "'aalt' Access All Alternates lookup 1 subtable" f.loclEWE f.sc
EndChar

StartChar: h
Encoding: 104 104 173
Width: 581
GlyphClass: 2
Flags: MW
HStem: 0 21G<73 118 73 73 394 440 394 394> 493 39<335 396> 721 20G<223 223>
VStem: 448.86 46.14
AnchorPoint: "Anchor-11" 252 0 basechar 0
AnchorPoint: "Anchor-10" 0 0 basechar 0
AnchorPoint: "Anchor-9" 361 735 basechar 0
AnchorPoint: "Anchor-8" 0 0 basechar 0
LayerCount: 2
Fore
SplineSet
374 532 m 0
 466 532 507 472 492 371 c 2
 440 0 l 1
 394 0 l 1
 446 367 l 2
 459 457 429 493 363 493 c 0
 284 493 217 415 162 312 c 1
 118 0 l 1
 73 0 l 1
 177 735 l 1
 223 741 l 1
 172 383 l 1
 223 477 296 532 374 532 c 0
EndSplineSet
Substitution2: "'smcp' Lowercase to Small Capitals lookup 24 subtable" h.sc
Substitution2: "'aalt' Access All Alternates lookup 0 subtable" h.sc
EndChar

StartChar: i
Encoding: 105 105 176
Width: 265
GlyphClass: 2
Flags: MW
HStem: 0 21G<73 119 73 73> 502 20G<147 193 193 193> 674 70<187 203.5>
VStem: 160 70
AnchorPoint: "Anchor-11" 0 0 basechar 0
AnchorPoint: "Anchor-10" 0 0 basechar 0
AnchorPoint: "Anchor-9" 170 522 basechar 0
AnchorPoint: "Anchor-8" 128 0 basechar 0
LayerCount: 2
Fore
SplineSet
197 744 m 0
 221 744 233 727 230 706 c 0
 227 688 214 674 193 674 c 0
 170 674 157 691 160 712 c 0
 163 730 177 744 197 744 c 0
119 0 m 1
 73 0 l 1
 147 522 l 1
 193 522 l 1
 119 0 l 1
EndSplineSet
Substitution2: "'smcp' Lowercase to Small Capitals lookup 24 subtable" i.sc
Substitution2: "'locl' Localized Forms in Latin lookup 10 subtable" i.loclTRK
Substitution2: "'locl' Localized Forms in Latin lookup 8 subtable" i.loclTRK
Substitution2: "'locl' Localized Forms in Latin lookup 6 subtable" i.loclTRK
Substitution2: "'locl' Localized Forms in Latin lookup 3 subtable" i.loclTRK
Substitution2: "'locl' Localized Forms in Latin lookup 2 subtable" i.loclTRK
AlternateSubs2: "'aalt' Access All Alternates lookup 1 subtable" i.loclTRK i.sc
EndChar

StartChar: j
Encoding: 106 106 188
Width: 265
GlyphClass: 2
Flags: MW
HStem: -200 21G<-39 -39> 502 20G<146 192 192 192> 674 70<186 202.5>
VStem: 159 70
AnchorPoint: "Anchor-11" 0 0 basechar 0
AnchorPoint: "Anchor-10" 0 0 basechar 0
AnchorPoint: "Anchor-9" 169 522 basechar 0
AnchorPoint: "Anchor-8" 0 0 basechar 0
LayerCount: 2
Fore
SplineSet
196 744 m 0
 220 744 232 727 229 706 c 0
 226 688 213 674 192 674 c 0
 169 674 156 691 159 712 c 0
 162 730 176 744 196 744 c 0
120 13 m 2
 101 -124 55 -158 -39 -200 c 1
 -52 -166 l 1
 21 -131 58 -101 75 15 c 2
 146 522 l 1
 192 522 l 1
 120 13 l 2
EndSplineSet
Substitution2: "'smcp' Lowercase to Small Capitals lookup 24 subtable" j.sc
Substitution2: "'aalt' Access All Alternates lookup 0 subtable" j.sc
EndChar

StartChar: k
Encoding: 107 107 191
Width: 514
GlyphClass: 2
Flags: MW
HStem: 0 21G<73 118 73 73 382 433 382 382> 495 37<337 392> 721 20G<223 223>
VStem: 442 48<380.5 441.5>
AnchorPoint: "Anchor-11" 244 0 basechar 0
AnchorPoint: "Anchor-10" 0 0 basechar 0
AnchorPoint: "Anchor-9" 0 0 basechar 0
AnchorPoint: "Anchor-8" 0 0 basechar 0
LayerCount: 2
Fore
SplineSet
172 382 m 1
 230 489 301 532 373 532 c 0
 441 532 490 491 490 424 c 0
 490 337 428 273 314 237 c 1
 433 0 l 1
 382 0 l 1
 258 253 l 1
 379 286 442 341 442 419 c 0
 442 464 420 495 364 495 c 0
 286 495 217 421 161 301 c 1
 118 0 l 1
 73 0 l 1
 177 735 l 1
 223 741 l 1
 172 382 l 1
EndSplineSet
Substitution2: "'smcp' Lowercase to Small Capitals lookup 24 subtable" k.sc
Substitution2: "'aalt' Access All Alternates lookup 0 subtable" k.sc
EndChar

StartChar: m
Encoding: 109 109 200
Width: 849
GlyphClass: 2
Flags: MW
HStem: 0 21G<73 118 73 73 367 412 367 367 661 707 661 661> 493 39<323 375 619 670> 502 20G<147 185 185 185>
VStem: 421.56 45.44 715.89 46.14
LayerCount: 2
Fore
SplineSet
654 532 m 0xd8
 733 532 774 472 759 371 c 2
 707 0 l 1
 661 0 l 1
 713 367 l 2
 726 457 696 493 644 493 c 0
 572 493 512 416 457 313 c 1
 412 0 l 1
 367 0 l 1
 419 367 l 2
 431 457 401 493 349 493 c 0xd8
 277 493 217 415 162 312 c 1
 118 0 l 1
 73 0 l 1
 147 522 l 1
 185 522 l 1xb8
 170 382 l 1
 222 476 286 532 360 532 c 0
 430 532 473 483 467 394 c 1
 520 482 584 532 654 532 c 0xd8
EndSplineSet
Substitution2: "'smcp' Lowercase to Small Capitals lookup 24 subtable" m.sc
Substitution2: "'aalt' Access All Alternates lookup 0 subtable" m.sc
EndChar
StartChar: o
Encoding: 111 111 551
Width: 565
GlyphClass: 2
Flags: MW
HStem: -11 40<203 327 203 344.5> 493 39<237.5 362.5>
VStem: 62 47<141.5 252 141.5 265.5> 456 48<269 381.5>
AnchorPoint: "Anchor-14" 0 0 basechar 0
AnchorPoint: "Anchor-13" 497 522 basechar 0
AnchorPoint: "Anchor-12" 320 522 basechar 0
AnchorPoint: "Anchor-11" 0 0 basechar 0
AnchorPoint: "Anchor-10" 247 0 basechar 0
LayerCount: 2
Back
Fore
SplineSet
319 532 m 0
 436 532 504 458 504 325 c 0
 504 195 442 -11 247 -11 c 0
 129 -11 62 68 62 199 c 0
 62 332 126 532 319 532 c 0
318 493 m 0
 157 493 109 308 109 196 c 0
 109 87 159 29 247 29 c 0
 407 29 456 211 456 327 c 0
 456 436 407 493 318 493 c 0
EndSplineSet
Substitution2: "Single Substitution lookup 41 subtable" ordmasculine
Substitution2: "'smcp' Lowercase to Small Capitals lookup 28 subtable" o.sc
AlternateSubs2: "'aalt' Access All Alternates lookup 1 subtable" ordmasculine o.sc
EndChar
StartChar: p
Encoding: 112 112 593
Width: 574
GlyphClass: 2
Flags: MW
HStem: -203 21G<44 44> -11 40<220 327 217.5 343.5> 493 39<318 381> 502 20G<147 186 186 186>
VStem: 461 47<279.5 391.5>
AnchorPoint: "Anchor-14" 0 0 basechar 0
AnchorPoint: "Anchor-13" 0 0 basechar 0
AnchorPoint: "Anchor-12" 324 522 basechar 0
AnchorPoint: "Anchor-11" 0 0 basechar 0
AnchorPoint: "Anchor-10" 228 -195 basechar 0
LayerCount: 2
Back
Fore
SplineSet
351 532 m 0xe8
 452 532 508 464 508 337 c 0
 508 196 444 -11 243 -11 c 0
 197 -11 162 -4 121 12 c 1
 91 -197 l 1
 44 -203 l 1
 147 522 l 1
 186 522 l 1xd8
 180 447 l 1
 230 502 285 532 351 532 c 0xe8
343 493 m 0
 272 493 223 454 176 400 c 1
 127 52 l 1
 160 38 192 29 243 29 c 0
 411 29 461 220 461 339 c 0
 461 444 419 493 343 493 c 0
EndSplineSet
Substitution2: "'smcp' Lowercase to Small Capitals lookup 28 subtable" p.sc
Substitution2: "'aalt' Access All Alternates lookup 0 subtable" p.sc
EndChar

StartChar: q
Encoding: 113 113 222
Width: 563
GlyphClass: 2
Flags: MW
HStem: -203 21G<349 349> -11 40<192.5 259> 494 38<247 350.5>
VStem: 61 48<139.5 254 139.5 262.5>
LayerCount: 2
Fore
SplineSet
326 532 m 0
 395 532 440 515 489 490 c 1
 394 -198 l 1
 349 -203 l 1
 389 84 l 1
 352 29 293 -11 225 -11 c 0
 121 -11 61 66 61 192 c 0
 61 333 132 532 326 532 c 0
327 494 m 0
 167 494 109 315 109 193 c 0
 109 86 154 29 231 29 c 0
 297 29 351 72 396 145 c 1
 441 468 l 1
 410 484 374 494 327 494 c 0
EndSplineSet
Substitution2: "'smcp' Lowercase to Small Capitals lookup 24 subtable" q.sc
Substitution2: "'aalt' Access All Alternates lookup 0 subtable" q.sc
EndChar

StartChar: r
Encoding: 114 114 223
Width: 368
GlyphClass: 2
Flags: MW
HStem: 0 21G<73 118 73 73> 489 43<303 343> 502 20G<147 186 186 186> 525 7
VStem: 73 317
AnchorPoint: "Anchor-11" 95 0 basechar 0
AnchorPoint: "Anchor-10" 0 0 basechar 0
AnchorPoint: "Anchor-9" 268 522 basechar 0
AnchorPoint: "Anchor-8" 0 0 basechar 0
LayerCount: 2
Fore
SplineSet
341 532 m 0xc8
 361 532 379 529 390 525 c 1x98
 378 483 l 1
 364 487 349 489 337 489 c 0xc8
 257 489 208 419 162 305 c 1
 118 0 l 1
 73 0 l 1
 147 522 l 1
 186 522 l 1xa8
 170 388 l 1
 208 478 265 532 341 532 c 0xc8
EndSplineSet
Substitution2: "'smcp' Lowercase to Small Capitals lookup 24 subtable" r.sc
Substitution2: "'aalt' Access All Alternates lookup 0 subtable" r.sc
EndChar

StartChar: s
Encoding: 115 115 227
Width: 461
GlyphClass: 2
Flags: MW
HStem: -11 40<160 238.5 160 259.5> 493 39<220.5 286>
VStem: 82 47<375 427.5 375 434.5> 344 48<106 170>
AnchorPoint: "Anchor-11" 194 0 basechar 0
AnchorPoint: "Anchor-10" 0 0 basechar 0
AnchorPoint: "Anchor-9" 268 522 basechar 0
AnchorPoint: "Anchor-8" 0 0 basechar 0
LayerCount: 2
Fore
SplineSet
260 532 m 0
 323 532 372 513 415 475 c 1
 389 445 l 1
 351 477 312 493 260 493 c 0
 181 493 129 457 129 398 c 0
 129 352 155 323 246 296 c 1
 350 263 392 220 392 145 c 0
 392 59 325 -11 194 -11 c 0
 108 -11 54 20 13 58 c 1
 41 88 l 1
 82 51 127 29 193 29 c 0
 284 29 344 70 344 142 c 0
 344 198 318 228 221 259 c 0
 115 293 82 334 82 397 c 0
 82 472 151 532 260 532 c 0
EndSplineSet
Substitution2: "'smcp' Lowercase to Small Capitals lookup 24 subtable" s.sc
Substitution2: "'aalt' Access All Alternates lookup 0 subtable" s.sc
EndChar
StartChar: v
Encoding: 118 118 686
Width: 461
GlyphClass: 2
Flags: MW
HStem: 0 41<202 202 202 226 168 202> 502 20G<54 104 104 104 429 481 481 481>
VStem: 54 427<522 522>
AnchorPoint: "Anchor-14" 0 0 basechar 0
AnchorPoint: "Anchor-13" 0 0 basechar 0
AnchorPoint: "Anchor-12" 267 522 basechar 0
AnchorPoint: "Anchor-11" 0 0 basechar 0
AnchorPoint: "Anchor-10" 197 0 basechar 0
LayerCount: 2
Back
Fore
SplineSet
481 522 m 1
 226 0 l 1
 168 0 l 1
 54 522 l 1
 104 522 l 1
 202 41 l 1
 429 522 l 1
 481 522 l 1
EndSplineSet
Substitution2: "'smcp' Lowercase to Small Capitals lookup 28 subtable" v.sc
Substitution2: "'aalt' Access All Alternates lookup 0 subtable" v.sc
EndChar
StartChar: x
Encoding: 120 120 698
Width: 448
GlyphClass: 2
Flags: MW
HStem: 0 21G<-25 28 -25 -25 347 399 347 347> 502 20G<74 124 124 124 396 449 449 449>
VStem: -25 474
AnchorPoint: "Anchor-14" 0 0 basechar 0
AnchorPoint: "Anchor-13" 0 0 basechar 0
AnchorPoint: "Anchor-12" 261 522 basechar 0
AnchorPoint: "Anchor-11" 0 0 basechar 0
AnchorPoint: "Anchor-10" 188 0 basechar 0
LayerCount: 2
Back
Fore
SplineSet
449 522 m 1
 254 276 l 1
 399 0 l 1
 347 0 l 1
 222 249 l 1
 28 0 l 1
 -25 0 l 1
 199 281 l 1
 74 522 l 1
 124 522 l 1
 230 308 l 1
 396 522 l 1
 449 522 l 1
EndSplineSet
Substitution2: "'smcp' Lowercase to Small Capitals lookup 28 subtable" x.sc
Substitution2: "'sups' Superscript lookup 15 subtable" uni02E3
AlternateSubs2: "'aalt' Access All Alternates lookup 1 subtable" uni02E3 x.sc
EndChar
StartChar: y
Encoding: 121 121 699
Width: 458
GlyphClass: 2
Flags: MW
HStem: -201 21G<-5 -5> 0 21G<163 163> 502 20G<54 103 103 103 428 478 478 478>
VStem: -8 486
AnchorPoint: "Anchor-14" 0 0 basechar 0
AnchorPoint: "Anchor-13" 0 0 basechar 0
AnchorPoint: "Anchor-12" 260 522 basechar 0
AnchorPoint: "Anchor-11" 0 0 basechar 0
AnchorPoint: "Anchor-10" 165 -195 basechar 0
LayerCount: 2
Back
Fore
SplineSet
478 522 m 1
 226 -4 l 2
 172 -118 119 -173 -5 -201 c 1
 -8 -164 l 1
 101 -136 132 -94 182 1 c 1
 163 0 l 1
 54 522 l 1
 103 522 l 1
 198 34 l 1
 428 522 l 1
 478 522 l 1
EndSplineSet
Substitution2: "'smcp' Lowercase to Small Capitals lookup 28 subtable" y.sc
Substitution2: "'aalt' Access All Alternates lookup 0 subtable" y.sc
EndChar
StartChar: z
Encoding: 122 122 712
Width: 415
GlyphClass: 2
Flags: MW
HStem: 0 41<56 336> 481 41<90 355 84 418>
VStem: -9 427
AnchorPoint: "Anchor-14" 0 0 basechar 0
AnchorPoint: "Anchor-13" 0 0 basechar 0
AnchorPoint: "Anchor-12" 254 522 basechar 0
AnchorPoint: "Anchor-11" 0 0 basechar 0
AnchorPoint: "Anchor-10" 164 0 basechar 0
LayerCount: 2
Back
Fore
SplineSet
418 522 m 1
 413 485 l 1
 56 41 l 1
 346 41 l 1
 336 0 l 1
 -9 0 l 1
 -3 36 l 1
 355 481 l 1
 84 481 l 1
 90 522 l 1
 418 522 l 1
EndSplineSet
Substitution2: "'smcp' Lowercase to Small Capitals lookup 28 subtable" z.sc
Substitution2: "'aalt' Access All Alternates lookup 0 subtable" z.sc
EndChar

StartChar: braceleft
Encoding: 123 123 1005
Width: 326
Flags: MW
HStem: -127 35<173 202> 329 40<64 84.5> 790 36<300 331>
VStem: 128 43.17
LayerCount: 2
Fore
SplineSet
331 790 m 1
 269 790 242 763 233 706 c 1
 197 448 l 2
 188 380 161 360 109 348 c 1
 155 337 179 317 169 248 c 2
 132 -10 l 1
 125 -67 142 -92 204 -92 c 1
 202 -127 l 1
 125 -127 79 -90 91 -8 c 2
 128 258 l 2
 136 312 110 329 59 329 c 1
 64 369 l 1
 113 369 147 390 155 444 c 2
 192 710 l 2
 204 792 250 826 333 826 c 1
 331 790 l 1
EndSplineSet
Substitution2: "'case' Case-Sensitive Forms lookup 25 subtable" braceleft.case
Substitution2: "'aalt' Access All Alternates lookup 0 subtable" braceleft.case
EndChar
StartChar: bar
Encoding: 124 124 2376
Width: 407
GlyphClass: 2
Flags: MW
HStem: -100 903<131 301 131 301>
VStem: 131 170
LayerCount: 2
Back
Fore
SplineSet
301 803 m 1
 175 -100 l 1
 131 -100 l 1
 257 803 l 1
 301 803 l 1
EndSplineSet
EndChar

StartChar: braceright
Encoding: 125 125 1006
Width: 326
Flags: MW
HStem: -127 35<19 50 19 59> 329 41<265.5 286> 790 36<148 177>
VStem: 178.82 43.18 218 42<707 709>
LayerCount: 2
Fore
SplineSet
19 -92 m 1xf0
 81 -92 109 -64 117 -7 c 2
 153 251 l 2
 163 319 189 338 242 350 c 1
 195 361 171 381 181 451 c 2xf0
 218 709 l 2
 226 766 208 790 146 790 c 1
 148 826 l 1
 225 826 271 789 260 707 c 2xe8
 222 440 l 2
 215 387 240 370 291 370 c 1
 286 329 l 1
 238 329 204 309 196 255 c 2
 159 -12 l 2
 147 -94 101 -127 17 -127 c 1
 19 -92 l 1xf0
EndSplineSet
Substitution2: "'case' Case-Sensitive Forms lookup 25 subtable" braceright.case
Substitution2: "'aalt' Access All Alternates lookup 0 subtable" braceright.case
EndChar
StartChar: asciitilde
Encoding: 126 126 2247
Width: 464
GlyphClass: 2
Flags: MW
HStem: 269 41<291 331.5 291 336.5> 325 41<150.5 191>
VStem: 62 356<299 335>
LayerCount: 2
Back
Fore
SplineSet
313 269 m 0
 253 269 214 325 168 325 c 0
 133 325 113 305 90 280 c 1
 62 299 l 1
 91 336 121 366 170 366 c 0x60
 232 366 267 310 315 310 c 0
 348 310 367 328 390 354 c 1
 418 335 l 1
 388 297 360 269 313 269 c 0
EndSplineSet
Substitution2: "'onum' Oldstyle Figures lookup 26 subtable" asciitilde.osf
Substitution2: "'tnum' Tabular Numbers lookup 25 subtable" asciitilde.tf
AlternateSubs2: "'aalt' Access All Alternates lookup 1 subtable" asciitilde.tf asciitilde.osf
EndChar

StartChar: exclamdown
Encoding: 161 161 988
Width: 238
Flags: MW
HStem: -195 21G<34 82 34 34> 388 80<136 153.5>
VStem: 105 80<418.5 436.5>
LayerCount: 2
Fore
SplineSet
148 468 m 0
 171 468 185 451 185 431 c 0
 185 406 166 388 141 388 c 0
 119 388 105 404 105 424 c 0
 105 449 124 468 148 468 c 0
82 -195 m 1
 34 -195 l 1
 100 250 l 1
 142 250 l 1
 82 -195 l 1
EndSplineSet
Substitution2: "'case' Case-Sensitive Forms lookup 25 subtable" exclamdown.case
Substitution2: "'aalt' Access All Alternates lookup 0 subtable" exclamdown.case
EndChar

StartChar: cent
Encoding: 162 162 1062
Width: 464
Flags: MW
HStem: -11 41<253 253> -8 21G<213 213> 493 39<330 330 330 344.5>
VStem: 62 48<141 256 141 263>
LayerCount: 2
Fore
SplineSet
321 493 m 0xb0
 163 493 110 315 110 197 c 0
 110 85 166 30 250 30 c 0
 301 30 342 48 381 76 c 1
 402 43 l 1
 359 10 308 -10 253 -11 c 1xb0
 234 -149 l 1
 194 -149 l 1
 213 -8 l 1x70
 118 6 62 79 62 199 c 0
 62 327 124 511 290 530 c 1
 311 679 l 1
 351 679 l 1
 330 532 l 1
 381 530 422 514 457 480 c 1
 430 451 l 1
 401 479 368 493 321 493 c 0xb0
EndSplineSet
Substitution2: "'onum' Oldstyle Figures lookup 22 subtable" cent.osf
Substitution2: "'tnum' Tabular Numbers lookup 21 subtable" cent.tf
AlternateSubs2: "'aalt' Access All Alternates lookup 1 subtable" cent.tf cent.osf
EndChar
StartChar: yen
Encoding: 165 165 2214
Width: 502
GlyphClass: 2
Flags: MW
HStem: 0 192<191 219 84 239 191 191> 155 37<84 213 79 219 266 394> 299 37<105 223 105 234 100 223 303 415>
VStem: 72 470<664 664>
LayerCount: 2
Back
Fore
SplineSet
542 664 m 1x70
 303 336 l 1
 420 336 l 1
 415 299 l 1
 281 299 l 1
 266 192 l 1
 399 192 l 1
 394 155 l 1
 261 155 l 1x70
 239 0 l 1
 191 0 l 1xb0
 213 155 l 1
 79 155 l 1
 84 192 l 1
 219 192 l 1
 234 299 l 1
 100 299 l 1
 105 336 l 1
 223 336 l 1
 72 664 l 1
 125 664 l 1
 263 344 l 1
 491 664 l 1
 542 664 l 1x70
EndSplineSet
Substitution2: "'onum' Oldstyle Figures lookup 26 subtable" yen.osf
Substitution2: "'tnum' Tabular Numbers lookup 25 subtable" yen.tf
AlternateSubs2: "'aalt' Access All Alternates lookup 1 subtable" yen.tf yen.osf
EndChar

StartChar: brokenbar
Encoding: 166 166 1219
Width: 407
Flags: MW
HStem: 41 622<151 282 151 282>
VStem: 151 131
LayerCount: 2
Fore
SplineSet
233 318 m 1
 195 41 l 1
 151 41 l 1
 202 403 l 1
 238 663 l 1
 282 663 l 1
 233 318 l 1
EndSplineSet
EndChar
StartChar: section
Encoding: 167 167 2383
Width: 531
GlyphClass: 2
Flags: MW
HStem: -67 39<185.5 263.5 185.5 265> 636 38<281 352.5>
VStem: 95 46<290.5 335 290.5 339> 153 45<520.5 561.5 517 582.5> 346 47<48 89 28 93> 402 45<277.5 315.5>
LayerCount: 2
Back
Fore
SplineSet
327 636 m 0
 231 636 198 584 198 539 c 0
 198 495 225 468 315 435 c 0
 407 403 447 360 447 298 c 0xdc
 447 241 420 202 347 160 c 1
 378 137 393 108 393 70 c 0
 393 -14 320 -67 210 -67 c 0
 144 -67 98 -49 53 -21 c 1
 77 13 l 1
 117 -15 160 -28 211 -28 c 0
 316 -28 346 26 346 70 c 0
 346 116 320 140 235 172 c 0
 142 205 95 246 95 310 c 0xf8
 95 368 128 409 198 449 c 1
 167 474 153 503 153 538 c 0
 153 627 234 674 328 674 c 0
 395 674 438 654 478 626 c 1
 454 595 l 1
 414 622 378 636 327 636 c 0
402 296 m 0xfc
 402 335 381 369 298 400 c 0
 270 409 246 420 227 430 c 1
 165 392 141 359 141 311 c 0
 141 270 168 239 251 207 c 0
 277 198 299 189 318 179 c 1
 387 221 402 259 402 296 c 0xfc
EndSplineSet
Substitution2: "'onum' Oldstyle Figures lookup 26 subtable" section.osf
Substitution2: "'tnum' Tabular Numbers lookup 25 subtable" section.tf
AlternateSubs2: "'aalt' Access All Alternates lookup 1 subtable" section.tf section.osf
EndChar

StartChar: dieresis
Encoding: 168 168 1257
Width: 309
Flags: MW
HStem: 666 66<118 132.5 299.5 314>
VStem: 92 66 273 66
AnchorPoint: "Anchor-12" 209 652 basemark 0
LayerCount: 2
Fore
SplineSet
127 732 m 0
 148 732 161 716 158 696 c 0
 155 679 142 666 123 666 c 0
 102 666 89 682 92 702 c 0
 94 719 109 732 127 732 c 0
309 732 m 0
 330 732 342 716 339 696 c 0
 337 679 323 666 305 666 c 0
 283 666 270 682 273 702 c 0
 275 719 290 732 309 732 c 0
EndSplineSet
Substitution2: "'case' Case-Sensitive Forms lookup 25 subtable" dieresis.case
Substitution2: "'smcp' Lowercase to Small Capitals lookup 24 subtable" dieresis.sc
Substitution2: "'c2sc' Capitals to Small Capitals lookup 23 subtable" dieresis.sc
AlternateSubs2: "'aalt' Access All Alternates lookup 1 subtable" dieresis.sc dieresis.case
EndChar
StartChar: copyright
Encoding: 169 169 2381
Width: 810
GlyphClass: 2
Flags: MW
HStem: 138 35<333 478.5 333 487.5> 258 37<379 427 379 430> 576 36<385 424> 697 35<333 478.5>
VStem: 114 39<357.5 511 357.5 520.5> 264 42<388 490 388 497> 657 39<359 512>
LayerCount: 2
Back
Fore
SplineSet
405 732 m 0
 570 732 696 607 696 435 c 0
 696 264 570 138 405 138 c 0
 240 138 114 262 114 435 c 0
 114 606 240 732 405 732 c 0
406 697 m 0
 260 697 153 587 153 435 c 0
 153 280 260 173 406 173 c 0
 551 173 657 283 657 435 c 0
 657 589 551 697 406 697 c 0
407 612 m 0
 448 612 476 600 503 580 c 1
 482 552 l 1
 461 568 440 576 408 576 c 0
 362 576 306 544 306 436 c 0
 306 340 350 295 408 295 c 0
 446 295 470 307 492 323 c 1
 510 295 l 1
 486 275 453 258 407 258 c 0
 323 258 264 326 264 436 c 0
 264 558 338 612 407 612 c 0
EndSplineSet
EndChar
StartChar: ordfeminine
Encoding: 170 170 1056
Width: 498
GlyphClass: 2
Flags: MW
HStem: 0 41<44 396 49 390> 275 38<199.5 244.5> 485 35<289 294 294 368> 645 39<279 326.5>
VStem: 101 47<362.5 408 362.5 423> 354 40.54 380 45<582.5 604.5>
LayerCount: 2
Back
Fore
SplineSet
300 684 m 0xfa
 386 684 425 650 425 587 c 0
 425 578 424 569 423 559 c 2xfa
 397 371 l 2
 392 340 392 318 420 306 c 1
 408 275 l 1
 375 283 357 297 354 339 c 1xfc
 318 295 272 275 217 275 c 0
 143 275 101 321 101 383 c 0
 101 463 169 520 289 520 c 2
 373 520 l 1
 378 557 l 2
 379 568 380 575 380 582 c 0
 380 627 357 645 296 645 c 0
 260 645 222 636 180 622 c 1
 170 658 l 1
 216 674 258 684 300 684 c 0xfa
368 485 m 1
 294 485 l 2
 180 485 148 432 148 384 c 0
 148 341 176 313 223 313 c 0
 279 313 323 341 354 385 c 1
 368 485 l 1
44 0 m 1xfc
 49 41 l 1
 396 41 l 1
 390 0 l 1
 44 0 l 1xfc
EndSplineSet
EndChar

StartChar: guillemotleft
Encoding: 171 171 1036
Width: 547
Flags: MW
HStem: 62 452<209 269 269 414>
VStem: 79 424<272 495>
LayerCount: 2
Fore
SplineSet
298 495 m 1
 131 288 l 1
 239 81 l 1
 209 62 l 1
 79 272 l 1
 82 303 l 1
 269 514 l 1
 298 495 l 1
503 495 m 1
 336 288 l 1
 445 81 l 1
 414 62 l 1
 284 272 l 1
 288 303 l 1
 475 514 l 1
 503 495 l 1
EndSplineSet
Substitution2: "'case' Case-Sensitive Forms lookup 25 subtable" guillemotleft.case
Substitution2: "'aalt' Access All Alternates lookup 0 subtable" guillemotleft.case
EndChar
StartChar: logicalnot
Encoding: 172 172 2263
Width: 498
GlyphClass: 2
Flags: MW
HStem: 300 40<82 387 77 437>
VStem: 77 360<300 340>
LayerCount: 2
Back
Fore
SplineSet
437 340 m 1
 415 178 l 1
 370 178 l 1
 387 300 l 1
 77 300 l 1
 82 340 l 1
 437 340 l 1
EndSplineSet
Substitution2: "'onum' Oldstyle Figures lookup 26 subtable" logicalnot.osf
Substitution2: "'tnum' Tabular Numbers lookup 25 subtable" logicalnot.tf
AlternateSubs2: "'aalt' Access All Alternates lookup 1 subtable" logicalnot.tf logicalnot.osf
EndChar

StartChar: softhyphen
Encoding: 173 173 1028
Width: 398
Flags: MW
HStem: 293 40<80 332 75 338>
VStem: 75 263<293 333>
LayerCount: 2
Fore
SplineSet
80 333 m 1
 338 333 l 1
 332 293 l 1
 75 293 l 1
 80 333 l 1
EndSplineSet
Substitution2: "'case' Case-Sensitive Forms lookup 25 subtable" softhyphen.case
Substitution2: "'aalt' Access All Alternates lookup 0 subtable" softhyphen.case
EndChar

StartChar: macron
Encoding: 175 175 1261
Width: 288
Flags: MW
HStem: 679 39<88 323 94 317>
VStem: 88 235<679 718>
LayerCount: 2
Fore
SplineSet
88 679 m 1
 94 718 l 1
 323 718 l 1
 317 679 l 1
 88 679 l 1
EndSplineSet
Substitution2: "'case' Case-Sensitive Forms lookup 25 subtable" macron.case
Substitution2: "'smcp' Lowercase to Small Capitals lookup 24 subtable" macron.sc
Substitution2: "'c2sc' Capitals to Small Capitals lookup 23 subtable" macron.sc
AlternateSubs2: "'aalt' Access All Alternates lookup 1 subtable" macron.sc macron.case
EndChar

StartChar: degree
Encoding: 176 176 1227
Width: 518
Flags: MW
HStem: 400 37<213 272.5 213 280> 657 37<248 307.5>
VStem: 362 41
LayerCount: 2
Fore
SplineSet
241 400 m 0
 166 400 101 456 114 550 c 0
 127 640 204 694 277 694 c 0
 357 694 417 637 403 544 c 1
 392 456 319 400 241 400 c 0
241 437 m 0
 304 437 353 483 362 549 c 0
 371 616 338 657 277 657 c 0
 219 657 165 613 155 545 c 0
 146 480 185 437 241 437 c 0
EndSplineSet
Substitution2: "'onum' Oldstyle Figures lookup 22 subtable" degree.osf
Substitution2: "'tnum' Tabular Numbers lookup 21 subtable" degree.tf
AlternateSubs2: "'aalt' Access All Alternates lookup 1 subtable" degree.tf degree.osf
EndChar

StartChar: plusminus
Encoding: 177 177 1117
Width: 490
Flags: MW
HStem: 0 41<41 382 35 388> 316 41<85 231 79 236 281 426 85 275>
VStem: 35 397<0 357>
LayerCount: 2
Fore
SplineSet
281 357 m 1
 432 357 l 1
 426 316 l 1
 275 316 l 1
 253 163 l 1
 209 163 l 1
 231 316 l 1
 79 316 l 1
 85 357 l 1
 236 357 l 1
 258 510 l 1
 303 510 l 1
 281 357 l 1
41 41 m 1
 388 41 l 1
 382 0 l 1
 35 0 l 1
 41 41 l 1
EndSplineSet
Substitution2: "'onum' Oldstyle Figures lookup 22 subtable" plusminus.osf
Substitution2: "'tnum' Tabular Numbers lookup 21 subtable" plusminus.tf
AlternateSubs2: "'aalt' Access All Alternates lookup 1 subtable" plusminus.tf plusminus.osf
EndChar
StartChar: uni00B2
Encoding: 178 178 2110
Width: 398
Flags: MW
HStem: 323 36.5 705 36<201 245.5>
VStem: 289 44
LayerCount: 2
Back
Fore
SplineSet
224 741 m 0
 302 741 341 688 333 624 c 0
 322 544 269 500 106 359 c 1
 306 360 l 1
 294 323 l 1
 50 323 l 1
 54 359 l 1
 235 519 280 558 289 627 c 0
 296 675 269 705 222 705 c 0
 180 705 147 686 120 658 c 1
 92 682 l 1
 134 724 175 741 224 741 c 0
EndSplineSet
EndChar

StartChar: threesuperior
Encoding: 179 179 973
Width: 398
Flags: MW
HStem: 315 36<146.5 196.5 146.5 208> 523 34<176 194 194 195 165 194> 708 35<207 249.5>
VStem: 278 41 295 42
LayerCount: 2
Fore
SplineSet
228 743 m 0xe8
 303 743 345 698 337 637 c 1xe8
 329 584 291 551 238 542 c 1
 289 540 329 503 319 436 c 0
 309 366 251 315 165 315 c 0
 112 315 74 336 46 372 c 1
 74 392 l 1
 101 361 130 351 163 351 c 0
 230 351 270 389 278 442 c 0
 286 502 252 523 195 523 c 2xf0
 165 523 l 1
 176 557 l 1
 194 557 l 2
 238 557 287 582 295 639 c 0
 301 683 273 708 226 708 c 0
 188 708 159 697 122 670 c 1
 101 697 l 1
 140 727 177 743 228 743 c 0xe8
EndSplineSet
EndChar
StartChar: acute
Encoding: 180 180 2517
Width: 265
Flags: MW
HStem: 648 128
VStem: 88 212<676 732>
LayerCount: 2
Back
Fore
SplineSet
285 776 m 1
 300 732 l 1
 100 648 l 1
 88 676 l 1
 285 776 l 1
EndSplineSet
Substitution2: "'case' Case-Sensitive Forms lookup 29 subtable" acute.case
Substitution2: "'smcp' Lowercase to Small Capitals lookup 28 subtable" acute.sc
Substitution2: "'c2sc' Capitals to Small Capitals lookup 27 subtable" acute.sc
Substitution2: "'locl' Localized Forms in Latin lookup 7 subtable" acute.loclPLK
AlternateSubs2: "'aalt' Access All Alternates lookup 1 subtable" acute.loclPLK acute.sc acute.case
EndChar
StartChar: uni00B5
Encoding: 181 181 2264
Width: 582
GlyphClass: 2
Flags: MW
HStem: -200 21G<45 45> -11 42<198.5 260.5 198.5 262> -7 21G<413 413> -1 21G<455 455> 502 20G<147 192 192 192 456 502 502 502>
VStem: 403 43.5
LayerCount: 2
Back
Fore
SplineSet
453 174 m 2xcc
 442 97 446 45 455 -1 c 1x9c
 413 -7 l 1xac
 404 34 401 60 403 106 c 1
 358 43 302 -11 222 -11 c 0
 164 -11 133 14 119 47 c 1
 119 12 115 -23 108 -76 c 2
 91 -195 l 1
 45 -200 l 1
 147 522 l 1
 192 522 l 1
 139 146 l 2
 127 59 171 31 226 31 c 0
 295 31 354 77 405 157 c 1
 456 522 l 1
 502 522 l 1
 453 174 l 2xcc
EndSplineSet
EndChar

StartChar: paragraph
Encoding: 182 182 1222
Width: 698
Flags: MW
HStem: -203 21G<257 257 434 434> 644 40
VStem: 134.62 467.38
LayerCount: 2
Fore
SplineSet
602 684 m 1
 479 -195 l 1
 434 -203 l 1
 553 644 l 1
 420 644 l 1
 302 -195 l 1
 257 -203 l 1
 328 298 l 1
 168 304 123 390 137 494 c 1
 155 615 245 683 389 683 c 1
 389 679 l 1
 390 683 l 1
 602 684 l 1
EndSplineSet
EndChar

StartChar: cedilla
Encoding: 184 184 1255
Width: 233
Flags: MW
HStem: -222 35<27 55.5 27 70.5> -201 21G<-35 -35> -95 28<23 65>
VStem: 105 43
LayerCount: 2
Fore
SplineSet
65 -67 m 1x70
 122 -71 148 -94 148 -133 c 0
 148 -184 101 -222 40 -222 c 0xb0
 5 -222 -18 -213 -35 -201 c 1x70
 -16 -172 l 1
 -3 -180 15 -187 39 -187 c 0xb0
 72 -187 104 -170 105 -138 c 0
 106 -108 86 -95 23 -95 c 1
 47 16 l 1
 78 16 l 1
 65 -67 l 1x70
EndSplineSet
Substitution2: "'case' Case-Sensitive Forms lookup 25 subtable" cedilla.case
Substitution2: "'smcp' Lowercase to Small Capitals lookup 24 subtable" cedilla.sc
Substitution2: "'c2sc' Capitals to Small Capitals lookup 23 subtable" cedilla.sc
AlternateSubs2: "'aalt' Access All Alternates lookup 1 subtable" cedilla.sc cedilla.case
EndChar

StartChar: onesuperior
Encoding: 185 185 971
Width: 398
Flags: MW
HStem: 689 47<234 282> 716 20G<247 282 282 282>
VStem: 106 176<658 736>
LayerCount: 2
Fore
SplineSet
223 323 m 1x60
 182 323 l 1
 234 689 l 1
 122 628 l 1
 106 658 l 1xa0
 247 736 l 1
 282 736 l 1
 223 323 l 1x60
EndSplineSet
EndChar
StartChar: uni00B9
Encoding: 185 185 2109
Width: 398
Flags: MW
HStem: 689 47<234 282> 716 20G<247 282 282 282>
VStem: 106 176<658 736>
LayerCount: 2
Back
Fore
SplineSet
282 736 m 1x60
 223 323 l 1
 182 323 l 1
 234 689 l 1
 122 628 l 1
 106 658 l 1xa0
 247 736 l 1
 282 736 l 1x60
EndSplineSet
EndChar
StartChar: ordmasculine
Encoding: 186 186 1057
Width: 498
GlyphClass: 2
Flags: MW
HStem: 0 41<41 393 46 387> 275 38<218.5 315 218.5 329> 646 38<243 339.5>
VStem: 99 47<394.5 476.5 394.5 487.5> 411 47<486 566.5>
LayerCount: 2
Back
Fore
SplineSet
304 684 m 0
 401 684 458 627 458 523 c 0
 458 419 406 275 252 275 c 0
 155 275 99 335 99 437 c 0
 99 538 151 684 304 684 c 0
305 646 m 0
 181 646 146 519 146 434 c 0
 146 355 184 313 253 313 c 0
 377 313 411 445 411 527 c 0
 411 606 374 646 305 646 c 0
41 0 m 1
 46 41 l 1
 393 41 l 1
 387 0 l 1
 41 0 l 1
EndSplineSet
EndChar

StartChar: guillemotright
Encoding: 187 187 1037
Width: 537
Flags: MW
HStem: 62 452<79 140 140 275>
VStem: 51 415<81 303>
LayerCount: 2
Fore
SplineSet
270 303 m 1
 267 272 l 1
 79 62 l 1
 51 81 l 1
 218 288 l 1
 109 495 l 1
 140 514 l 1
 270 303 l 1
466 303 m 1
 462 272 l 1
 275 62 l 1
 247 81 l 1
 414 288 l 1
 305 495 l 1
 335 514 l 1
 466 303 l 1
EndSplineSet
Substitution2: "'case' Case-Sensitive Forms lookup 25 subtable" guillemotright.case
Substitution2: "'aalt' Access All Alternates lookup 0 subtable" guillemotright.case
EndChar
StartChar: onequarter
Encoding: 188 188 2066
Width: 904
Flags: MW
HStem: 0 141<712 733 588 753 712 712> 106 35<588 728 773 825> 637 47<227 275> 664 20G<240 275 275 275> 726 20G<706 706>
VStem: 99 731<141 606>
LayerCount: 2
Back
Fore
SplineSet
706 746 m 1x5c
 737 730 l 1
 219 -68 l 1
 187 -52 l 1
 706 746 l 1x5c
216 271 m 1
 175 271 l 1
 227 637 l 1
 115 576 l 1
 99 606 l 1x6c
 240 684 l 1
 275 684 l 1
 216 271 l 1
830 141 m 1
 825 106 l 1
 768 106 l 1x5c
 753 0 l 1
 712 0 l 1x9c
 728 106 l 1
 539 106 l 1
 543 137 l 1
 713 420 l 1
 747 406 l 1
 588 141 l 1
 733 141 l 1
 754 260 l 1
 790 260 l 1
 773 141 l 1
 830 141 l 1
EndSplineSet
EndChar

StartChar: onehalf
Encoding: 189 189 925
Width: 903
Flags: MW
HStem: 0 36.5 382 36<697 741.5> 637 47<227 275> 664 20G<240 275 275 275> 726 20G<706 706>
VStem: 785 44
LayerCount: 2
Fore
SplineSet
737 730 m 1xdc
 219 -68 l 1
 187 -52 l 1
 706 746 l 1
 737 730 l 1xdc
216 271 m 1
 175 271 l 1
 227 637 l 1
 115 576 l 1
 99 606 l 1xec
 240 684 l 1
 275 684 l 1
 216 271 l 1
720 418 m 0
 798 418 837 365 829 301 c 0
 818 221 765 177 602 36 c 1
 802 37 l 1
 790 0 l 1
 546 0 l 1
 550 36 l 1
 731 196 776 235 785 304 c 0
 792 352 765 382 718 382 c 0
 676 382 643 363 616 335 c 1
 588 359 l 1
 630 401 671 418 720 418 c 0
EndSplineSet
EndChar

StartChar: threequarters
Encoding: 190 190 929
Width: 904
Flags: MW
HStem: 0 141<712 733 588 753 712 712> 106 35<588 728 773 825> 263 36<139.5 189.5 139.5 201> 471 34<169 187 187 188 158 187> 656 35<200 242.5> 726 20G<706 706>
VStem: 271 41 288 42
LayerCount: 2
Fore
SplineSet
737 730 m 1x7e
 219 -68 l 1
 187 -52 l 1
 706 746 l 1
 737 730 l 1x7e
312 384 m 0
 302 314 244 263 158 263 c 0
 105 263 67 284 39 320 c 1
 67 340 l 1
 94 309 123 299 156 299 c 0
 223 299 263 337 271 390 c 0
 279 450 245 471 188 471 c 2x7e
 158 471 l 1
 169 505 l 1
 187 505 l 2
 231 505 280 530 288 587 c 0
 294 631 266 656 219 656 c 0
 181 656 152 645 115 618 c 1
 94 645 l 1
 133 675 170 691 221 691 c 0
 296 691 338 646 330 585 c 1x7d
 322 532 284 499 231 490 c 1
 282 488 322 451 312 384 c 0
825 106 m 1
 768 106 l 1x7e
 753 0 l 1
 712 0 l 1xbe
 728 106 l 1
 539 106 l 1
 543 137 l 1
 713 420 l 1
 747 406 l 1
 588 141 l 1
 733 141 l 1
 754 260 l 1
 790 260 l 1
 773 141 l 1
 830 141 l 1
 825 106 l 1
EndSplineSet
EndChar

StartChar: questiondown
Encoding: 191 191 992
Width: 442
Flags: MW
HStem: -203 39<117 181.5 117 185> 425 80<245.5 264>
VStem: -1 47<-104 -4 -104 9> 215 80<456 474> 229 46<154.5 228.5 141.5 231>
LayerCount: 2
Fore
SplineSet
252 425 m 0xf0
 229 425 215 441 215 462 c 0
 215 486 233 505 258 505 c 0
 280 505 295 489 295 468 c 0
 295 444 276 425 252 425 c 0xf0
147 -203 m 0
 50 -203 -1 -149 -1 -79 c 0
 -1 97 229 87 229 222 c 0
 229 240 227 254 224 267 c 1
 265 276 l 1
 271 258 275 237 275 220 c 0xa8
 275 63 46 70 46 -78 c 0
 46 -130 85 -164 149 -164 c 0
 214 -164 262 -138 315 -87 c 1
 344 -115 l 1
 283 -176 223 -203 147 -203 c 0
EndSplineSet
Substitution2: "'case' Case-Sensitive Forms lookup 25 subtable" questiondown.case
Substitution2: "'aalt' Access All Alternates lookup 0 subtable" questiondown.case
EndChar
StartChar: Acircumflex
Encoding: 194 194 11
Width: 560
GlyphClass: 2
Flags: MW
HStem: 0 21G<-17 32 -17 -17 454 503 454 454> 192 42<141 411 141 419 122 411> 645 39<334 334>
VStem: -17 520<0 0>
AnchorPoint: "Anchor-14" 0 0 basechar 0
AnchorPoint: "Anchor-13" 440 744 basechar 0
AnchorPoint: "Anchor-12" 362 887 basechar 0
AnchorPoint: "Anchor-11" 503 0 basechar 0
AnchorPoint: "Anchor-10" 243 0 basechar 0
LayerCount: 2
Back
Fore
SplineSet
357 843 m 1
 227 763 l 1
 207 788 l 1
 348 887 l 1
 375 887 l 1
 489 788 l 1
 466 763 l 1
 357 843 l 1
454 0 m 1
 419 192 l 1
 122 192 l 1
 32 0 l 1
 -17 0 l 1
 310 684 l 1
 369 684 l 1
 503 0 l 1
 454 0 l 1
141 234 m 1
 411 234 l 1
 334 645 l 1
 141 234 l 1
EndSplineSet
Substitution2: "'c2sc' Capitals to Small Capitals lookup 27 subtable" acircumflex.sc
Substitution2: "'aalt' Access All Alternates lookup 0 subtable" acircumflex.sc
Position2: "'cpsp' Capital Spacing lookup 0 subtable" dx=5 dy=0 dh=10 dv=0
EndChar
StartChar: Atilde
Encoding: 195 195 32
Width: 560
GlyphClass: 2
Flags: MW
HStem: 0 21G<-17 32 -17 -17 454 503 454 454> 192 42<141 411 141 419 122 411> 645 39<334 334> 796 38<398 428.5 398 435> 840 38<291.5 306>
VStem: -17 525
AnchorPoint: "Anchor-14" 0 0 basechar 0
AnchorPoint: "Anchor-13" 0 0 basechar 0
AnchorPoint: "Anchor-12" 363 879 basechar 0
AnchorPoint: "Anchor-11" 503 0 basechar 0
AnchorPoint: "Anchor-10" 243 0 basechar 0
LayerCount: 2
Back
Fore
SplineSet
306 840 m 0
 277 840 264 828 242 801 c 1
 215 819 l 1
 242 856 270 878 307 878 c 0xec
 351 878 378 834 418 834 c 0
 439 834 457 847 481 879 c 1
 508 861 l 1
 479 814 449 796 421 796 c 0
 363 796 341 841 306 840 c 0
310 684 m 1
 369 684 l 1
 503 0 l 1
 454 0 l 1
 419 192 l 1
 122 192 l 1
 32 0 l 1
 -17 0 l 1
 310 684 l 1
141 234 m 1
 411 234 l 1
 334 645 l 1
 141 234 l 1
EndSplineSet
Substitution2: "'c2sc' Capitals to Small Capitals lookup 27 subtable" atilde.sc
Substitution2: "'aalt' Access All Alternates lookup 0 subtable" atilde.sc
Position2: "'cpsp' Capital Spacing lookup 0 subtable" dx=5 dy=0 dh=10 dv=0
EndChar

StartChar: Adieresis
Encoding: 196 196 5
Width: 560
GlyphClass: 2
Flags: MW
HStem: 0 21G<-17 32 -17 -17 454 454 454 503> 192 42<142 410 142 418 122 410> 645 39<334 334> 792 66<262 276.5 443.5 458>
VStem: 236 66 417 66
AnchorPoint: "Anchor-11" 0 0 basechar 0
AnchorPoint: "Anchor-10" 184 522 basechar 0
AnchorPoint: "Anchor-9" 353 778 basechar 0
AnchorPoint: "Anchor-8" 503 0 basechar 0
LayerCount: 2
Fore
SplineSet
267 792 m 0
 246 792 233 808 236 828 c 0
 238 845 253 858 271 858 c 0
 292 858 305 842 302 822 c 0
 299 805 286 792 267 792 c 0
449 792 m 0
 427 792 414 808 417 828 c 0
 419 845 434 858 453 858 c 0
 474 858 486 842 483 822 c 0
 481 805 467 792 449 792 c 0
418 192 m 1
 122 192 l 1
 32 0 l 1
 -17 0 l 1
 310 684 l 1
 369 684 l 1
 503 0 l 1
 454 0 l 1
 418 192 l 1
410 234 m 1
 334 645 l 1
 142 234 l 1
 410 234 l 1
EndSplineSet
Substitution2: "'c2sc' Capitals to Small Capitals lookup 23 subtable" adieresis.sc
Substitution2: "'aalt' Access All Alternates lookup 0 subtable" adieresis.sc
Position2: "'cpsp' Capital Spacing lookup 0 subtable" dx=5 dy=0 dh=10 dv=0
EndChar

StartChar: Aring
Encoding: 197 197 9
Width: 560
GlyphClass: 2
Flags: MW
HStem: 0 21G<-17 32 -17 -17 454 454 454 503> 192 42<142 410 142 418 122 410> 645 39<334 334> 762 31<338 373 338 380> 911 30<354.5 389.5>
VStem: 271 37 419 37
AnchorPoint: "Anchor-11" 0 0 basechar 0
AnchorPoint: "Anchor-10" 184 522 basechar 0
AnchorPoint: "Anchor-9" 340 684 basechar 0
AnchorPoint: "Anchor-8" 503 0 basechar 0
LayerCount: 2
Fore
SplineSet
353 762 m 0
 297 762 263 803 271 854 c 1
 278 906 320 941 374 941 c 0
 430 941 464 902 456 849 c 0
 449 797 407 762 353 762 c 0
308 849 m 0
 303 816 321 793 355 793 c 0
 391 793 413 816 419 854 c 0
 425 888 407 911 372 911 c 0
 337 911 313 888 308 849 c 0
418 192 m 1
 122 192 l 1
 32 0 l 1
 -17 0 l 1
 310 684 l 1
 369 684 l 1
 503 0 l 1
 454 0 l 1
 418 192 l 1
410 234 m 1
 334 645 l 1
 142 234 l 1
 410 234 l 1
EndSplineSet
Substitution2: "'c2sc' Capitals to Small Capitals lookup 23 subtable" aring.sc
Substitution2: "'aalt' Access All Alternates lookup 0 subtable" aring.sc
Position2: "'cpsp' Capital Spacing lookup 0 subtable" dx=5 dy=0 dh=10 dv=0
EndChar
StartChar: Ccedilla
Encoding: 199 199 45
Width: 545
GlyphClass: 2
Flags: MW
HStem: -222 35<270.5 301 270.5 314> -201 21G<208 208> -95 28<266 308> -10 42<284 284 318 318> 653 41<298.5 430.5>
VStem: 75 49<182.5 341 182.5 352> 348 43
AnchorPoint: "Anchor-14" 0 0 basechar 0
AnchorPoint: "Anchor-13" 0 0 basechar 0
AnchorPoint: "Anchor-12" 401 684 basechar 0
AnchorPoint: "Anchor-11" 0 0 basechar 0
AnchorPoint: "Anchor-10" 302 -222 basechar 0
LayerCount: 2
Back
Fore
SplineSet
402 653 m 0x7e
 195 653 124 422 124 260 c 0
 124 105 200 32 308 32 c 0
 381 32 425 58 469 91 c 1
 493 56 l 1
 448 20 392 -8 318 -10 c 1
 308 -67 l 1
 365 -71 391 -95 391 -136 c 0
 391 -188 345 -222 283 -222 c 0xbe
 248 -222 225 -213 208 -201 c 1x7e
 226 -172 l 1
 240 -180 258 -187 283 -187 c 0xbe
 319 -187 347 -172 348 -138 c 0
 349 -108 329 -95 266 -95 c 1
 284 -10 l 1
 160 0 75 93 75 261 c 0
 75 443 163 694 401 694 c 0
 476 694 523 671 565 632 c 1
 536 602 l 1
 495 638 459 653 402 653 c 0x7e
EndSplineSet
Substitution2: "'c2sc' Capitals to Small Capitals lookup 27 subtable" ccedilla.sc
Substitution2: "'aalt' Access All Alternates lookup 0 subtable" ccedilla.sc
Position2: "'cpsp' Capital Spacing lookup 0 subtable" dx=5 dy=0 dh=10 dv=0
EndChar
StartChar: Egrave
Encoding: 200 200 80
Width: 502
GlyphClass: 2
Flags: MW
HStem: 0 41<131 422> 336 41<178 419 173 424> 643 41<215 500 215 215>
VStem: 78 434
AnchorPoint: "Anchor-14" 0 0 basechar 0
AnchorPoint: "Anchor-13" 0 0 basechar 0
AnchorPoint: "Anchor-12" 368 880 basechar 0
AnchorPoint: "Anchor-11" 403 0 basechar 0
AnchorPoint: "Anchor-10" 247 0 basechar 0
LayerCount: 2
Back
Fore
SplineSet
295 880 m 1
 465 788 l 1
 448 759 l 1
 267 836 l 1
 295 880 l 1
512 684 m 1
 500 643 l 1
 215 643 l 1
 178 377 l 1
 424 377 l 1
 419 336 l 1
 173 336 l 1
 131 41 l 1
 428 41 l 1
 422 0 l 1
 78 0 l 1
 174 684 l 1
 512 684 l 1
EndSplineSet
Substitution2: "'c2sc' Capitals to Small Capitals lookup 27 subtable" egrave.sc
Substitution2: "'aalt' Access All Alternates lookup 0 subtable" egrave.sc
Position2: "'cpsp' Capital Spacing lookup 0 subtable" dx=5 dy=0 dh=10 dv=0
EndChar

StartChar: Ecircumflex
Encoding: 202 202 28
Width: 502
GlyphClass: 2
Flags: MW
HStem: 0 41<131 422> 336 41<178 419 173 424> 643 41<215 500 215 215>
VStem: 78 434
AnchorPoint: "Anchor-11" 247 0 basechar 0
AnchorPoint: "Anchor-10" 78 524 basechar 0
AnchorPoint: "Anchor-9" 347 684 basechar 0
AnchorPoint: "Anchor-8" 403 0 basechar 0
LayerCount: 2
Fore
SplineSet
376 843 m 1
 246 763 l 1
 226 788 l 1
 367 887 l 1
 394 887 l 1
 508 788 l 1
 485 763 l 1
 376 843 l 1
500 643 m 1
 215 643 l 1
 178 377 l 1
 424 377 l 1
 419 336 l 1
 173 336 l 1
 131 41 l 1
 428 41 l 1
 422 0 l 1
 78 0 l 1
 174 684 l 1
 512 684 l 1
 500 643 l 1
EndSplineSet
Substitution2: "'c2sc' Capitals to Small Capitals lookup 23 subtable" ecircumflex.sc
Substitution2: "'aalt' Access All Alternates lookup 0 subtable" ecircumflex.sc
Position2: "'cpsp' Capital Spacing lookup 0 subtable" dx=5 dy=0 dh=10 dv=0
EndChar
StartChar: Edieresis
Encoding: 203 203 77
Width: 502
GlyphClass: 2
Flags: MW
HStem: 0 41<131 422> 336 41<178 419 173 424> 643 41<215 500 215 215> 792 66<269 283.5 450.5 465>
VStem: 243 66 424 66
AnchorPoint: "Anchor-14" 0 0 basechar 0
AnchorPoint: "Anchor-13" 0 0 basechar 0
AnchorPoint: "Anchor-12" 369 858 basechar 0
AnchorPoint: "Anchor-11" 403 0 basechar 0
AnchorPoint: "Anchor-10" 247 0 basechar 0
LayerCount: 2
Back
Fore
SplineSet
278 858 m 0
 299 858 312 842 309 822 c 0
 306 805 293 792 274 792 c 0
 253 792 240 808 243 828 c 0
 245 845 260 858 278 858 c 0
460 858 m 0
 481 858 493 842 490 822 c 0
 488 805 474 792 456 792 c 0
 434 792 421 808 424 828 c 0
 426 845 441 858 460 858 c 0
512 684 m 1
 500 643 l 1
 215 643 l 1
 178 377 l 1
 424 377 l 1
 419 336 l 1
 173 336 l 1
 131 41 l 1
 428 41 l 1
 422 0 l 1
 78 0 l 1
 174 684 l 1
 512 684 l 1
EndSplineSet
Substitution2: "'c2sc' Capitals to Small Capitals lookup 27 subtable" edieresis.sc
Substitution2: "'aalt' Access All Alternates lookup 0 subtable" edieresis.sc
Position2: "'cpsp' Capital Spacing lookup 0 subtable" dx=5 dy=0 dh=10 dv=0
EndChar

StartChar: Igrave
Encoding: 204 204 50
Width: 277
GlyphClass: 2
Flags: MW
HStem: 0 21G<78 125 78 78> 664 20G<174 222 222 222>
VStem: 78 237
AnchorPoint: "Anchor-11" 0 0 basechar 0
AnchorPoint: "Anchor-10" 78 524 basechar 0
AnchorPoint: "Anchor-9" 197 684 basechar 0
AnchorPoint: "Anchor-8" 135 0 basechar 0
LayerCount: 2
Fore
SplineSet
315 788 m 1
 298 759 l 1
 117 836 l 1
 145 880 l 1
 315 788 l 1
125 0 m 1
 78 0 l 1
 174 684 l 1
 222 684 l 1
 125 0 l 1
EndSplineSet
Substitution2: "'c2sc' Capitals to Small Capitals lookup 23 subtable" igrave.sc
Substitution2: "'aalt' Access All Alternates lookup 0 subtable" igrave.sc
Position2: "'cpsp' Capital Spacing lookup 0 subtable" dx=5 dy=0 dh=10 dv=0
EndChar
StartChar: Iacute
Encoding: 205 205 117
Width: 276
GlyphClass: 2
Flags: MW
HStem: 0 21G<78 125 78 78> 664 20G<174 221 221 221>
VStem: 78 245
AnchorPoint: "Anchor-14" 0 0 basechar 0
AnchorPoint: "Anchor-13" 0 0 basechar 0
AnchorPoint: "Anchor-12" 219 880 basechar 0
AnchorPoint: "Anchor-11" 122 0 basechar 0
AnchorPoint: "Anchor-10" 101 0 basechar 0
LayerCount: 2
Back
Fore
SplineSet
307 880 m 1
 323 836 l 1
 120 759 l 1
 112 788 l 1
 307 880 l 1
221 684 m 1
 125 0 l 1
 78 0 l 1
 174 684 l 1
 221 684 l 1
EndSplineSet
Substitution2: "'c2sc' Capitals to Small Capitals lookup 27 subtable" iacute.sc
Substitution2: "'aalt' Access All Alternates lookup 0 subtable" iacute.sc
Position2: "'cpsp' Capital Spacing lookup 0 subtable" dx=5 dy=0 dh=10 dv=0
EndChar
StartChar: Icircumflex
Encoding: 206 206 120
Width: 276
GlyphClass: 2
Flags: MW
HStem: 0 21G<78 125 78 78> 664 20G<174 221 221 221>
VStem: 66 282<788 788>
AnchorPoint: "Anchor-14" 0 0 basechar 0
AnchorPoint: "Anchor-13" 299 744 basechar 0
AnchorPoint: "Anchor-12" 221 887 basechar 0
AnchorPoint: "Anchor-11" 122 0 basechar 0
AnchorPoint: "Anchor-10" 101 0 basechar 0
LayerCount: 2
Back
Fore
SplineSet
325 763 m 1
 216 843 l 1
 86 763 l 1
 66 788 l 1
 207 887 l 1
 234 887 l 1
 348 788 l 1
 325 763 l 1
221 684 m 1
 125 0 l 1
 78 0 l 1
 174 684 l 1
 221 684 l 1
EndSplineSet
Substitution2: "'c2sc' Capitals to Small Capitals lookup 27 subtable" icircumflex.sc
Substitution2: "'aalt' Access All Alternates lookup 0 subtable" icircumflex.sc
Position2: "'cpsp' Capital Spacing lookup 0 subtable" dx=5 dy=0 dh=10 dv=0
EndChar
StartChar: Ntilde
Encoding: 209 209 169
Width: 667
GlyphClass: 2
Flags: MW
HStem: 0 46<485 485 485 516 456 485> 640 44<205 205> 796 38<460 490.5 460 497> 840 38<353.5 368>
VStem: 78 534
AnchorPoint: "Anchor-14" 0 0 basechar 0
AnchorPoint: "Anchor-13" 0 0 basechar 0
AnchorPoint: "Anchor-12" 425 879 basechar 0
AnchorPoint: "Anchor-11" 0 0 basechar 0
AnchorPoint: "Anchor-10" 297 0 basechar 0
LayerCount: 2
Back
Fore
SplineSet
483 796 m 0
 425 796 403 841 368 840 c 0
 339 840 326 828 304 801 c 1
 277 819 l 1
 304 856 332 878 369 878 c 0xd8
 413 878 440 834 480 834 c 0
 501 834 519 847 543 879 c 1
 570 861 l 1
 541 814 511 796 483 796 c 0
612 684 m 1
 516 0 l 1
 456 0 l 1
 205 640 l 1
 204 585 197 526 180 405 c 2
 123 0 l 1
 78 0 l 1
 174 684 l 1
 235 684 l 1
 485 46 l 1
 488 101 494 164 506 254 c 2
 567 684 l 1
 612 684 l 1
EndSplineSet
Substitution2: "'c2sc' Capitals to Small Capitals lookup 27 subtable" ntilde.sc
Substitution2: "'aalt' Access All Alternates lookup 0 subtable" ntilde.sc
Position2: "'cpsp' Capital Spacing lookup 0 subtable" dx=5 dy=0 dh=10 dv=0
EndChar
StartChar: Oacute
Encoding: 211 211 172
Width: 689
GlyphClass: 2
Flags: MW
HStem: -11 42<253.5 419 253.5 432.5> 653 41<295.5 460>
VStem: 75 49<182 335.5 182 347> 588 49<351 503.5>
AnchorPoint: "Anchor-14" 0 0 basechar 0
AnchorPoint: "Anchor-13" 598 684 basechar 0
AnchorPoint: "Anchor-12" 426 880 basechar 0
AnchorPoint: "Anchor-11" 0 0 basechar 0
AnchorPoint: "Anchor-10" 307 0 basechar 0
LayerCount: 2
Back
Fore
SplineSet
514 880 m 1
 530 836 l 1
 327 759 l 1
 319 788 l 1
 514 880 l 1
404 694 m 0
 546 694 637 602 637 425 c 0
 637 247 556 -11 309 -11 c 0
 166 -11 75 85 75 261 c 0
 75 433 159 694 404 694 c 0
402 653 m 0
 189 653 124 412 124 259 c 0
 124 105 197 31 310 31 c 0
 528 31 588 275 588 427 c 0
 588 580 518 653 402 653 c 0
EndSplineSet
Substitution2: "'c2sc' Capitals to Small Capitals lookup 27 subtable" oacute.sc
Substitution2: "'locl' Localized Forms in Latin lookup 7 subtable" Oacute.loclPLK
AlternateSubs2: "'aalt' Access All Alternates lookup 1 subtable" Oacute.loclPLK oacute.sc
Position2: "'cpsp' Capital Spacing lookup 0 subtable" dx=5 dy=0 dh=10 dv=0
EndChar
StartChar: Otilde
Encoding: 213 213 207
Width: 689
GlyphClass: 2
Flags: MW
HStem: -11 42<253.5 419 253.5 432.5> 653 41<295.5 460> 796 38<463 493.5 463 500> 840 38<356.5 371>
VStem: 75 49<182 335.5 182 347> 588 49<351 503.5>
AnchorPoint: "Anchor-14" 0 0 basechar 0
AnchorPoint: "Anchor-13" 598 684 basechar 0
AnchorPoint: "Anchor-12" 428 879 basechar 0
AnchorPoint: "Anchor-11" 0 0 basechar 0
AnchorPoint: "Anchor-10" 307 0 basechar 0
LayerCount: 2
Back
Fore
SplineSet
486 796 m 0
 428 796 406 841 371 840 c 0
 342 840 329 828 307 801 c 1
 280 819 l 1
 307 856 335 878 372 878 c 0xdc
 416 878 443 834 483 834 c 0
 504 834 522 847 546 879 c 1
 573 861 l 1
 544 814 514 796 486 796 c 0
404 694 m 0
 546 694 637 602 637 425 c 0
 637 247 556 -11 309 -11 c 0
 166 -11 75 85 75 261 c 0
 75 433 159 694 404 694 c 0
402 653 m 0
 189 653 124 412 124 259 c 0
 124 105 197 31 310 31 c 0
 528 31 588 275 588 427 c 0
 588 580 518 653 402 653 c 0
EndSplineSet
Substitution2: "'c2sc' Capitals to Small Capitals lookup 27 subtable" otilde.sc
Substitution2: "'aalt' Access All Alternates lookup 0 subtable" otilde.sc
Position2: "'cpsp' Capital Spacing lookup 0 subtable" dx=5 dy=0 dh=10 dv=0
EndChar

StartChar: Odieresis
Encoding: 214 214 75
Width: 689
GlyphClass: 2
Flags: MW
HStem: -11 42<253.5 419 253.5 432.5> 653 41<295.5 460> 792 66<316 330.5 497.5 512>
VStem: 75 49<180.5 334 180.5 347> 290 66 471 66 588 49<352.5 505>
AnchorPoint: "Anchor-11" 0 0 basechar 0
AnchorPoint: "Anchor-10" 75 524 basechar 0
AnchorPoint: "Anchor-9" 407 778 basechar 0
AnchorPoint: "Anchor-8" 0 0 basechar 0
LayerCount: 2
Fore
SplineSet
325 858 m 0
 346 858 359 842 356 822 c 0
 353 805 340 792 321 792 c 0
 300 792 287 808 290 828 c 0
 292 845 307 858 325 858 c 0
507 858 m 0
 528 858 540 842 537 822 c 0
 535 805 521 792 503 792 c 0
 481 792 468 808 471 828 c 0
 473 845 488 858 507 858 c 0
404 694 m 0
 546 694 637 602 637 425 c 0
 637 247 556 -11 309 -11 c 0
 166 -11 75 85 75 261 c 0
 75 433 159 694 404 694 c 0
402 653 m 0
 189 653 124 412 124 256 c 0
 124 105 197 31 310 31 c 0
 528 31 588 275 588 430 c 0
 588 580 518 653 402 653 c 0
EndSplineSet
Substitution2: "'c2sc' Capitals to Small Capitals lookup 23 subtable" odieresis.sc
Substitution2: "'aalt' Access All Alternates lookup 0 subtable" odieresis.sc
Position2: "'cpsp' Capital Spacing lookup 0 subtable" dx=5 dy=0 dh=10 dv=0
EndChar
StartChar: multiply
Encoding: 215 215 2268
Width: 490
GlyphClass: 2
Flags: MW
HStem: 149 317<105 147 147 355>
VStem: 77 348<178 436>
LayerCount: 2
Back
Fore
SplineSet
398 466 m 1
 425 436 l 1
 280 307 l 1
 389 178 l 1
 355 149 l 1
 247 278 l 1
 105 149 l 1
 77 178 l 1
 222 307 l 1
 113 436 l 1
 147 466 l 1
 253 336 l 1
 398 466 l 1
EndSplineSet
Substitution2: "'onum' Oldstyle Figures lookup 26 subtable" multiply.osf
Substitution2: "'tnum' Tabular Numbers lookup 25 subtable" multiply.tf
AlternateSubs2: "'aalt' Access All Alternates lookup 1 subtable" multiply.tf multiply.osf
EndChar

StartChar: Oslash
Encoding: 216 216 79
Width: 689
GlyphClass: 2
Flags: MW
HStem: -11 42<297.5 419 297.5 432.5> 1 21G<227 227> 653 41<295.5 414> 663 20G<483 483>
VStem: 75 49<205 334 205 347> 588 49<352.5 482>
AnchorPoint: "Anchor-11" 0 0 basechar 0
AnchorPoint: "Anchor-10" 165 684 basechar 0
AnchorPoint: "Anchor-9" 399 695 basechar 0
AnchorPoint: "Anchor-8" 0 0 basechar 0
LayerCount: 2
Fore
SplineSet
519 668 m 1xac
 593 630 637 548 637 425 c 0
 637 247 556 -11 309 -11 c 0xac
 279 -11 252 -7 227 1 c 1
 176 -117 l 1
 136 -105 l 1
 191 17 l 1
 118 57 75 140 75 261 c 0
 75 433 159 694 404 694 c 0x6c
 432 694 459 690 483 683 c 1x9c
 535 807 l 1
 576 795 l 1
 519 668 l 1xac
124 256 m 0
 124 154 156 88 212 55 c 1
 469 644 l 1
 449 650 426 653 402 653 c 0
 189 653 124 412 124 256 c 0
310 31 m 0
 528 31 588 275 588 430 c 0
 588 534 556 600 498 631 c 1
 241 42 l 1
 262 35 285 31 310 31 c 0
EndSplineSet
Substitution2: "'c2sc' Capitals to Small Capitals lookup 23 subtable" oslash.sc
Substitution2: "'aalt' Access All Alternates lookup 0 subtable" oslash.sc
Position2: "'cpsp' Capital Spacing lookup 0 subtable" dx=5 dy=0 dh=10 dv=0
EndChar
StartChar: Uacute
Encoding: 218 218 254
Width: 647
GlyphClass: 2
Flags: MW
HStem: -11 43<229.5 350 229.5 361.5> 664 20G<164 211 211 211 554 601 601 601>
VStem: 94.75 47.24
AnchorPoint: "Anchor-14" 0 0 basechar 0
AnchorPoint: "Anchor-13" 611 684 basechar 0
AnchorPoint: "Anchor-12" 404 880 basechar 0
AnchorPoint: "Anchor-11" 374 0 basechar 0
AnchorPoint: "Anchor-10" 287 0 basechar 0
LayerCount: 2
Back
Fore
SplineSet
492 880 m 1
 508 836 l 1
 305 759 l 1
 297 788 l 1
 492 880 l 1
601 684 m 1
 535 210 l 2
 517 80 435 -11 288 -11 c 0
 136 -11 80 83 98 213 c 2
 164 684 l 1
 211 684 l 1
 145 214 l 2
 130 102 170 32 289 32 c 0
 411 32 473 107 488 217 c 2
 554 684 l 1
 601 684 l 1
EndSplineSet
Substitution2: "'c2sc' Capitals to Small Capitals lookup 27 subtable" uacute.sc
Substitution2: "'aalt' Access All Alternates lookup 0 subtable" uacute.sc
Position2: "'cpsp' Capital Spacing lookup 0 subtable" dx=5 dy=0 dh=10 dv=0
EndChar

StartChar: Ucircumflex
Encoding: 219 219 104
Width: 647
GlyphClass: 2
Flags: MW
HStem: -11 43<229.5 350 229.5 361.5> 664 20G<164 211 211 211 554 601 601 601>
VStem: 94.75 47.24
AnchorPoint: "Anchor-11" 0 0 basechar 0
AnchorPoint: "Anchor-10" 0 0 basechar 0
AnchorPoint: "Anchor-9" 385 684 basechar 0
AnchorPoint: "Anchor-8" 374 0 basechar 0
LayerCount: 2
Fore
SplineSet
414 843 m 1
 284 763 l 1
 264 788 l 1
 405 887 l 1
 432 887 l 1
 546 788 l 1
 523 763 l 1
 414 843 l 1
535 210 m 2
 517 80 435 -11 288 -11 c 0
 136 -11 80 83 98 213 c 2
 164 684 l 1
 211 684 l 1
 145 214 l 2
 130 102 170 32 289 32 c 0
 411 32 473 107 488 217 c 2
 554 684 l 1
 601 684 l 1
 535 210 l 2
EndSplineSet
Substitution2: "'c2sc' Capitals to Small Capitals lookup 23 subtable" ucircumflex.sc
Substitution2: "'aalt' Access All Alternates lookup 0 subtable" ucircumflex.sc
Position2: "'cpsp' Capital Spacing lookup 0 subtable" dx=5 dy=0 dh=10 dv=0
EndChar
StartChar: Udieresis
Encoding: 220 220 260
Width: 647
GlyphClass: 2
Flags: MW
HStem: -11 43<229.5 350 229.5 361.5> 664 20G<164 211 211 211 554 601 601 601> 792 66<305 319.5 486.5 501>
VStem: 94.75 47.24 279 66 460 66
AnchorPoint: "Anchor-14" 0 0 basechar 0
AnchorPoint: "Anchor-13" 611 684 basechar 0
AnchorPoint: "Anchor-12" 405 858 basechar 0
AnchorPoint: "Anchor-11" 374 0 basechar 0
AnchorPoint: "Anchor-10" 287 0 basechar 0
LayerCount: 2
Back
Fore
SplineSet
314 858 m 0
 335 858 348 842 345 822 c 0
 342 805 329 792 310 792 c 0
 289 792 276 808 279 828 c 0
 281 845 296 858 314 858 c 0
496 858 m 0
 517 858 529 842 526 822 c 0
 524 805 510 792 492 792 c 0
 470 792 457 808 460 828 c 0
 462 845 477 858 496 858 c 0
601 684 m 1
 535 210 l 2
 517 80 435 -11 288 -11 c 0
 136 -11 80 83 98 213 c 2
 164 684 l 1
 211 684 l 1
 145 214 l 2
 130 102 170 32 289 32 c 0
 411 32 473 107 488 217 c 2
 554 684 l 1
 601 684 l 1
EndSplineSet
Substitution2: "'c2sc' Capitals to Small Capitals lookup 27 subtable" udieresis.sc
Substitution2: "'aalt' Access All Alternates lookup 0 subtable" udieresis.sc
Position2: "'cpsp' Capital Spacing lookup 0 subtable" dx=5 dy=0 dh=10 dv=0
EndChar

StartChar: Thorn
Encoding: 222 222 84
Width: 565
GlyphClass: 2
Flags: MW
HStem: 0 21G<78 125 78 78> 140 40<150 249 145 253> 519 41<204 306 198 309> 519 165<198 221 174 306 198 198>
VStem: 483 49<334 435>
AnchorPoint: "Anchor-11" 0 0 basechar 0
AnchorPoint: "Anchor-10" 0 0 basechar 0
AnchorPoint: "Anchor-9" -199 -395 basechar 0
AnchorPoint: "Anchor-8" 0 0 basechar 0
LayerCount: 2
Fore
SplineSet
309 560 m 2xe8
 450 560 532 509 532 385 c 0
 532 271 470 140 249 140 c 2
 145 140 l 1
 125 0 l 1
 78 0 l 1
 174 684 l 1
 221 684 l 1xd8
 204 560 l 1
 309 560 l 2xe8
253 180 m 2
 430 180 483 284 483 384 c 0
 483 486 419 519 306 519 c 2
 198 519 l 1
 150 180 l 1
 253 180 l 2
EndSplineSet
Substitution2: "'c2sc' Capitals to Small Capitals lookup 23 subtable" thorn.sc
Substitution2: "'aalt' Access All Alternates lookup 0 subtable" thorn.sc
Position2: "'cpsp' Capital Spacing lookup 0 subtable" dx=5 dy=0 dh=10 dv=0
EndChar
StartChar: germandbls
Encoding: 223 223 629
Width: 577
GlyphClass: 2
Flags: MW
HStem: -200 21G<-38 -38> -11 40<308.5 378 308.5 394> 702 39<316.5 387>
VStem: 310 44<376.5 452.5 376.5 461.5> 455 45<566.5 649> 466 46<141 234.5>
LayerCount: 2
Back
Fore
SplineSet
354 414 m 0xf4
 354 339 512 321 512 167 c 0
 512 94 459 -11 329 -11 c 0
 284 -11 243 4 220 17 c 1
 238 50 l 1
 265 37 291 29 326 29 c 0
 430 29 466 116 466 166 c 0xf4
 466 303 310 315 310 410 c 0
 310 513 455 509 455 624 c 0
 455 674 417 702 357 702 c 0
 276 702 210 650 195 536 c 2
 121 13 l 2
 102 -124 56 -158 -38 -200 c 1
 -52 -165 l 1
 21 -130 59 -101 76 15 c 2
 150 542 l 2
 168 672 251 741 357 741 c 0
 445 741 500 693 500 625 c 0xf8
 500 498 354 491 354 414 c 0xf4
EndSplineSet
Substitution2: "'smcp' Lowercase to Small Capitals lookup 28 subtable" germandbls.sc
Substitution2: "'aalt' Access All Alternates lookup 0 subtable" germandbls.sc
EndChar

StartChar: agrave
Encoding: 224 224 139
Width: 556
GlyphClass: 2
Flags: MW
HStem: -11 40<192.5 259> 494 38<247 350.5>
VStem: 61 48<139.5 254 139.5 262.5> 388 42
AnchorPoint: "Anchor-11" 0 0 basechar 0
AnchorPoint: "Anchor-10" 0 0 basechar 0
AnchorPoint: "Anchor-9" 333 522 basechar 0
AnchorPoint: "Anchor-8" 458 -11 basechar 0
LayerCount: 2
Fore
SplineSet
461 675 m 1
 443 648 l 1
 266 732 l 1
 292 776 l 1
 461 675 l 1
326 532 m 0
 395 532 440 515 489 490 c 1
 432 112 l 1
 431 98 430 86 430 77 c 0
 430 43 442 32 463 23 c 1
 449 -11 l 1
 409 -1 384 20 388 86 c 1
 349 29 293 -11 225 -11 c 0
 121 -11 61 66 61 192 c 0
 61 333 132 532 326 532 c 0
327 494 m 0
 167 494 109 315 109 193 c 0
 109 86 154 29 231 29 c 0
 297 29 348 72 393 145 c 1
 441 468 l 1
 410 484 374 494 327 494 c 0
EndSplineSet
Substitution2: "'smcp' Lowercase to Small Capitals lookup 24 subtable" agrave.sc
Substitution2: "'aalt' Access All Alternates lookup 0 subtable" agrave.sc
EndChar
StartChar: atilde
Encoding: 227 227 366
Width: 556
GlyphClass: 2
Flags: MW
HStem: -11 40<191.5 258> 494 38<246 349.5> 670 38<401.5 431.5 401.5 436.5> 673 20G<218 218> 714 38<294.5 326.5> 715 20G<511 511>
VStem: 60 49<139.5 254 139.5 262.5> 387 42
AnchorPoint: "Anchor-14" 0 0 basechar 0
AnchorPoint: "Anchor-13" 0 0 basechar 0
AnchorPoint: "Anchor-12" 367 753 basechar 0
AnchorPoint: "Anchor-11" 457 -11 basechar 0
AnchorPoint: "Anchor-10" 269 0 basechar 0
LayerCount: 2
Back
Fore
SplineSet
421 670 m 0xe3
 368 670 345 714 308 714 c 0xdb
 281 714 267 702 245 675 c 1xd7
 218 693 l 1
 245 730 274 752 308 752 c 0xdb
 355 752 382 708 421 708 c 0
 442 708 460 721 484 753 c 1xe3
 511 735 l 1xd7
 482 688 452 670 421 670 c 0xe3
325 532 m 0xd7
 395 532 439 515 488 490 c 1
 432 112 l 2
 430 98 429 86 429 77 c 0
 429 43 441 32 462 23 c 1
 449 -11 l 1
 408 -1 383 20 387 86 c 1
 348 29 292 -11 224 -11 c 0
 121 -11 60 66 60 192 c 0
 60 333 131 532 325 532 c 0xd7
326 494 m 0
 166 494 109 315 109 193 c 0
 109 86 153 29 230 29 c 0
 297 29 347 72 392 145 c 1
 440 468 l 1
 409 484 373 494 326 494 c 0
EndSplineSet
Substitution2: "'smcp' Lowercase to Small Capitals lookup 28 subtable" atilde.sc
Substitution2: "'aalt' Access All Alternates lookup 0 subtable" atilde.sc
EndChar
StartChar: adieresis
Encoding: 228 228 351
Width: 556
GlyphClass: 2
Flags: MW
HStem: -11 40<191.5 258> 494 38<246 349.5> 666 66<265 279.5 446.5 461>
VStem: 60 49<139.5 254 139.5 262.5> 239 66 387 42 420 66
AnchorPoint: "Anchor-14" 0 0 basechar 0
AnchorPoint: "Anchor-13" 0 0 basechar 0
AnchorPoint: "Anchor-12" 365 732 basechar 0
AnchorPoint: "Anchor-11" 457 -11 basechar 0
AnchorPoint: "Anchor-10" 269 0 basechar 0
LayerCount: 2
Back
Fore
SplineSet
274 732 m 0xfc
 295 732 308 716 305 696 c 0
 302 679 289 666 270 666 c 0
 249 666 236 682 239 702 c 0
 241 719 256 732 274 732 c 0xfc
456 732 m 0xfa
 477 732 489 716 486 696 c 0
 484 679 470 666 452 666 c 0
 430 666 417 682 420 702 c 0
 422 719 437 732 456 732 c 0xfa
325 532 m 0
 395 532 439 515 488 490 c 1
 432 112 l 2
 430 98 429 86 429 77 c 0
 429 43 441 32 462 23 c 1
 449 -11 l 1
 408 -1 383 20 387 86 c 1xfc
 348 29 292 -11 224 -11 c 0
 121 -11 60 66 60 192 c 0
 60 333 131 532 325 532 c 0
326 494 m 0
 166 494 109 315 109 193 c 0
 109 86 153 29 230 29 c 0
 297 29 347 72 392 145 c 1
 440 468 l 1
 409 484 373 494 326 494 c 0
EndSplineSet
Substitution2: "'smcp' Lowercase to Small Capitals lookup 28 subtable" adieresis.sc
Substitution2: "'aalt' Access All Alternates lookup 0 subtable" adieresis.sc
EndChar

StartChar: aring
Encoding: 229 229 142
Width: 556
GlyphClass: 2
Flags: MW
HStem: -11 40<192.5 259> 494 38<247 350.5> 636 31<336 371 336 378> 785 30<352.5 387.5>
VStem: 61 48<139.5 254 139.5 262.5> 269 37 388 42 417 37
AnchorPoint: "Anchor-11" 0 0 basechar 0
AnchorPoint: "Anchor-10" 0 0 basechar 0
AnchorPoint: "Anchor-9" 333 522 basechar 0
AnchorPoint: "Anchor-8" 458 -11 basechar 0
LayerCount: 2
Fore
SplineSet
372 815 m 0xfd
 428 815 462 776 454 723 c 0
 447 671 405 636 351 636 c 0
 295 636 261 677 269 728 c 1
 276 780 318 815 372 815 c 0xfd
370 785 m 0
 335 785 311 762 306 723 c 0
 301 690 319 667 353 667 c 0
 389 667 411 690 417 728 c 0
 423 762 405 785 370 785 c 0
326 532 m 0
 395 532 440 515 489 490 c 1
 432 112 l 1
 431 98 430 86 430 77 c 0
 430 43 442 32 463 23 c 1
 449 -11 l 1
 409 -1 384 20 388 86 c 1xfe
 349 29 293 -11 225 -11 c 0
 121 -11 61 66 61 192 c 0
 61 333 132 532 326 532 c 0
327 494 m 0
 167 494 109 315 109 193 c 0
 109 86 154 29 231 29 c 0
 297 29 348 72 393 145 c 1
 441 468 l 1
 410 484 374 494 327 494 c 0
EndSplineSet
Substitution2: "'smcp' Lowercase to Small Capitals lookup 24 subtable" aring.sc
Substitution2: "'aalt' Access All Alternates lookup 0 subtable" aring.sc
EndChar
StartChar: ccedilla
Encoding: 231 231 383
Width: 464
GlyphClass: 2
Flags: MW
HStem: -222 35<208.5 239 208.5 252> -201 21G<146 146> -95 28<204 246> -10 40<256 256> -9 39<223 223> 493 39<240.5 343>
VStem: 62 47<140.5 256 140.5 266.5> 286 43
AnchorPoint: "Anchor-14" 0 0 basechar 0
AnchorPoint: "Anchor-13" 0 0 basechar 0
AnchorPoint: "Anchor-12" 323 522 basechar 0
AnchorPoint: "Anchor-11" 0 0 basechar 0
AnchorPoint: "Anchor-10" 240 -222 basechar 0
LayerCount: 2
Back
Fore
SplineSet
319 493 m 0x77
 162 493 109 315 109 197 c 0
 109 84 164 30 249 30 c 0
 300 30 341 48 380 76 c 1
 401 43 l 1
 359 11 311 -9 256 -10 c 1
 246 -67 l 1
 303 -71 329 -95 329 -136 c 0
 329 -188 283 -222 221 -222 c 0xb7
 186 -222 163 -213 146 -201 c 1x77
 164 -172 l 1
 178 -180 196 -187 221 -187 c 0
 257 -187 285 -172 286 -138 c 0
 287 -108 267 -95 204 -95 c 1
 223 -9 l 1xaf
 124 1 62 74 62 199 c 0
 62 334 130 532 319 532 c 0
 375 532 419 516 456 480 c 1
 430 451 l 1
 401 477 367 493 319 493 c 0x77
EndSplineSet
Substitution2: "'smcp' Lowercase to Small Capitals lookup 28 subtable" ccedilla.sc
Substitution2: "'aalt' Access All Alternates lookup 0 subtable" ccedilla.sc
EndChar

StartChar: ecircumflex
Encoding: 234 234 161
Width: 519
GlyphClass: 2
Flags: MW
HStem: -11 41<208.5 279.5 208.5 281.5> 209 37 493 39<254.5 358.5>
VStem: 62 47<139.5 199 199 209 139.5 271.5> 430 48<358.5 430.5>
AnchorPoint: "Anchor-11" 250 0 basechar 0
AnchorPoint: "Anchor-10" 0 0 basechar 0
AnchorPoint: "Anchor-9" 312 522 basechar 0
AnchorPoint: "Anchor-8" 346 5 basechar 0
LayerCount: 2
Fore
SplineSet
215 647 m 1
 194 672 l 1
 336 775 l 1
 363 775 l 1
 475 672 l 1
 453 647 l 1
 344 731 l 1
 215 647 l 1
478 409 m 0
 478 280 332 224 109 209 c 1
 109 199 l 2
 109 80 167 30 250 30 c 0
 309 30 351 49 400 84 c 1
 422 51 l 1
 369 12 315 -11 248 -11 c 0
 131 -11 62 64 62 198 c 0
 62 345 139 532 322 532 c 0
 420 532 478 480 478 409 c 0
321 493 m 0
 188 493 125 363 112 246 c 1
 321 261 430 310 430 407 c 0
 430 454 396 493 321 493 c 0
EndSplineSet
Substitution2: "'smcp' Lowercase to Small Capitals lookup 24 subtable" ecircumflex.sc
Substitution2: "'aalt' Access All Alternates lookup 0 subtable" ecircumflex.sc
EndChar

StartChar: edieresis
Encoding: 235 235 162
Width: 519
GlyphClass: 2
Flags: MW
HStem: -11 41<208.5 279.5 208.5 281.5> 209 37 493 39<254.5 358.5> 666 66<232 246.5 413.5 428>
VStem: 62 47<139.5 199 199 209 139.5 271.5> 206 66 387 66 430 48<358.5 430.5>
AnchorPoint: "Anchor-11" 250 0 basechar 0
AnchorPoint: "Anchor-10" 0 0 basechar 0
AnchorPoint: "Anchor-9" 323 652 basechar 0
AnchorPoint: "Anchor-8" 346 5 basechar 0
LayerCount: 2
Fore
SplineSet
237 666 m 0xbd
 216 666 203 682 206 702 c 0
 208 719 223 732 241 732 c 0
 262 732 275 716 272 696 c 0
 269 679 256 666 237 666 c 0xbd
419 666 m 0xbe
 397 666 384 682 387 702 c 0
 389 719 404 732 423 732 c 0
 444 732 456 716 453 696 c 0
 451 679 437 666 419 666 c 0xbe
478 409 m 0xfd
 478 280 332 224 109 209 c 1
 109 199 l 2
 109 80 167 30 250 30 c 0
 309 30 351 49 400 84 c 1
 422 51 l 1
 369 12 315 -11 248 -11 c 0
 131 -11 62 64 62 198 c 0
 62 345 139 532 322 532 c 0
 420 532 478 480 478 409 c 0xfd
321 493 m 0
 188 493 125 363 112 246 c 1
 321 261 430 310 430 407 c 0
 430 454 396 493 321 493 c 0
EndSplineSet
Substitution2: "'smcp' Lowercase to Small Capitals lookup 24 subtable" edieresis.sc
Substitution2: "'aalt' Access All Alternates lookup 0 subtable" edieresis.sc
EndChar
StartChar: igrave
Encoding: 236 236 488
Width: 265
GlyphClass: 2
Flags: MW
HStem: 0 21G<73 118 73 73> 502 20G<147 192 192 192>
VStem: 73 231
AnchorPoint: "Anchor-14" 0 0 basechar 0
AnchorPoint: "Anchor-13" 0 0 basechar 0
AnchorPoint: "Anchor-12" 208 776 basechar 0
AnchorPoint: "Anchor-11" 113 0 basechar 0
AnchorPoint: "Anchor-10" 95 0 basechar 0
LayerCount: 2
Back
Fore
SplineSet
135 776 m 1
 304 675 l 1
 286 648 l 1
 109 732 l 1
 135 776 l 1
192 522 m 1
 118 0 l 1
 73 0 l 1
 147 522 l 1
 192 522 l 1
EndSplineSet
Substitution2: "'smcp' Lowercase to Small Capitals lookup 28 subtable" igrave.sc
Substitution2: "'aalt' Access All Alternates lookup 0 subtable" igrave.sc
EndChar
StartChar: iacute
Encoding: 237 237 479
Width: 265
GlyphClass: 2
Flags: MW
HStem: 0 21G<73 118 73 73> 502 20G<147 192 192 192>
VStem: 73 229
AnchorPoint: "Anchor-14" 0 0 basechar 0
AnchorPoint: "Anchor-13" 0 0 basechar 0
AnchorPoint: "Anchor-12" 198 776 basechar 0
AnchorPoint: "Anchor-11" 113 0 basechar 0
AnchorPoint: "Anchor-10" 95 0 basechar 0
LayerCount: 2
Back
Fore
SplineSet
287 776 m 1
 302 732 l 1
 102 648 l 1
 90 676 l 1
 287 776 l 1
192 522 m 1
 118 0 l 1
 73 0 l 1
 147 522 l 1
 192 522 l 1
EndSplineSet
Substitution2: "'smcp' Lowercase to Small Capitals lookup 28 subtable" iacute.sc
Substitution2: "'aalt' Access All Alternates lookup 0 subtable" iacute.sc
EndChar

StartChar: icircumflex
Encoding: 238 238 180
Width: 265
GlyphClass: 2
Flags: MW
HStem: 0 21G<73 119 73 73> 502 20G<147 193 193 193>
VStem: 52 281<672 672>
AnchorPoint: "Anchor-11" 0 0 basechar 0
AnchorPoint: "Anchor-10" 0 0 basechar 0
AnchorPoint: "Anchor-9" 170 522 basechar 0
AnchorPoint: "Anchor-8" 128 0 basechar 0
LayerCount: 2
Fore
SplineSet
52 672 m 1
 194 775 l 1
 221 775 l 1
 333 672 l 1
 311 647 l 1
 202 731 l 1
 73 647 l 1
 52 672 l 1
119 0 m 1
 73 0 l 1
 147 522 l 1
 193 522 l 1
 119 0 l 1
EndSplineSet
Substitution2: "'smcp' Lowercase to Small Capitals lookup 24 subtable" icircumflex.sc
Substitution2: "'aalt' Access All Alternates lookup 0 subtable" icircumflex.sc
EndChar
StartChar: idieresis
Encoding: 239 239 484
Width: 265
GlyphClass: 2
Flags: MW
HStem: 0 21G<73 118 73 73> 502 20G<147 192 192 192> 666 66<97 111.5 278.5 293>
VStem: 71 66 252 66
AnchorPoint: "Anchor-14" 0 0 basechar 0
AnchorPoint: "Anchor-13" 0 0 basechar 0
AnchorPoint: "Anchor-12" 197 732 basechar 0
AnchorPoint: "Anchor-11" 113 0 basechar 0
AnchorPoint: "Anchor-10" 95 0 basechar 0
LayerCount: 2
Back
Fore
SplineSet
106 732 m 0
 127 732 140 716 137 696 c 0
 134 679 121 666 102 666 c 0
 81 666 68 682 71 702 c 0
 73 719 88 732 106 732 c 0
288 732 m 0
 309 732 321 716 318 696 c 0
 316 679 302 666 284 666 c 0
 262 666 249 682 252 702 c 0
 254 719 269 732 288 732 c 0
192 522 m 1
 118 0 l 1
 73 0 l 1
 147 522 l 1
 192 522 l 1
EndSplineSet
Substitution2: "'smcp' Lowercase to Small Capitals lookup 28 subtable" idieresis.sc
Substitution2: "'aalt' Access All Alternates lookup 0 subtable" idieresis.sc
EndChar
StartChar: eth
Encoding: 240 240 391
Width: 557
GlyphClass: 2
Flags: MW
HStem: -11 40<193.5 286 193.5 296.5> 427 39<220.5 320 202 321.5> 552 20G<221 221> 664 20G<344 344> 722 20G<209 209>
VStem: 59 47<131.5 236.5 131.5 244.5> 444 45
AnchorPoint: "Anchor-14" 0 0 basechar 0
AnchorPoint: "Anchor-13" 0 0 basechar 0
AnchorPoint: "Anchor-12" 343 735 basechar 0
AnchorPoint: "Anchor-11" 0 0 basechar 0
AnchorPoint: "Anchor-10" 236 0 basechar 0
LayerCount: 2
Back
Fore
SplineSet
373 662 m 1
 447 599 489 515 489 387 c 0
 489 355 486 320 481 282 c 0
 453 86 358 -11 235 -11 c 0
 123 -11 59 62 59 180 c 0
 59 309 119 466 285 466 c 0
 355 466 407 434 444 383 c 1
 443 499 413 571 343 636 c 1
 253 557 l 1
 221 572 l 1
 314 657 l 1
 282 677 239 696 197 704 c 1
 209 742 l 1
 257 732 303 713 344 684 c 1
 424 757 l 1
 450 732 l 1
 373 662 l 1
235 29 m 0
 337 29 411 117 435 288 c 0
 438 307 439 324 440 336 c 1
 403 393 353 427 290 427 c 0
 151 427 106 293 106 180 c 0
 106 83 152 29 235 29 c 0
EndSplineSet
Substitution2: "'smcp' Lowercase to Small Capitals lookup 28 subtable" eth.sc
Substitution2: "'aalt' Access All Alternates lookup 0 subtable" eth.sc
EndChar
StartChar: ntilde
Encoding: 241 241 550
Width: 581
GlyphClass: 2
Flags: MW
HStem: 0 21G<73 118 73 73 394 440 394 394> 493 39<334 397> 502 20G<147 185 185 185> 670 38<392.5 422.5 392.5 427.5> 673 20G<209 209> 714 38<285.5 317.5> 715 20G<502 502>
VStem: 448.54 46.34
AnchorPoint: "Anchor-14" 0 0 basechar 0
AnchorPoint: "Anchor-13" 0 0 basechar 0
AnchorPoint: "Anchor-12" 358 753 basechar 0
AnchorPoint: "Anchor-11" 0 0 basechar 0
AnchorPoint: "Anchor-10" 257 0 basechar 0
LayerCount: 2
Back
Fore
SplineSet
412 670 m 0xd1
 359 670 336 714 299 714 c 0xcd
 272 714 258 702 236 675 c 1xcb
 209 693 l 1
 236 730 265 752 299 752 c 0xcd
 346 752 373 708 412 708 c 0
 433 708 451 721 475 753 c 1xd1
 502 735 l 1xcb
 473 688 443 670 412 670 c 0xd1
374 532 m 0xcb
 463 532 507 472 492 369 c 2
 440 0 l 1
 394 0 l 1
 446 367 l 2
 458 455 428 493 366 493 c 0xcb
 285 493 217 415 162 312 c 1
 118 0 l 1
 73 0 l 1
 147 522 l 1
 185 522 l 1xab
 170 382 l 1
 223 476 294 532 374 532 c 0xcb
EndSplineSet
Substitution2: "'smcp' Lowercase to Small Capitals lookup 28 subtable" ntilde.sc
Substitution2: "'aalt' Access All Alternates lookup 0 subtable" ntilde.sc
EndChar

StartChar: otilde
Encoding: 245 245 218
Width: 565
GlyphClass: 2
Flags: MW
HStem: -11 40<203 327 203 344.5> 493 39<237.5 362.5> 670 38<382 413 382 419> 673 20G<199 199> 714 38<275.5 290> 715 20G<493 493>
VStem: 62 47<141.5 252 141.5 265.5> 456 48<269 381.5>
AnchorPoint: "Anchor-11" 0 0 basechar 0
AnchorPoint: "Anchor-10" 0 0 basechar 0
AnchorPoint: "Anchor-9" 320 522 basechar 0
AnchorPoint: "Anchor-8" 0 0 basechar 0
LayerCount: 2
Fore
SplineSet
405 670 m 0xe3
 348 670 326 715 290 714 c 0xdb
 261 714 249 702 226 675 c 1xd7
 199 693 l 1
 226 730 254 752 291 752 c 0xdb
 335 752 362 708 402 708 c 0
 424 708 442 721 466 753 c 1xe3
 493 735 l 1xd7
 463 688 433 670 405 670 c 0xe3
319 532 m 0xd7
 436 532 504 458 504 325 c 0
 504 195 442 -11 247 -11 c 0
 129 -11 62 68 62 199 c 0
 62 332 126 532 319 532 c 0xd7
318 493 m 0
 157 493 109 308 109 196 c 0
 109 87 159 29 247 29 c 0
 407 29 456 211 456 327 c 0
 456 436 407 493 318 493 c 0
EndSplineSet
Substitution2: "'smcp' Lowercase to Small Capitals lookup 24 subtable" otilde.sc
Substitution2: "'aalt' Access All Alternates lookup 0 subtable" otilde.sc
EndChar
StartChar: odieresis
Encoding: 246 246 563
Width: 565
GlyphClass: 2
Flags: MW
HStem: -11 40<203 327 203 344.5> 493 39<237.5 362.5> 666 66<247 261.5 428.5 443>
VStem: 62 47<141.5 252 141.5 265.5> 221 66 402 66 456 48<269 381.5>
AnchorPoint: "Anchor-14" 0 0 basechar 0
AnchorPoint: "Anchor-13" 497 522 basechar 0
AnchorPoint: "Anchor-12" 347 732 basechar 0
AnchorPoint: "Anchor-11" 0 0 basechar 0
AnchorPoint: "Anchor-10" 247 0 basechar 0
LayerCount: 2
Back
Fore
SplineSet
256 732 m 0xfa
 277 732 290 716 287 696 c 0
 284 679 271 666 252 666 c 0
 231 666 218 682 221 702 c 0
 223 719 238 732 256 732 c 0xfa
438 732 m 0xfc
 459 732 471 716 468 696 c 0
 466 679 452 666 434 666 c 0
 412 666 399 682 402 702 c 0
 404 719 419 732 438 732 c 0xfc
319 532 m 0xfa
 436 532 504 458 504 325 c 0
 504 195 442 -11 247 -11 c 0
 129 -11 62 68 62 199 c 0
 62 332 126 532 319 532 c 0xfa
318 493 m 0
 157 493 109 308 109 196 c 0
 109 87 159 29 247 29 c 0
 407 29 456 211 456 327 c 0
 456 436 407 493 318 493 c 0
EndSplineSet
Substitution2: "'smcp' Lowercase to Small Capitals lookup 28 subtable" odieresis.sc
Substitution2: "'aalt' Access All Alternates lookup 0 subtable" odieresis.sc
EndChar

StartChar: oslash
Encoding: 248 248 216
Width: 565
GlyphClass: 2
Flags: MW
HStem: -11 40<237.5 327 237.5 344.5> 0 21G<181 181> 493 39<237.5 328> 502 20G<386 386>
VStem: 62 47<161 252 161 265.5> 456 48<269 362>
AnchorPoint: "Anchor-11" 0 0 basechar 0
AnchorPoint: "Anchor-10" 0 0 basechar 0
AnchorPoint: "Anchor-9" 320 522 basechar 0
AnchorPoint: "Anchor-8" 0 0 basechar 0
LayerCount: 2
Fore
SplineSet
482 634 m 1xac
 422 506 l 1
 475 474 504 412 504 325 c 0
 504 195 442 -11 247 -11 c 0xac
 222 -11 200 -7 181 0 c 1
 122 -123 l 1
 84 -112 l 1
 145 16 l 1
 91 49 62 112 62 199 c 0
 62 332 126 532 319 532 c 0x6c
 344 532 366 529 386 522 c 1x9c
 443 646 l 1
 482 634 l 1xac
318 493 m 0
 157 493 109 308 109 196 c 0
 109 126 130 77 167 52 c 1
 372 485 l 1
 356 490 338 493 318 493 c 0
196 38 m 1
 211 32 228 29 247 29 c 0
 407 29 456 211 456 327 c 0
 456 397 437 444 400 470 c 1
 196 38 l 1
EndSplineSet
Substitution2: "'smcp' Lowercase to Small Capitals lookup 24 subtable" oslash.sc
Substitution2: "'aalt' Access All Alternates lookup 0 subtable" oslash.sc
EndChar
StartChar: ugrave
Encoding: 249 249 670
Width: 577
GlyphClass: 2
Flags: MW
HStem: -11 40<185.5 253.5> 0 21G<393 430 393 393> 502 20G<142 187 187 187 458 504 504 504>
VStem: 86.52 45.97
AnchorPoint: "Anchor-14" 0 0 basechar 0
AnchorPoint: "Anchor-13" 514 522 basechar 0
AnchorPoint: "Anchor-12" 362 776 basechar 0
AnchorPoint: "Anchor-11" 440 0 basechar 0
AnchorPoint: "Anchor-10" 251 0 basechar 0
LayerCount: 2
Back
Fore
SplineSet
289 776 m 1xb0
 458 675 l 1
 440 648 l 1
 263 732 l 1
 289 776 l 1xb0
504 522 m 1
 430 0 l 1
 393 0 l 1x70
 410 146 l 1
 365 56 297 -11 210 -11 c 0
 121 -11 75 48 89 151 c 2
 142 522 l 1
 187 522 l 1
 135 152 l 2
 123 65 154 29 217 29 c 0
 300 29 366 108 415 209 c 1
 458 522 l 1
 504 522 l 1
EndSplineSet
Substitution2: "'smcp' Lowercase to Small Capitals lookup 28 subtable" ugrave.sc
Substitution2: "'aalt' Access All Alternates lookup 0 subtable" ugrave.sc
EndChar

StartChar: udieresis
Encoding: 252 252 243
Width: 577
GlyphClass: 2
Flags: MW
HStem: -11 40<185.5 253.5> 0 21G<393 430 393 393> 502 20G<142 187 187 187 458 504 504 504> 666 66<244 258.5 425.5 440>
VStem: 86.52 45.97 218 66 399 66
AnchorPoint: "Anchor-11" 0 0 basechar 0
AnchorPoint: "Anchor-10" 0 0 basechar 0
AnchorPoint: "Anchor-9" 335 652 basechar 0
AnchorPoint: "Anchor-8" 440 0 basechar 0
LayerCount: 2
Fore
SplineSet
253 732 m 0xbe
 274 732 287 716 284 696 c 0
 281 679 268 666 249 666 c 0
 228 666 215 682 218 702 c 0
 220 719 235 732 253 732 c 0xbe
435 732 m 0
 456 732 468 716 465 696 c 0
 463 679 449 666 431 666 c 0
 409 666 396 682 399 702 c 0
 401 719 416 732 435 732 c 0
430 0 m 1x7e
 393 0 l 1x7e
 410 146 l 1
 365 56 297 -11 210 -11 c 0
 121 -11 75 48 89 151 c 2
 142 522 l 1
 187 522 l 1
 135 152 l 2
 123 65 154 29 217 29 c 0xbe
 300 29 366 108 415 209 c 1
 458 522 l 1
 504 522 l 1
 430 0 l 1x7e
EndSplineSet
Substitution2: "'smcp' Lowercase to Small Capitals lookup 24 subtable" udieresis.sc
Substitution2: "'aalt' Access All Alternates lookup 0 subtable" udieresis.sc
EndChar
StartChar: yacute
Encoding: 253 253 700
Width: 458
GlyphClass: 2
Flags: MW
HStem: -201 21G<-5 -5> 0 21G<163 163> 502 20G<54 103 103 103 428 478 478 478>
VStem: -8 486
AnchorPoint: "Anchor-14" 0 0 basechar 0
AnchorPoint: "Anchor-13" 0 0 basechar 0
AnchorPoint: "Anchor-12" 289 776 basechar 0
AnchorPoint: "Anchor-11" 0 0 basechar 0
AnchorPoint: "Anchor-10" 165 -195 basechar 0
LayerCount: 2
Back
Fore
SplineSet
378 776 m 1
 393 732 l 1
 193 648 l 1
 181 676 l 1
 378 776 l 1
478 522 m 1
 226 -4 l 2
 172 -118 119 -173 -5 -201 c 1
 -8 -164 l 1
 101 -136 132 -94 182 1 c 1
 163 0 l 1
 54 522 l 1
 103 522 l 1
 198 34 l 1
 428 522 l 1
 478 522 l 1
EndSplineSet
Substitution2: "'smcp' Lowercase to Small Capitals lookup 28 subtable" yacute.sc
Substitution2: "'aalt' Access All Alternates lookup 0 subtable" yacute.sc
EndChar

StartChar: ydieresis
Encoding: 255 255 260
Width: 458
GlyphClass: 2
Flags: MW
HStem: -201 21G<-5 -5> 1 21G<180 180> 502 20G<54 103 103 103 428 478 478 478> 666 66<180 194.5 361.5 376>
VStem: 154 66 335 66
AnchorPoint: "Anchor-11" 0 0 basechar 0
AnchorPoint: "Anchor-10" 0 0 basechar 0
AnchorPoint: "Anchor-9" 271 652 basechar 0
AnchorPoint: "Anchor-8" 0 0 basechar 0
LayerCount: 2
Fore
SplineSet
189 732 m 0
 210 732 223 716 220 696 c 0
 217 679 204 666 185 666 c 0
 164 666 151 682 154 702 c 0
 156 719 171 732 189 732 c 0
371 732 m 0
 392 732 404 716 401 696 c 0
 399 679 385 666 367 666 c 0
 345 666 332 682 335 702 c 0
 337 719 352 732 371 732 c 0
226 -4 m 2
 172 -118 119 -173 -5 -201 c 1
 -8 -165 l 1
 101 -137 132 -94 180 1 c 1
 163 0 l 1
 54 522 l 1
 103 522 l 1
 198 34 l 1
 428 522 l 1
 478 522 l 1
 226 -4 l 2
EndSplineSet
Substitution2: "'smcp' Lowercase to Small Capitals lookup 24 subtable" ydieresis.sc
Substitution2: "'aalt' Access All Alternates lookup 0 subtable" ydieresis.sc
EndChar
StartChar: Amacron
Encoding: 256 256 27
Width: 560
GlyphClass: 2
Flags: MW
HStem: 0 21G<-17 32 -17 -17 454 503 454 454> 192 42<141 411 141 419 122 411> 645 39<334 334> 805 39<248 471 242 477>
VStem: -17 520<0 0>
AnchorPoint: "Anchor-14" 0 0 basechar 0
AnchorPoint: "Anchor-13" 0 0 basechar 0
AnchorPoint: "Anchor-12" 361 844 basechar 0
AnchorPoint: "Anchor-11" 503 0 basechar 0
AnchorPoint: "Anchor-10" 243 0 basechar 0
LayerCount: 2
Back
Fore
SplineSet
477 844 m 1
 471 805 l 1
 242 805 l 1
 248 844 l 1
 477 844 l 1
454 0 m 1
 419 192 l 1
 122 192 l 1
 32 0 l 1
 -17 0 l 1
 310 684 l 1
 369 684 l 1
 503 0 l 1
 454 0 l 1
141 234 m 1
 411 234 l 1
 334 645 l 1
 141 234 l 1
EndSplineSet
Substitution2: "'c2sc' Capitals to Small Capitals lookup 27 subtable" amacron.sc
Substitution2: "'aalt' Access All Alternates lookup 0 subtable" amacron.sc
Position2: "'cpsp' Capital Spacing lookup 0 subtable" dx=5 dy=0 dh=10 dv=0
EndChar
StartChar: Abreve
Encoding: 258 258 4
Width: 560
GlyphClass: 2
Flags: MW
HStem: 0 21G<-17 32 -17 -17 454 503 454 454> 192 42<141 411 141 419 122 411> 645 39<334 334> 767 39<327 374 327 381.5>
VStem: -17 520<0 0>
AnchorPoint: "Anchor-14" 0 0 basechar 0
AnchorPoint: "Anchor-13" 0 0 basechar 0
AnchorPoint: "Anchor-12" 362 868 basechar 0
AnchorPoint: "Anchor-11" 503 0 basechar 0
AnchorPoint: "Anchor-10" 243 0 basechar 0
LayerCount: 2
Back
Fore
SplineSet
350 767 m 0
 283 767 239 809 238 861 c 1
 269 865 l 1
 277 830 304 806 350 806 c 0
 398 806 433 832 451 868 c 1
 483 858 l 1
 467 806 413 767 350 767 c 0
454 0 m 1
 419 192 l 1
 122 192 l 1
 32 0 l 1
 -17 0 l 1
 310 684 l 1
 369 684 l 1
 503 0 l 1
 454 0 l 1
141 234 m 1
 411 234 l 1
 334 645 l 1
 141 234 l 1
EndSplineSet
Substitution2: "'c2sc' Capitals to Small Capitals lookup 27 subtable" abreve.sc
Substitution2: "'aalt' Access All Alternates lookup 0 subtable" abreve.sc
Position2: "'cpsp' Capital Spacing lookup 0 subtable" dx=5 dy=0 dh=10 dv=0
EndChar

StartChar: abreve
Encoding: 259 259 136
Width: 556
GlyphClass: 2
Flags: MW
HStem: -11 40<192.5 259> 494 38<247 350.5> 656 40<331 378 331 385.5>
VStem: 61 48<139.5 254 139.5 262.5> 244 33<729.5 765> 388 42
AnchorPoint: "Anchor-11" 0 0 basechar 0
AnchorPoint: "Anchor-10" 0 0 basechar 0
AnchorPoint: "Anchor-9" 333 522 basechar 0
AnchorPoint: "Anchor-8" 458 -11 basechar 0
LayerCount: 2
Fore
SplineSet
354 656 m 0
 287 656 244 699 244 760 c 1
 277 765 l 1
 283 719 308 696 354 696 c 0
 402 696 439 722 458 767 c 1
 489 757 l 1
 472 696 417 656 354 656 c 0
326 532 m 0
 395 532 440 515 489 490 c 1
 432 112 l 1
 431 98 430 86 430 77 c 0
 430 43 442 32 463 23 c 1
 449 -11 l 1
 409 -1 384 20 388 86 c 1
 349 29 293 -11 225 -11 c 0
 121 -11 61 66 61 192 c 0
 61 333 132 532 326 532 c 0
327 494 m 0
 167 494 109 315 109 193 c 0
 109 86 154 29 231 29 c 0
 297 29 348 72 393 145 c 1
 441 468 l 1
 410 484 374 494 327 494 c 0
EndSplineSet
Substitution2: "'smcp' Lowercase to Small Capitals lookup 24 subtable" abreve.sc
Substitution2: "'aalt' Access All Alternates lookup 0 subtable" abreve.sc
EndChar
StartChar: Aogonek
Encoding: 260 260 28
Width: 560
GlyphClass: 2
Flags: MW
HStem: -212 40<391.5 416> 0 21G<-17 32 -17 -17 494 503 494 494> 192 42<141 411 141 419 122 411> 645 39<334 334>
VStem: 309 45<-138.5 -103.5>
AnchorPoint: "Anchor-14" 0 0 basechar 0
AnchorPoint: "Anchor-13" 0 0 basechar 0
AnchorPoint: "Anchor-12" 340 684 basechar 0
AnchorPoint: "Anchor-11" 503 0 basechar 0
AnchorPoint: "Anchor-10" 243 0 basechar 0
LayerCount: 2
Back
Fore
SplineSet
494 0 m 1
 401 -40 354 -73 354 -124 c 0
 354 -153 371 -172 412 -172 c 0
 432 -172 447 -170 470 -166 c 1
 461 -206 l 1
 441 -210 426 -212 406 -212 c 0
 340 -212 309 -179 309 -136 c 0
 309 -71 352 -29 453 10 c 1
 419 192 l 1
 122 192 l 1
 32 0 l 1
 -17 0 l 1
 310 684 l 1
 369 684 l 1
 503 0 l 1
 494 0 l 1
141 234 m 1
 411 234 l 1
 334 645 l 1
 141 234 l 1
EndSplineSet
Substitution2: "'c2sc' Capitals to Small Capitals lookup 27 subtable" aogonek.sc
Substitution2: "'aalt' Access All Alternates lookup 0 subtable" aogonek.sc
Position2: "'cpsp' Capital Spacing lookup 0 subtable" dx=5 dy=0 dh=10 dv=0
EndChar

StartChar: aogonek
Encoding: 261 261 141
Width: 556
GlyphClass: 2
Flags: MW
HStem: -223 40<346.5 371> -11 40<192.5 259> 494 38<247 350.5>
VStem: 61 48<139.5 254 139.5 262.5> 264 45<-149.5 -114> 388 42
AnchorPoint: "Anchor-11" 0 0 basechar 0
AnchorPoint: "Anchor-10" 0 0 basechar 0
AnchorPoint: "Anchor-9" 333 522 basechar 0
AnchorPoint: "Anchor-8" 458 -11 basechar 0
LayerCount: 2
Fore
SplineSet
430 77 m 0
 430 43 442 32 463 23 c 1
 449 -11 l 1
 356 -51 309 -84 309 -135 c 0
 309 -164 326 -183 367 -183 c 0
 387 -183 402 -181 425 -177 c 1
 416 -217 l 1
 396 -221 381 -223 361 -223 c 0
 295 -223 264 -190 264 -147 c 0
 264 -81 310 -38 416 3 c 1
 396 17 385 41 388 86 c 1
 349 29 293 -11 225 -11 c 0
 121 -11 61 66 61 192 c 0
 61 333 132 532 326 532 c 0
 395 532 440 515 489 490 c 1
 432 112 l 1
 431 98 430 86 430 77 c 0
441 468 m 1
 410 484 374 494 327 494 c 0
 167 494 109 315 109 193 c 0
 109 86 154 29 231 29 c 0
 297 29 348 72 393 145 c 1
 441 468 l 1
EndSplineSet
Substitution2: "'smcp' Lowercase to Small Capitals lookup 24 subtable" aogonek.sc
Substitution2: "'aalt' Access All Alternates lookup 0 subtable" aogonek.sc
EndChar

StartChar: cacute
Encoding: 263 263 148
Width: 464
GlyphClass: 2
Flags: MW
HStem: -11 41<208 275.5 208 278> 493 39<242 344.5>
VStem: 62 48<141 256 141 266.5>
AnchorPoint: "Anchor-11" 245 0 basechar 0
AnchorPoint: "Anchor-10" 0 0 basechar 0
AnchorPoint: "Anchor-9" 324 522 basechar 0
AnchorPoint: "Anchor-8" 0 0 basechar 0
LayerCount: 2
Fore
SplineSet
445 732 m 1
 245 648 l 1
 233 676 l 1
 430 776 l 1
 445 732 l 1
320 532 m 0
 376 532 420 516 457 480 c 1
 430 451 l 1
 401 479 368 493 321 493 c 0
 163 493 110 315 110 197 c 0
 110 85 166 30 250 30 c 0
 301 30 342 48 381 76 c 1
 402 43 l 1
 358 9 306 -11 250 -11 c 0
 133 -11 62 64 62 199 c 0
 62 334 131 532 320 532 c 0
EndSplineSet
Substitution2: "'smcp' Lowercase to Small Capitals lookup 24 subtable" cacute.sc
Substitution2: "'locl' Localized Forms in Latin lookup 7 subtable" cacute.loclPLK
AlternateSubs2: "'aalt' Access All Alternates lookup 1 subtable" cacute.loclPLK cacute.sc
EndChar

StartChar: ccircumflex
Encoding: 265 265 151
Width: 464
GlyphClass: 2
Flags: MW
HStem: -11 41<208 275.5 208 278> 493 39<242 344.5>
VStem: 62 48<141 256 141 266.5>
AnchorPoint: "Anchor-11" 245 0 basechar 0
AnchorPoint: "Anchor-10" 0 0 basechar 0
AnchorPoint: "Anchor-9" 324 522 basechar 0
AnchorPoint: "Anchor-8" 0 0 basechar 0
LayerCount: 2
Fore
SplineSet
206 672 m 1
 348 775 l 1
 375 775 l 1
 487 672 l 1
 465 647 l 1
 356 731 l 1
 227 647 l 1
 206 672 l 1
320 532 m 0
 376 532 420 516 457 480 c 1
 430 451 l 1
 401 479 368 493 321 493 c 0
 163 493 110 315 110 197 c 0
 110 85 166 30 250 30 c 0
 301 30 342 48 381 76 c 1
 402 43 l 1
 358 9 306 -11 250 -11 c 0
 133 -11 62 64 62 199 c 0
 62 334 131 532 320 532 c 0
EndSplineSet
Substitution2: "'smcp' Lowercase to Small Capitals lookup 24 subtable" ccircumflex.sc
Substitution2: "'aalt' Access All Alternates lookup 0 subtable" ccircumflex.sc
EndChar

StartChar: Cdotaccent
Encoding: 266 266 19
Width: 545
GlyphClass: 2
Flags: MW
HStem: -11 43<254.5 344.5 254.5 345.5> 653 41<299.5 431.5> 800 70<414 430.5>
VStem: 75 49<182.5 341 182.5 352> 387 70
AnchorPoint: "Anchor-11" 304 0 basechar 0
AnchorPoint: "Anchor-10" 0 0 basechar 0
AnchorPoint: "Anchor-9" 401 684 basechar 0
AnchorPoint: "Anchor-8" 0 0 basechar 0
LayerCount: 2
Fore
SplineSet
424 870 m 0
 448 870 460 853 457 832 c 0
 454 814 441 800 420 800 c 0
 397 800 384 817 387 838 c 0
 390 856 404 870 424 870 c 0
401 694 m 0
 476 694 523 671 565 632 c 1
 536 601 l 1
 495 638 459 653 404 653 c 0
 195 653 124 422 124 260 c 0
 124 105 201 32 308 32 c 0
 381 32 425 58 469 91 c 1
 493 56 l 1
 445 18 386 -11 305 -11 c 0
 169 -11 75 84 75 261 c 0
 75 443 163 694 401 694 c 0
EndSplineSet
Substitution2: "'c2sc' Capitals to Small Capitals lookup 23 subtable" cdotaccent.sc
Substitution2: "'aalt' Access All Alternates lookup 0 subtable" cdotaccent.sc
Position2: "'cpsp' Capital Spacing lookup 0 subtable" dx=5 dy=0 dh=10 dv=0
EndChar

StartChar: cdotaccent
Encoding: 267 267 152
Width: 464
GlyphClass: 2
Flags: MW
HStem: -11 41<208 275.5 208 278> 493 39<242 344.5> 674 70<341 357.5>
VStem: 62 48<141 256 141 266.5> 314 70
AnchorPoint: "Anchor-11" 245 0 basechar 0
AnchorPoint: "Anchor-10" 0 0 basechar 0
AnchorPoint: "Anchor-9" 324 522 basechar 0
AnchorPoint: "Anchor-8" 0 0 basechar 0
LayerCount: 2
Fore
SplineSet
351 744 m 0
 375 744 387 727 384 706 c 0
 381 688 368 674 347 674 c 0
 324 674 311 691 314 712 c 0
 317 730 331 744 351 744 c 0
320 532 m 0
 376 532 420 516 457 480 c 1
 430 451 l 1
 401 479 368 493 321 493 c 0
 163 493 110 315 110 197 c 0
 110 85 166 30 250 30 c 0
 301 30 342 48 381 76 c 1
 402 43 l 1
 358 9 306 -11 250 -11 c 0
 133 -11 62 64 62 199 c 0
 62 334 131 532 320 532 c 0
EndSplineSet
Substitution2: "'smcp' Lowercase to Small Capitals lookup 24 subtable" cdotaccent.sc
Substitution2: "'aalt' Access All Alternates lookup 0 subtable" cdotaccent.sc
EndChar
StartChar: Ccaron
Encoding: 268 268 44
Width: 545
GlyphClass: 2
Flags: MW
HStem: -11 43<254 344.5 254 345.5> 653 41<298.5 430.5>
VStem: 75 49<182.5 341 182.5 352>
AnchorPoint: "Anchor-14" 0 0 basechar 0
AnchorPoint: "Anchor-13" 0 0 basechar 0
AnchorPoint: "Anchor-12" 423 880 basechar 0
AnchorPoint: "Anchor-11" 0 0 basechar 0
AnchorPoint: "Anchor-10" 304 0 basechar 0
LayerCount: 2
Back
Fore
SplineSet
542 880 m 1
 561 855 l 1
 421 757 l 1
 394 757 l 1
 280 855 l 1
 303 879 l 1
 412 801 l 1
 542 880 l 1
401 694 m 0
 476 694 523 671 565 632 c 1
 536 602 l 1
 495 638 459 653 402 653 c 0
 195 653 124 422 124 260 c 0
 124 105 200 32 308 32 c 0
 381 32 425 58 469 91 c 1
 493 56 l 1
 445 18 386 -11 305 -11 c 0
 169 -11 75 84 75 261 c 0
 75 443 163 694 401 694 c 0
EndSplineSet
Substitution2: "'c2sc' Capitals to Small Capitals lookup 27 subtable" ccaron.sc
Substitution2: "'aalt' Access All Alternates lookup 0 subtable" ccaron.sc
Position2: "'cpsp' Capital Spacing lookup 0 subtable" dx=5 dy=0 dh=10 dv=0
EndChar
StartChar: ccaron
Encoding: 269 269 382
Width: 464
GlyphClass: 2
Flags: MW
HStem: -11 41<206.5 274.5 206.5 276.5> 493 39<240.5 343> 719 20G<212 212 493 493>
VStem: 62 47<140.5 256 140.5 266.5>
AnchorPoint: "Anchor-14" 0 0 basechar 0
AnchorPoint: "Anchor-13" 0 0 basechar 0
AnchorPoint: "Anchor-12" 355 763 basechar 0
AnchorPoint: "Anchor-11" 0 0 basechar 0
AnchorPoint: "Anchor-10" 245 0 basechar 0
LayerCount: 2
Back
Fore
SplineSet
474 763 m 1
 493 739 l 1
 352 635 l 1
 325 635 l 1
 212 739 l 1
 234 763 l 1
 343 679 l 1
 474 763 l 1
319 532 m 0
 375 532 419 516 456 480 c 1
 430 451 l 1
 401 477 367 493 319 493 c 0
 162 493 109 315 109 197 c 0
 109 84 164 30 249 30 c 0
 300 30 341 48 380 76 c 1
 401 43 l 1
 357 9 306 -11 247 -11 c 0
 134 -11 62 64 62 199 c 0
 62 334 130 532 319 532 c 0
EndSplineSet
Substitution2: "'smcp' Lowercase to Small Capitals lookup 28 subtable" ccaron.sc
Substitution2: "'aalt' Access All Alternates lookup 0 subtable" ccaron.sc
EndChar

StartChar: Dcaron
Encoding: 270 270 22
Width: 627
GlyphClass: 2
Flags: MW
HStem: 0 41<131 219> 643 41<215 215 215 305>
VStem: 527 47<338 522.5>
AnchorPoint: "Anchor-11" 0 0 basechar 0
AnchorPoint: "Anchor-10" 0 0 basechar 0
AnchorPoint: "Anchor-9" 357 684 basechar 0
AnchorPoint: "Anchor-8" 0 0 basechar 0
LayerCount: 2
Fore
SplineSet
516 855 m 1
 376 757 l 1
 349 757 l 1
 235 855 l 1
 258 879 l 1
 367 801 l 1
 497 880 l 1
 516 855 l 1
305 684 m 2
 442 684 574 639 574 429 c 0
 574 218 482 0 219 0 c 2
 78 0 l 1
 174 684 l 1
 305 684 l 2
215 643 m 1
 131 41 l 1
 226 41 l 2
 453 41 527 246 527 430 c 0
 527 615 414 643 305 643 c 2
 215 643 l 1
EndSplineSet
Substitution2: "'c2sc' Capitals to Small Capitals lookup 23 subtable" dcaron.sc
Substitution2: "'aalt' Access All Alternates lookup 0 subtable" dcaron.sc
Position2: "'cpsp' Capital Spacing lookup 0 subtable" dx=5 dy=0 dh=10 dv=0
EndChar

StartChar: dcaron
Encoding: 271 271 155
Width: 589
GlyphClass: 2
Flags: MW
HStem: -11 40<190 263> 0 21G<389 428 389 389> 493 39<236.5 344 215.5 345.5> 714 20G<661 661> 715 20G<532 532> 720 20G<616 616> 721 20G<487 487>
VStem: 62 48<139.5 253.5 139.5 262>
LayerCount: 2
Fore
SplineSet
532 735 m 1xa9
 428 0 l 1
 389 0 l 1x71
 399 113 l 1
 362 48 306 -11 220 -11 c 0
 122 -11 62 66 62 194 c 0
 62 330 124 532 307 532 c 0
 381 532 423 495 447 458 c 1
 487 741 l 1xa3
 532 735 l 1xa9
661 734 m 1
 606 578 l 1
 577 582 l 1
 616 740 l 1xa5
 661 734 l 1
312 493 m 0
 161 493 110 314 110 193 c 0
 110 86 154 29 226 29 c 0
 307 29 358 92 408 180 c 1
 441 412 l 1
 416 457 379 493 312 493 c 0
EndSplineSet
Substitution2: "'smcp' Lowercase to Small Capitals lookup 24 subtable" dcaron.sc
Substitution2: "'aalt' Access All Alternates lookup 0 subtable" dcaron.sc
EndChar

StartChar: Dcroat
Encoding: 272 272 23
Width: 622
GlyphClass: 2
Flags: MW
HStem: 0 41<127 215> 334 38<39 120 34 126 173 353> 643 41<211 301 211 211>
VStem: 522 48<338 522.5>
AnchorPoint: "Anchor-11" 0 0 basechar 0
AnchorPoint: "Anchor-10" 0 0 basechar 0
AnchorPoint: "Anchor-9" 353 684 basechar 0
AnchorPoint: "Anchor-8" 0 0 basechar 0
LayerCount: 2
Fore
SplineSet
301 684 m 2
 438 684 570 639 570 429 c 0
 570 218 478 0 215 0 c 2
 73 0 l 1
 120 334 l 1
 34 334 l 1
 39 372 l 1
 126 372 l 1
 170 684 l 1
 301 684 l 2
222 41 m 2
 449 41 522 246 522 430 c 0
 522 615 410 643 301 643 c 2
 211 643 l 1
 173 372 l 1
 359 372 l 1
 353 334 l 1
 168 334 l 1
 127 41 l 1
 222 41 l 2
EndSplineSet
Substitution2: "'c2sc' Capitals to Small Capitals lookup 23 subtable" dcroat.sc
Substitution2: "'aalt' Access All Alternates lookup 0 subtable" dcroat.sc
Position2: "'cpsp' Capital Spacing lookup 0 subtable" dx=5 dy=0 dh=10 dv=0
EndChar

StartChar: dcroat
Encoding: 273 273 156
Width: 586
GlyphClass: 2
Flags: MW
HStem: -11 40<195 268> 0 21G<394 433 394 394> 493 39<241.5 349 220.5 350.5> 620 38<310 475 310 480 526 595> 715 20G<537 537> 721 20G<492 492>
VStem: 67 48<139.5 253.5 139.5 262>
LayerCount: 2
Fore
SplineSet
595 620 m 1xb6
 521 620 l 1
 433 0 l 1
 394 0 l 1x76
 404 113 l 1
 367 48 311 -11 225 -11 c 0
 127 -11 67 66 67 194 c 0
 67 330 129 532 312 532 c 0
 386 532 428 495 452 458 c 1
 475 620 l 1
 310 620 l 1
 310 658 l 1
 480 658 l 1
 492 741 l 1xb6
 537 735 l 1xba
 526 658 l 1
 600 658 l 1
 595 620 l 1xb6
446 412 m 1
 421 457 384 493 317 493 c 0
 166 493 115 314 115 193 c 0
 115 86 159 29 231 29 c 0xb6
 312 29 363 92 413 180 c 1
 446 412 l 1
EndSplineSet
Substitution2: "'smcp' Lowercase to Small Capitals lookup 24 subtable" dcroat.sc
Substitution2: "'aalt' Access All Alternates lookup 0 subtable" dcroat.sc
EndChar

StartChar: emacron
Encoding: 275 275 165
Width: 519
GlyphClass: 2
Flags: MW
HStem: -11 41<208.5 279.5 208.5 281.5> 209 37 493 39<254.5 358.5> 679 39<225 448 219 454>
VStem: 62 47<139.5 199 199 209 139.5 271.5> 430 48<358.5 430.5>
AnchorPoint: "Anchor-11" 250 0 basechar 0
AnchorPoint: "Anchor-10" 0 0 basechar 0
AnchorPoint: "Anchor-9" 312 522 basechar 0
AnchorPoint: "Anchor-8" 346 5 basechar 0
LayerCount: 2
Fore
SplineSet
448 679 m 1
 219 679 l 1
 225 718 l 1
 454 718 l 1
 448 679 l 1
478 409 m 0
 478 280 332 224 109 209 c 1
 109 199 l 2
 109 80 167 30 250 30 c 0
 309 30 351 49 400 84 c 1
 422 51 l 1
 369 12 315 -11 248 -11 c 0
 131 -11 62 64 62 198 c 0
 62 345 139 532 322 532 c 0
 420 532 478 480 478 409 c 0
321 493 m 0
 188 493 125 363 112 246 c 1
 321 261 430 310 430 407 c 0
 430 454 396 493 321 493 c 0
EndSplineSet
Substitution2: "'smcp' Lowercase to Small Capitals lookup 24 subtable" emacron.sc
Substitution2: "'aalt' Access All Alternates lookup 0 subtable" emacron.sc
EndChar

StartChar: Ebreve
Encoding: 276 276 26
Width: 502
GlyphClass: 2
Flags: MW
HStem: 0 41<131 422> 336 41<178 419 173 424> 643 41<215 500 215 215> 767 39<333 380 333 387.5>
VStem: 78 434
AnchorPoint: "Anchor-11" 247 0 basechar 0
AnchorPoint: "Anchor-10" 78 524 basechar 0
AnchorPoint: "Anchor-9" 347 684 basechar 0
AnchorPoint: "Anchor-8" 403 0 basechar 0
LayerCount: 2
Fore
SplineSet
356 767 m 0
 289 767 245 809 244 861 c 1
 275 865 l 1
 283 830 310 806 356 806 c 0
 404 806 439 832 457 868 c 1
 489 858 l 1
 473 806 419 767 356 767 c 0
500 643 m 1
 215 643 l 1
 178 377 l 1
 424 377 l 1
 419 336 l 1
 173 336 l 1
 131 41 l 1
 428 41 l 1
 422 0 l 1
 78 0 l 1
 174 684 l 1
 512 684 l 1
 500 643 l 1
EndSplineSet
Substitution2: "'c2sc' Capitals to Small Capitals lookup 23 subtable" ebreve.sc
Substitution2: "'aalt' Access All Alternates lookup 0 subtable" ebreve.sc
Position2: "'cpsp' Capital Spacing lookup 0 subtable" dx=5 dy=0 dh=10 dv=0
EndChar

StartChar: ebreve
Encoding: 277 277 159
Width: 519
GlyphClass: 2
Flags: MW
HStem: -11 41<208.5 279.5 208.5 281.5> 209 37 493 39<254.5 358.5> 656 40<309 356 309 363.5>
VStem: 62 47<139.5 199 199 209 139.5 271.5> 222 33<729.5 765> 430 48<358.5 430.5>
AnchorPoint: "Anchor-11" 250 0 basechar 0
AnchorPoint: "Anchor-10" 0 0 basechar 0
AnchorPoint: "Anchor-9" 312 522 basechar 0
AnchorPoint: "Anchor-8" 346 5 basechar 0
LayerCount: 2
Fore
SplineSet
332 656 m 0
 265 656 222 699 222 760 c 1
 255 765 l 1
 261 719 286 696 332 696 c 0
 380 696 417 722 436 767 c 1
 467 757 l 1
 450 696 395 656 332 656 c 0
478 409 m 0
 478 280 332 224 109 209 c 1
 109 199 l 2
 109 80 167 30 250 30 c 0
 309 30 351 49 400 84 c 1
 422 51 l 1
 369 12 315 -11 248 -11 c 0
 131 -11 62 64 62 198 c 0
 62 345 139 532 322 532 c 0
 420 532 478 480 478 409 c 0
321 493 m 0
 188 493 125 363 112 246 c 1
 321 261 430 310 430 407 c 0
 430 454 396 493 321 493 c 0
EndSplineSet
Substitution2: "'smcp' Lowercase to Small Capitals lookup 24 subtable" ebreve.sc
Substitution2: "'aalt' Access All Alternates lookup 0 subtable" ebreve.sc
EndChar
StartChar: Edotaccent
Encoding: 278 278 78
Width: 502
GlyphClass: 2
Flags: MW
HStem: 0 41<131 422> 336 41<178 419 173 424> 643 41<215 500 215 215> 800 70<361 377.5>
VStem: 334 70
AnchorPoint: "Anchor-14" 0 0 basechar 0
AnchorPoint: "Anchor-13" 0 0 basechar 0
AnchorPoint: "Anchor-12" 371 870 basechar 0
AnchorPoint: "Anchor-11" 403 0 basechar 0
AnchorPoint: "Anchor-10" 247 0 basechar 0
LayerCount: 2
Back
Fore
SplineSet
371 870 m 0
 395 870 407 853 404 832 c 0
 401 814 388 800 367 800 c 0
 344 800 331 817 334 838 c 0
 337 856 351 870 371 870 c 0
512 684 m 1
 500 643 l 1
 215 643 l 1
 178 377 l 1
 424 377 l 1
 419 336 l 1
 173 336 l 1
 131 41 l 1
 428 41 l 1
 422 0 l 1
 78 0 l 1
 174 684 l 1
 512 684 l 1
EndSplineSet
Substitution2: "'c2sc' Capitals to Small Capitals lookup 27 subtable" edotaccent.sc
Substitution2: "'aalt' Access All Alternates lookup 0 subtable" edotaccent.sc
Position2: "'cpsp' Capital Spacing lookup 0 subtable" dx=5 dy=0 dh=10 dv=0
EndChar
StartChar: edotaccent
Encoding: 279 279 422
Width: 518
GlyphClass: 2
Flags: MW
HStem: -11 41<207.5 278.5 207.5 280.5> 209 37 493 39<254 358> 674 70<330 346.5>
VStem: 61 48<139.5 199 199 209 139.5 271.5> 303 70 430 47<358.5 430.5>
AnchorPoint: "Anchor-14" 0 0 basechar 0
AnchorPoint: "Anchor-13" 0 0 basechar 0
AnchorPoint: "Anchor-12" 342 744 basechar 0
AnchorPoint: "Anchor-11" 345 5 basechar 0
AnchorPoint: "Anchor-10" 244 0 basechar 0
LayerCount: 2
Back
Fore
SplineSet
336 674 m 0
 313 674 300 691 303 712 c 0
 306 730 320 744 340 744 c 0
 364 744 376 727 373 706 c 0
 370 688 357 674 336 674 c 0
477 409 m 0
 477 280 332 224 109 209 c 1
 109 199 l 2
 109 80 166 30 249 30 c 0
 308 30 350 49 399 84 c 1
 421 51 l 1
 368 12 314 -11 247 -11 c 0
 130 -11 61 64 61 198 c 0
 61 345 138 532 321 532 c 0
 419 532 477 480 477 409 c 0
321 493 m 0
 187 493 125 363 111 246 c 1
 320 262 430 310 430 407 c 0
 430 454 395 493 321 493 c 0
EndSplineSet
Substitution2: "'smcp' Lowercase to Small Capitals lookup 28 subtable" edotaccent.sc
Substitution2: "'aalt' Access All Alternates lookup 0 subtable" edotaccent.sc
EndChar
StartChar: Eogonek
Encoding: 280 280 84
Width: 502
GlyphClass: 2
Flags: MW
HStem: -212 40<291.5 316> 0 41<131 328 394 422 394 394> 336 41<178 419 173 424> 643 41<215 500 215 215>
VStem: 209 45<-138.5 -106.5>
AnchorPoint: "Anchor-14" 0 0 basechar 0
AnchorPoint: "Anchor-13" 0 0 basechar 0
AnchorPoint: "Anchor-12" 347 684 basechar 0
AnchorPoint: "Anchor-11" 403 0 basechar 0
AnchorPoint: "Anchor-10" 247 0 basechar 0
LayerCount: 2
Back
Fore
SplineSet
500 643 m 1
 215 643 l 1
 178 377 l 1
 424 377 l 1
 419 336 l 1
 173 336 l 1
 131 41 l 1
 428 41 l 1
 422 0 l 1
 394 0 l 1
 301 -40 254 -73 254 -124 c 0
 254 -153 271 -172 312 -172 c 0
 332 -172 347 -170 370 -166 c 1
 361 -206 l 1
 341 -210 326 -212 306 -212 c 0
 240 -212 209 -179 209 -136 c 0
 209 -77 245 -37 328 0 c 1
 78 0 l 1
 174 684 l 1
 512 684 l 1
 500 643 l 1
EndSplineSet
Substitution2: "'c2sc' Capitals to Small Capitals lookup 27 subtable" eogonek.sc
Substitution2: "'aalt' Access All Alternates lookup 0 subtable" eogonek.sc
Position2: "'cpsp' Capital Spacing lookup 0 subtable" dx=5 dy=0 dh=10 dv=0
EndChar
StartChar: eogonek
Encoding: 281 281 428
Width: 518
GlyphClass: 2
Flags: MW
HStem: -208 41<257.5 285> -11 41<207.5 247 247 250> 209 37 493 39<254 358>
VStem: 61 48<139.5 199 199 209 139.5 271.5> 168 45<-130 -96.5> 430 47<358.5 430.5>
AnchorPoint: "Anchor-14" 0 0 basechar 0
AnchorPoint: "Anchor-13" 0 0 basechar 0
AnchorPoint: "Anchor-12" 311 522 basechar 0
AnchorPoint: "Anchor-11" 345 5 basechar 0
AnchorPoint: "Anchor-10" 244 0 basechar 0
LayerCount: 2
Back
Fore
SplineSet
477 409 m 0
 477 280 332 224 109 209 c 1
 109 199 l 2
 109 80 166 30 249 30 c 0
 308 30 350 49 399 84 c 1
 421 51 l 1
 391 29 360 12 327 1 c 0
 249 -35 213 -65 213 -114 c 0
 213 -146 235 -167 280 -167 c 0
 299 -167 314 -165 336 -161 c 1
 331 -201 l 1
 311 -205 295 -208 275 -208 c 0
 203 -208 168 -169 168 -119 c 0
 168 -74 195 -39 250 -11 c 1
 247 -11 l 2
 130 -11 61 64 61 198 c 0
 61 345 138 532 321 532 c 0
 419 532 477 480 477 409 c 0
321 493 m 0
 187 493 125 363 111 246 c 1
 320 262 430 310 430 407 c 0
 430 454 395 493 321 493 c 0
EndSplineSet
Substitution2: "'smcp' Lowercase to Small Capitals lookup 28 subtable" eogonek.sc
Substitution2: "'aalt' Access All Alternates lookup 0 subtable" eogonek.sc
EndChar
StartChar: Ecaron
Encoding: 282 282 68
Width: 502
GlyphClass: 2
Flags: MW
HStem: 0 41<131 422> 336 41<178 419 173 424> 643 41<215 500 215 215>
VStem: 78 434
AnchorPoint: "Anchor-14" 0 0 basechar 0
AnchorPoint: "Anchor-13" 0 0 basechar 0
AnchorPoint: "Anchor-12" 368 880 basechar 0
AnchorPoint: "Anchor-11" 403 0 basechar 0
AnchorPoint: "Anchor-10" 247 0 basechar 0
LayerCount: 2
Back
Fore
SplineSet
487 880 m 1
 506 855 l 1
 366 757 l 1
 339 757 l 1
 225 855 l 1
 248 879 l 1
 357 801 l 1
 487 880 l 1
512 684 m 1
 500 643 l 1
 215 643 l 1
 178 377 l 1
 424 377 l 1
 419 336 l 1
 173 336 l 1
 131 41 l 1
 428 41 l 1
 422 0 l 1
 78 0 l 1
 174 684 l 1
 512 684 l 1
EndSplineSet
Substitution2: "'c2sc' Capitals to Small Capitals lookup 27 subtable" ecaron.sc
Substitution2: "'aalt' Access All Alternates lookup 0 subtable" ecaron.sc
Position2: "'cpsp' Capital Spacing lookup 0 subtable" dx=5 dy=0 dh=10 dv=0
EndChar
StartChar: Gcircumflex
Encoding: 284 284 101
Width: 612
GlyphClass: 2
Flags: MW
HStem: -11 42<256.5 345.5 256.5 347.5> 324 41<369 506 369 558> 653 41<308.5 436.5>
VStem: 75 49<179 348 179 361>
AnchorPoint: "Anchor-14" 0 0 basechar 0
AnchorPoint: "Anchor-13" 509 744 basechar 0
AnchorPoint: "Anchor-12" 431 887 basechar 0
AnchorPoint: "Anchor-11" 0 0 basechar 0
AnchorPoint: "Anchor-10" 300 0 basechar 0
LayerCount: 2
Back
Fore
SplineSet
535 763 m 1
 426 843 l 1
 296 763 l 1
 276 788 l 1
 417 887 l 1
 444 887 l 1
 558 788 l 1
 535 763 l 1
406 694 m 0
 479 694 533 672 583 629 c 1
 551 599 l 1
 509 637 467 653 406 653 c 0
 211 653 124 441 124 255 c 0
 124 103 197 31 316 31 c 0
 375 31 422 44 469 69 c 1
 506 324 l 1
 369 324 l 1
 369 365 l 1
 558 365 l 1
 514 44 l 1
 452 9 383 -11 312 -11 c 0
 167 -11 75 80 75 260 c 0
 75 462 182 694 406 694 c 0
EndSplineSet
Substitution2: "'c2sc' Capitals to Small Capitals lookup 27 subtable" gcircumflex.sc
Substitution2: "'aalt' Access All Alternates lookup 0 subtable" gcircumflex.sc
Position2: "'cpsp' Capital Spacing lookup 0 subtable" dx=5 dy=0 dh=10 dv=0
EndChar

StartChar: gcircumflex
Encoding: 285 285 170
Width: 561
GlyphClass: 2
Flags: MW
HStem: -203 39<176 246 176 259> 0 40<193 259> 494 38<247 350.5>
VStem: 61 48<201 201>
AnchorPoint: "Anchor-11" 0 0 basechar 0
AnchorPoint: "Anchor-10" 0 0 basechar 0
AnchorPoint: "Anchor-9" 318 522 basechar 0
AnchorPoint: "Anchor-8" 0 0 basechar 0
LayerCount: 2
Fore
SplineSet
200 672 m 1
 342 775 l 1
 369 775 l 1
 481 672 l 1
 459 647 l 1
 350 731 l 1
 221 647 l 1
 200 672 l 1
326 532 m 0
 396 532 440 515 489 490 c 1
 418 2 l 2
 396 -152 311 -203 207 -203 c 0
 141 -203 82 -181 37 -155 c 1
 56 -121 l 1
 97 -143 145 -164 207 -164 c 0
 285 -164 356 -125 373 -1 c 2
 386 94 l 1
 348 38 292 0 226 0 c 0
 122 0 61 78 61 201 c 0
 60 338 132 532 326 532 c 0
327 494 m 0
 167 494 108 321 109 201 c 0
 110 98 155 40 231 40 c 0
 298 40 350 82 395 153 c 1
 442 468 l 1
 411 484 374 494 327 494 c 0
EndSplineSet
Substitution2: "'smcp' Lowercase to Small Capitals lookup 24 subtable" gcircumflex.sc
Substitution2: "'aalt' Access All Alternates lookup 0 subtable" gcircumflex.sc
EndChar
StartChar: Gbreve
Encoding: 286 286 99
Width: 612
GlyphClass: 2
Flags: MW
HStem: -11 42<256.5 345.5 256.5 347.5> 324 41<369 506 369 558> 653 41<308.5 436.5> 767 39<396 443 396 450.5>
VStem: 75 49<179 348 179 361>
AnchorPoint: "Anchor-14" 0 0 basechar 0
AnchorPoint: "Anchor-13" 0 0 basechar 0
AnchorPoint: "Anchor-12" 431 868 basechar 0
AnchorPoint: "Anchor-11" 0 0 basechar 0
AnchorPoint: "Anchor-10" 300 0 basechar 0
LayerCount: 2
Back
Fore
SplineSet
419 767 m 0
 352 767 308 809 307 861 c 1
 338 865 l 1
 346 830 373 806 419 806 c 0
 467 806 502 832 520 868 c 1
 552 858 l 1
 536 806 482 767 419 767 c 0
406 694 m 0
 479 694 533 672 583 629 c 1
 551 599 l 1
 509 637 467 653 406 653 c 0
 211 653 124 441 124 255 c 0
 124 103 197 31 316 31 c 0
 375 31 422 44 469 69 c 1
 506 324 l 1
 369 324 l 1
 369 365 l 1
 558 365 l 1
 514 44 l 1
 452 9 383 -11 312 -11 c 0
 167 -11 75 80 75 260 c 0
 75 462 182 694 406 694 c 0
EndSplineSet
Substitution2: "'c2sc' Capitals to Small Capitals lookup 27 subtable" gbreve.sc
Substitution2: "'aalt' Access All Alternates lookup 0 subtable" gbreve.sc
Position2: "'cpsp' Capital Spacing lookup 0 subtable" dx=5 dy=0 dh=10 dv=0
EndChar
StartChar: gbreve
Encoding: 287 287 453
Width: 562
GlyphClass: 2
Flags: MW
HStem: -203 39<176.5 247 176.5 259.5> 0 40<193.5 259.5> 494 38<248 351.5> 656 40<314 361 314 368.5>
VStem: 61 49<149.5 269.5> 227 33<729.5 765>
AnchorPoint: "Anchor-14" 0 0 basechar 0
AnchorPoint: "Anchor-13" 0 0 basechar 0
AnchorPoint: "Anchor-12" 351 767 basechar 0
AnchorPoint: "Anchor-11" 0 0 basechar 0
AnchorPoint: "Anchor-10" 208 -195 basechar 0
LayerCount: 2
Back
Fore
SplineSet
337 656 m 0
 270 656 227 699 227 760 c 1
 260 765 l 1
 266 719 291 696 337 696 c 0
 385 696 422 722 441 767 c 1
 472 757 l 1
 455 696 400 656 337 656 c 0
327 532 m 0
 397 532 441 515 490 490 c 1
 419 2 l 2
 397 -152 311 -203 208 -203 c 0
 142 -203 83 -181 38 -155 c 1
 57 -121 l 1
 98 -143 145 -164 208 -164 c 0
 286 -164 356 -125 374 -1 c 2
 387 94 l 1
 349 38 293 0 226 0 c 0
 123 0 62 78 61 201 c 0
 61 338 133 532 327 532 c 0
328 494 m 0
 168 494 109 321 110 201 c 0
 110 98 155 40 232 40 c 0
 298 40 351 82 396 153 c 1
 441 468 l 1
 410 484 375 494 328 494 c 0
EndSplineSet
Substitution2: "'smcp' Lowercase to Small Capitals lookup 28 subtable" gbreve.sc
Substitution2: "'aalt' Access All Alternates lookup 0 subtable" gbreve.sc
EndChar

StartChar: Gdotaccent
Encoding: 288 288 39
Width: 612
GlyphClass: 2
Flags: MW
HStem: -11 42<256.5 345.5 256.5 347.5> 324 41<369 506 369 558> 653 41<308.5 436.5> 800 70<421 437.5>
VStem: 75 49<179 348 179 361> 394 70
AnchorPoint: "Anchor-11" 300 0 basechar 0
AnchorPoint: "Anchor-10" 0 0 basechar 0
AnchorPoint: "Anchor-9" 408 684 basechar 0
AnchorPoint: "Anchor-8" 0 0 basechar 0
LayerCount: 2
Fore
SplineSet
431 870 m 0
 455 870 467 853 464 832 c 0
 461 814 448 800 427 800 c 0
 404 800 391 817 394 838 c 0
 397 856 411 870 431 870 c 0
406 694 m 0
 479 694 533 672 583 629 c 1
 551 599 l 1
 509 637 467 653 406 653 c 0
 211 653 124 441 124 255 c 0
 124 103 197 31 316 31 c 0
 375 31 422 44 469 69 c 1
 506 324 l 1
 369 324 l 1
 369 365 l 1
 558 365 l 1
 514 44 l 1
 452 9 383 -11 312 -11 c 0
 167 -11 75 80 75 260 c 0
 75 462 182 694 406 694 c 0
EndSplineSet
Substitution2: "'c2sc' Capitals to Small Capitals lookup 23 subtable" gdotaccent.sc
Substitution2: "'aalt' Access All Alternates lookup 0 subtable" gdotaccent.sc
Position2: "'cpsp' Capital Spacing lookup 0 subtable" dx=5 dy=0 dh=10 dv=0
EndChar

StartChar: gdotaccent
Encoding: 289 289 172
Width: 561
GlyphClass: 2
Flags: MW
HStem: -203 39<176 246 176 259> 0 40<193 259> 494 38<247 350.5> 674 70<336 352.5>
VStem: 61 48<201 201> 309 70
AnchorPoint: "Anchor-11" 0 0 basechar 0
AnchorPoint: "Anchor-10" 0 0 basechar 0
AnchorPoint: "Anchor-9" 318 522 basechar 0
AnchorPoint: "Anchor-8" 0 0 basechar 0
LayerCount: 2
Fore
SplineSet
346 744 m 0
 370 744 382 727 379 706 c 0
 376 688 363 674 342 674 c 0
 319 674 306 691 309 712 c 0
 312 730 326 744 346 744 c 0
326 532 m 0
 396 532 440 515 489 490 c 1
 418 2 l 2
 396 -152 311 -203 207 -203 c 0
 141 -203 82 -181 37 -155 c 1
 56 -121 l 1
 97 -143 145 -164 207 -164 c 0
 285 -164 356 -125 373 -1 c 2
 386 94 l 1
 348 38 292 0 226 0 c 0
 122 0 61 78 61 201 c 0
 60 338 132 532 326 532 c 0
327 494 m 0
 167 494 108 321 109 201 c 0
 110 98 155 40 231 40 c 0
 298 40 350 82 395 153 c 1
 442 468 l 1
 411 484 374 494 327 494 c 0
EndSplineSet
Substitution2: "'smcp' Lowercase to Small Capitals lookup 24 subtable" gdotaccent.sc
Substitution2: "'aalt' Access All Alternates lookup 0 subtable" gdotaccent.sc
EndChar

StartChar: Gcommaaccent
Encoding: 290 290 38
Width: 612
GlyphClass: 2
Flags: MW
HStem: -11 42<256.5 345.5 256.5 347.5> 324 41<369 506 369 558> 653 41<308.5 436.5>
VStem: 75 49<179 348 179 361> 244 78<-131.5 -116.5>
AnchorPoint: "Anchor-11" 300 0 basechar 0
AnchorPoint: "Anchor-10" 0 0 basechar 0
AnchorPoint: "Anchor-9" 408 684 basechar 0
AnchorPoint: "Anchor-8" 0 0 basechar 0
LayerCount: 2
Fore
SplineSet
406 694 m 0
 479 694 533 672 583 629 c 1
 551 599 l 1
 509 637 467 653 406 653 c 0
 211 653 124 441 124 255 c 0
 124 103 197 31 316 31 c 0
 375 31 422 44 469 69 c 1
 506 324 l 1
 369 324 l 1
 369 365 l 1
 558 365 l 1
 514 44 l 1
 452 9 383 -11 312 -11 c 0
 167 -11 75 80 75 260 c 0
 75 462 182 694 406 694 c 0
286 -87 m 0
 308 -87 322 -103 322 -122 c 0
 322 -141 315 -152 293 -189 c 2
 241 -273 l 1
 212 -273 l 1
 262 -159 l 1
 250 -152 244 -139 244 -128 c 0
 244 -105 261 -87 286 -87 c 0
EndSplineSet
Substitution2: "'c2sc' Capitals to Small Capitals lookup 23 subtable" gcommaaccent.sc
Substitution2: "'aalt' Access All Alternates lookup 0 subtable" gcommaaccent.sc
Position2: "'cpsp' Capital Spacing lookup 0 subtable" dx=5 dy=0 dh=10 dv=0
EndChar

StartChar: gcommaaccent
Encoding: 291 291 171
Width: 561
GlyphClass: 2
Flags: MW
HStem: -203 39<176 246 176 259> 0 40<193 259> 494 38<247 350.5>
VStem: 61 48<201 201> 296 78<638.5 653.5>
AnchorPoint: "Anchor-11" 0 0 basechar 0
AnchorPoint: "Anchor-10" 0 0 basechar 0
AnchorPoint: "Anchor-9" 318 522 basechar 0
AnchorPoint: "Anchor-8" 0 0 basechar 0
LayerCount: 2
Fore
SplineSet
332 609 m 0
 310 609 296 625 296 644 c 0
 296 663 303 674 325 711 c 2
 377 795 l 1
 406 795 l 1
 356 681 l 1
 368 674 374 661 374 650 c 0
 374 627 357 609 332 609 c 0
326 532 m 0
 396 532 440 515 489 490 c 1
 418 2 l 2
 396 -152 311 -203 207 -203 c 0
 141 -203 82 -181 37 -155 c 1
 56 -121 l 1
 97 -143 145 -164 207 -164 c 0
 285 -164 356 -125 373 -1 c 2
 386 94 l 1
 348 38 292 0 226 0 c 0
 122 0 61 78 61 201 c 0
 60 338 132 532 326 532 c 0
327 494 m 0
 167 494 108 321 109 201 c 0
 110 98 155 40 231 40 c 0
 298 40 350 82 395 153 c 1
 442 468 l 1
 411 484 374 494 327 494 c 0
EndSplineSet
Substitution2: "'smcp' Lowercase to Small Capitals lookup 24 subtable" gcommaaccent.sc
Substitution2: "'aalt' Access All Alternates lookup 0 subtable" gcommaaccent.sc
EndChar

StartChar: Hcircumflex
Encoding: 292 292 42
Width: 665
GlyphClass: 2
Flags: MW
HStem: 0 21G<78 125 78 78 466 466 466 514> 339 42<179 514 173 520> 664 20G<174 221 221 221 563 610 610 610>
VStem: 78 532
AnchorPoint: "Anchor-11" 0 0 basechar 0
AnchorPoint: "Anchor-10" 78 524 basechar 0
AnchorPoint: "Anchor-9" 390 684 basechar 0
AnchorPoint: "Anchor-8" 0 0 basechar 0
LayerCount: 2
Fore
SplineSet
419 843 m 1
 289 763 l 1
 269 788 l 1
 410 887 l 1
 437 887 l 1
 551 788 l 1
 528 763 l 1
 419 843 l 1
514 339 m 1
 173 339 l 1
 125 0 l 1
 78 0 l 1
 174 684 l 1
 221 684 l 1
 179 381 l 1
 520 381 l 1
 563 684 l 1
 610 684 l 1
 514 0 l 1
 466 0 l 1
 514 339 l 1
EndSplineSet
Substitution2: "'c2sc' Capitals to Small Capitals lookup 23 subtable" hcircumflex.sc
Substitution2: "'aalt' Access All Alternates lookup 0 subtable" hcircumflex.sc
Position2: "'cpsp' Capital Spacing lookup 0 subtable" dx=5 dy=0 dh=10 dv=0
EndChar
StartChar: hcircumflex
Encoding: 293 293 471
Width: 582
GlyphClass: 2
Flags: MW
HStem: 0 21G<73 118 73 73 394 440 394 394> 493 39<334 398> 721 20G<223 223>
VStem: 448.63 46.32
AnchorPoint: "Anchor-14" 294 261 basechar 0
AnchorPoint: "Anchor-13" 462 795 basechar 0
AnchorPoint: "Anchor-12" 384 938 basechar 0
AnchorPoint: "Anchor-11" 0 0 basechar 0
AnchorPoint: "Anchor-10" 257 0 basechar 0
LayerCount: 2
Back
Fore
SplineSet
488 814 m 1
 379 894 l 1
 249 814 l 1
 229 839 l 1
 370 938 l 1
 397 938 l 1
 511 839 l 1
 488 814 l 1
373 532 m 0
 465 532 507 472 492 370 c 2
 440 0 l 1
 394 0 l 1
 446 367 l 2
 458 455 430 493 366 493 c 0
 284 493 217 415 162 312 c 1
 118 0 l 1
 73 0 l 1
 177 735 l 1
 223 741 l 1
 172 383 l 1
 223 477 295 532 373 532 c 0
EndSplineSet
Substitution2: "'smcp' Lowercase to Small Capitals lookup 28 subtable" hcircumflex.sc
Substitution2: "'aalt' Access All Alternates lookup 0 subtable" hcircumflex.sc
EndChar
StartChar: Hbar
Encoding: 294 294 108
Width: 660
GlyphClass: 2
Flags: MW
HStem: 0 21G<78 126 78 78 467 514 467 467> 339 42<179 515 174 521> 515 36<93 151 88 156 203 540 592 648> 515 169<88 222 88 222 198 198 198 222 175 540 587 611 587 587>
VStem: 78 575<0 551>
AnchorPoint: "Anchor-14" 343 342 basechar 0
AnchorPoint: "Anchor-13" 0 0 basechar 0
AnchorPoint: "Anchor-12" 391 684 basechar 0
AnchorPoint: "Anchor-11" 0 0 basechar 0
AnchorPoint: "Anchor-10" 295 0 basechar 0
LayerCount: 2
Back
Fore
SplineSet
653 551 m 1xe8
 648 515 l 1
 587 515 l 1
 514 0 l 1
 467 0 l 1
 515 339 l 1
 174 339 l 1
 126 0 l 1
 78 0 l 1
 151 515 l 1
 88 515 l 1
 93 551 l 1
 156 551 l 1xe8
 175 684 l 1
 222 684 l 1xd8
 203 551 l 1
 545 551 l 1xe8
 563 684 l 1
 611 684 l 1xd8
 592 551 l 1
 653 551 l 1xe8
521 381 m 1
 540 515 l 1
 198 515 l 1
 179 381 l 1
 521 381 l 1
EndSplineSet
Substitution2: "'c2sc' Capitals to Small Capitals lookup 27 subtable" hbar.sc
Substitution2: "'aalt' Access All Alternates lookup 0 subtable" hbar.sc
Position2: "'cpsp' Capital Spacing lookup 0 subtable" dx=5 dy=0 dh=10 dv=0
EndChar

StartChar: hbar
Encoding: 295 295 174
Width: 587
GlyphClass: 2
Flags: MW
HStem: 0 21G<78 124 78 78 400 446 400 400> 493 39<340.5 401.5> 620 38<98 166 92 171 216 381> 721 20G<228 228>
VStem: 454.57 46.38
AnchorPoint: "Anchor-11" 258 0 basechar 0
AnchorPoint: "Anchor-10" 0 0 basechar 0
AnchorPoint: "Anchor-9" 367 735 basechar 0
AnchorPoint: "Anchor-8" 0 0 basechar 0
LayerCount: 2
Fore
SplineSet
379 532 m 0
 471 532 513 472 498 371 c 2
 446 0 l 1
 400 0 l 1
 452 367 l 2
 464 457 435 493 368 493 c 0
 290 493 223 415 168 312 c 1
 124 0 l 1
 78 0 l 1
 166 620 l 1
 92 620 l 1
 98 658 l 1
 171 658 l 1
 182 735 l 1
 228 741 l 1
 216 658 l 1
 393 658 l 1
 381 620 l 1
 211 620 l 1
 178 383 l 1
 229 477 302 532 379 532 c 0
EndSplineSet
Substitution2: "'smcp' Lowercase to Small Capitals lookup 24 subtable" hbar.sc
Substitution2: "'aalt' Access All Alternates lookup 0 subtable" hbar.sc
EndChar
StartChar: Itilde
Encoding: 296 296 133
Width: 276
GlyphClass: 2
Flags: MW
HStem: 0 21G<78 125 78 78> 664 20G<174 221 221 221> 796 38<256 286.5 256 293> 840 38<149.5 164>
VStem: 73 293<819 861>
AnchorPoint: "Anchor-14" 0 0 basechar 0
AnchorPoint: "Anchor-13" 0 0 basechar 0
AnchorPoint: "Anchor-12" 221 879 basechar 0
AnchorPoint: "Anchor-11" 122 0 basechar 0
AnchorPoint: "Anchor-10" 101 0 basechar 0
LayerCount: 2
Back
Fore
SplineSet
279 796 m 0
 221 796 199 841 164 840 c 0
 135 840 122 828 100 801 c 1
 73 819 l 1
 100 856 128 878 165 878 c 0xd8
 209 878 236 834 276 834 c 0
 297 834 315 847 339 879 c 1
 366 861 l 1
 337 814 307 796 279 796 c 0
221 684 m 1
 125 0 l 1
 78 0 l 1
 174 684 l 1
 221 684 l 1
EndSplineSet
Substitution2: "'c2sc' Capitals to Small Capitals lookup 27 subtable" itilde.sc
Substitution2: "'aalt' Access All Alternates lookup 0 subtable" itilde.sc
Position2: "'cpsp' Capital Spacing lookup 0 subtable" dx=5 dy=0 dh=10 dv=0
EndChar
StartChar: itilde
Encoding: 297 297 496
Width: 265
GlyphClass: 2
Flags: MW
HStem: 0 21G<73 118 73 73> 502 20G<147 192 192 192> 670 38<233.5 263.5 233.5 268.5> 673 20G<50 50> 714 38<126.5 158.5> 715 20G<343 343>
VStem: 50 293<693 735>
AnchorPoint: "Anchor-14" 0 0 basechar 0
AnchorPoint: "Anchor-13" 0 0 basechar 0
AnchorPoint: "Anchor-12" 199 753 basechar 0
AnchorPoint: "Anchor-11" 113 0 basechar 0
AnchorPoint: "Anchor-10" 95 0 basechar 0
LayerCount: 2
Back
Fore
SplineSet
253 670 m 0xe2
 200 670 177 714 140 714 c 0xda
 113 714 99 702 77 675 c 1xd6
 50 693 l 1
 77 730 106 752 140 752 c 0xda
 187 752 214 708 253 708 c 0
 274 708 292 721 316 753 c 1xe2
 343 735 l 1xd6
 314 688 284 670 253 670 c 0xe2
192 522 m 1xd6
 118 0 l 1
 73 0 l 1
 147 522 l 1
 192 522 l 1xd6
EndSplineSet
Substitution2: "'smcp' Lowercase to Small Capitals lookup 28 subtable" itilde.sc
Substitution2: "'aalt' Access All Alternates lookup 0 subtable" itilde.sc
EndChar

StartChar: Imacron
Encoding: 298 298 51
Width: 277
GlyphClass: 2
Flags: MW
HStem: 0 21G<78 125 78 78> 664 20G<174 222 222 222> 805 39<99 334 105 328>
VStem: 78 256
AnchorPoint: "Anchor-11" 0 0 basechar 0
AnchorPoint: "Anchor-10" 78 524 basechar 0
AnchorPoint: "Anchor-9" 197 684 basechar 0
AnchorPoint: "Anchor-8" 135 0 basechar 0
LayerCount: 2
Fore
SplineSet
99 805 m 1
 105 844 l 1
 334 844 l 1
 328 805 l 1
 99 805 l 1
125 0 m 1
 78 0 l 1
 174 684 l 1
 222 684 l 1
 125 0 l 1
EndSplineSet
Substitution2: "'c2sc' Capitals to Small Capitals lookup 23 subtable" imacron.sc
Substitution2: "'aalt' Access All Alternates lookup 0 subtable" imacron.sc
Position2: "'cpsp' Capital Spacing lookup 0 subtable" dx=5 dy=0 dh=10 dv=0
EndChar

StartChar: imacron
Encoding: 299 299 185
Width: 265
GlyphClass: 2
Flags: MW
HStem: 0 21G<73 119 73 73> 502 20G<147 193 193 193> 679 39<77 312 83 306>
VStem: 73 239
AnchorPoint: "Anchor-11" 0 0 basechar 0
AnchorPoint: "Anchor-10" 0 0 basechar 0
AnchorPoint: "Anchor-9" 170 522 basechar 0
AnchorPoint: "Anchor-8" 128 0 basechar 0
LayerCount: 2
Fore
SplineSet
77 679 m 1
 83 718 l 1
 312 718 l 1
 306 679 l 1
 77 679 l 1
119 0 m 1
 73 0 l 1
 147 522 l 1
 193 522 l 1
 119 0 l 1
EndSplineSet
Substitution2: "'smcp' Lowercase to Small Capitals lookup 24 subtable" imacron.sc
Substitution2: "'aalt' Access All Alternates lookup 0 subtable" imacron.sc
EndChar
StartChar: Ibreve
Encoding: 300 300 118
Width: 276
GlyphClass: 2
Flags: MW
HStem: 0 21G<78 125 78 78> 664 20G<174 221 221 221> 767 39<185 232 185 239.5>
VStem: 78 263
AnchorPoint: "Anchor-14" 0 0 basechar 0
AnchorPoint: "Anchor-13" 0 0 basechar 0
AnchorPoint: "Anchor-12" 220 868 basechar 0
AnchorPoint: "Anchor-11" 122 0 basechar 0
AnchorPoint: "Anchor-10" 101 0 basechar 0
LayerCount: 2
Back
Fore
SplineSet
208 767 m 0
 141 767 97 809 96 861 c 1
 127 865 l 1
 135 830 162 806 208 806 c 0
 256 806 291 832 309 868 c 1
 341 858 l 1
 325 806 271 767 208 767 c 0
221 684 m 1
 125 0 l 1
 78 0 l 1
 174 684 l 1
 221 684 l 1
EndSplineSet
Substitution2: "'c2sc' Capitals to Small Capitals lookup 27 subtable" ibreve.sc
Substitution2: "'aalt' Access All Alternates lookup 0 subtable" ibreve.sc
Position2: "'cpsp' Capital Spacing lookup 0 subtable" dx=5 dy=0 dh=10 dv=0
EndChar

StartChar: ibreve
Encoding: 301 301 179
Width: 265
GlyphClass: 2
Flags: MW
HStem: 0 21G<73 119 73 73> 502 20G<147 193 193 193> 656 40<167 214 167 221.5>
VStem: 80 33<729.5 765>
AnchorPoint: "Anchor-11" 0 0 basechar 0
AnchorPoint: "Anchor-10" 0 0 basechar 0
AnchorPoint: "Anchor-9" 170 522 basechar 0
AnchorPoint: "Anchor-8" 128 0 basechar 0
LayerCount: 2
Fore
SplineSet
190 656 m 0
 123 656 80 699 80 760 c 1
 113 765 l 1
 119 719 144 696 190 696 c 0
 238 696 275 722 294 767 c 1
 325 757 l 1
 308 696 253 656 190 656 c 0
119 0 m 1
 73 0 l 1
 147 522 l 1
 193 522 l 1
 119 0 l 1
EndSplineSet
Substitution2: "'smcp' Lowercase to Small Capitals lookup 24 subtable" ibreve.sc
Substitution2: "'aalt' Access All Alternates lookup 0 subtable" ibreve.sc
EndChar
StartChar: Iogonek
Encoding: 302 302 130
Width: 276
GlyphClass: 2
Flags: MW
HStem: -212 40<10.5 35> 0 21G<113 125 113 113> 664 20G<174 221 221 221>
VStem: -72 45<-138.5 -103>
AnchorPoint: "Anchor-14" 0 0 basechar 0
AnchorPoint: "Anchor-13" 0 0 basechar 0
AnchorPoint: "Anchor-12" 198 684 basechar 0
AnchorPoint: "Anchor-11" 122 0 basechar 0
AnchorPoint: "Anchor-10" 101 0 basechar 0
LayerCount: 2
Back
Fore
SplineSet
174 684 m 1
 221 684 l 1
 125 0 l 1
 113 0 l 1
 20 -40 -27 -73 -27 -124 c 0
 -27 -153 -10 -172 31 -172 c 0
 51 -172 66 -170 89 -166 c 1
 80 -206 l 1
 60 -210 45 -212 25 -212 c 0
 -41 -212 -72 -179 -72 -136 c 0
 -72 -70 -27 -27 79 13 c 1
 174 684 l 1
EndSplineSet
Substitution2: "'c2sc' Capitals to Small Capitals lookup 27 subtable" iogonek.sc
Substitution2: "'aalt' Access All Alternates lookup 0 subtable" iogonek.sc
Position2: "'cpsp' Capital Spacing lookup 0 subtable" dx=5 dy=0 dh=10 dv=0
EndChar

StartChar: iogonek
Encoding: 303 303 186
Width: 265
GlyphClass: 2
Flags: MW
HStem: -212 40<16.5 41> 502 20G<147 193 193 193> 674 70<187 203.5>
VStem: -66 45<-138.5 -104> 160 70
AnchorPoint: "Anchor-11" 0 0 basechar 0
AnchorPoint: "Anchor-10" 0 0 basechar 0
AnchorPoint: "Anchor-9" 170 522 basechar 0
AnchorPoint: "Anchor-8" 128 0 basechar 0
LayerCount: 2
Fore
SplineSet
197 744 m 0
 221 744 233 727 230 706 c 0
 227 688 214 674 193 674 c 0
 170 674 157 691 160 712 c 0
 163 730 177 744 197 744 c 0
147 522 m 1
 193 522 l 1
 119 0 l 1
 26 -40 -21 -73 -21 -124 c 0
 -21 -153 -4 -172 37 -172 c 0
 57 -172 72 -170 95 -166 c 1
 86 -206 l 1
 66 -210 51 -212 31 -212 c 0
 -35 -212 -66 -179 -66 -136 c 0
 -66 -72 -24 -30 74 9 c 1
 147 522 l 1
EndSplineSet
Substitution2: "'smcp' Lowercase to Small Capitals lookup 24 subtable" iogonek.sc
Substitution2: "'aalt' Access All Alternates lookup 0 subtable" iogonek.sc
EndChar
StartChar: Idotaccent
Encoding: 304 304 124
Width: 276
GlyphClass: 2
Flags: MW
HStem: 0 21G<78 125 78 78> 664 20G<174 221 221 221> 800 70<212 228.5>
VStem: 185 70
AnchorPoint: "Anchor-14" 0 0 basechar 0
AnchorPoint: "Anchor-13" 0 0 basechar 0
AnchorPoint: "Anchor-12" 222 870 basechar 0
AnchorPoint: "Anchor-11" 122 0 basechar 0
AnchorPoint: "Anchor-10" 101 0 basechar 0
LayerCount: 2
Back
Fore
SplineSet
222 870 m 0
 246 870 258 853 255 832 c 0
 252 814 239 800 218 800 c 0
 195 800 182 817 185 838 c 0
 188 856 202 870 222 870 c 0
221 684 m 1
 125 0 l 1
 78 0 l 1
 174 684 l 1
 221 684 l 1
EndSplineSet
Substitution2: "'c2sc' Capitals to Small Capitals lookup 27 subtable" i.sc.loclTRK
Substitution2: "'aalt' Access All Alternates lookup 0 subtable" i.sc.loclTRK
Position2: "'cpsp' Capital Spacing lookup 0 subtable" dx=5 dy=0 dh=10 dv=0
EndChar
StartChar: dotlessi
Encoding: 305 305 478
Width: 265
GlyphClass: 2
Flags: MW
HStem: 0 21G<73 118 73 73> 502 20G<147 192 192 192>
VStem: 73 119
AnchorPoint: "Anchor-14" 0 0 basechar 0
AnchorPoint: "Anchor-13" 0 0 basechar 0
AnchorPoint: "Anchor-12" 169 522 basechar 0
AnchorPoint: "Anchor-11" 113 0 basechar 0
AnchorPoint: "Anchor-10" 95 0 basechar 0
LayerCount: 2
Back
Fore
SplineSet
192 522 m 1
 118 0 l 1
 73 0 l 1
 147 522 l 1
 192 522 l 1
EndSplineSet
Substitution2: "'smcp' Lowercase to Small Capitals lookup 28 subtable" dotlessi.sc
Substitution2: "'aalt' Access All Alternates lookup 0 subtable" dotlessi.sc
EndChar

StartChar: IJ
Encoding: 306 306 44
Width: 562
GlyphClass: 2
Flags: MW
HStem: 0 21G<78 125 78 78> 664 20G<174 222 222 222 465 512 512 512>
VStem: 78 434
AnchorPoint: "Anchor-11" 0 0 basechar 0
AnchorPoint: "Anchor-10" 78 524 basechar 0
AnchorPoint: "Anchor-9" 486 684 basechar 0
AnchorPoint: "Anchor-8" 135 0 basechar 0
LayerCount: 2
Fore
SplineSet
125 0 m 1
 78 0 l 1
 174 684 l 1
 222 684 l 1
 125 0 l 1
429 89 m 1
 412 -25 372 -67 255 -113 c 1
 244 -77 l 1
 340 -35 369 1 382 95 c 2
 465 684 l 1
 512 684 l 1
 429 89 l 1
EndSplineSet
Substitution2: "'c2sc' Capitals to Small Capitals lookup 23 subtable" ij.sc
Substitution2: "'aalt' Access All Alternates lookup 0 subtable" ij.sc
Position2: "'cpsp' Capital Spacing lookup 0 subtable" dx=5 dy=0 dh=10 dv=0
EndChar
StartChar: ij
Encoding: 307 307 491
Width: 530
GlyphClass: 2
Flags: MW
HStem: -200 21G<226 226> 0 21G<73 118 73 73> 502 20G<147 192 192 192 411 457 457 457> 674 70<188 204.5 452 468.5>
VStem: 161 70 425 70
AnchorPoint: "Anchor-14" 0 0 basechar 0
AnchorPoint: "Anchor-13" 0 0 basechar 0
AnchorPoint: "Anchor-12" 464 744 basechar 0
AnchorPoint: "Anchor-11" 113 0 basechar 0
AnchorPoint: "Anchor-10" 328 -195 basechar 0
LayerCount: 2
Back
Fore
SplineSet
198 744 m 0
 222 744 234 727 231 706 c 0
 228 688 215 674 194 674 c 0
 171 674 158 691 161 712 c 0
 164 730 178 744 198 744 c 0
462 744 m 0
 486 744 498 727 495 706 c 0
 492 688 479 674 458 674 c 0
 435 674 422 691 425 712 c 0
 428 730 442 744 462 744 c 0
457 522 m 1
 385 13 l 2
 366 -124 320 -158 226 -200 c 1
 213 -166 l 1
 286 -131 323 -101 340 15 c 2
 411 522 l 1
 457 522 l 1
192 522 m 1
 118 0 l 1
 73 0 l 1
 147 522 l 1
 192 522 l 1
EndSplineSet
Substitution2: "'smcp' Lowercase to Small Capitals lookup 28 subtable" ij.sc
Substitution2: "'aalt' Access All Alternates lookup 0 subtable" ij.sc
EndChar

StartChar: Jcircumflex
Encoding: 308 308 55
Width: 285
GlyphClass: 2
Flags: MW
HStem: 664 20G<188 235 235 235>
VStem: -33 403
AnchorPoint: "Anchor-11" 0 0 basechar 0
AnchorPoint: "Anchor-10" 0 0 basechar 0
AnchorPoint: "Anchor-9" 209 684 basechar 0
AnchorPoint: "Anchor-8" 0 0 basechar 0
LayerCount: 2
Fore
SplineSet
238 843 m 1
 108 763 l 1
 88 788 l 1
 229 887 l 1
 256 887 l 1
 370 788 l 1
 347 763 l 1
 238 843 l 1
152 89 m 1
 135 -25 95 -67 -22 -113 c 1
 -33 -77 l 1
 63 -35 92 1 105 95 c 2
 188 684 l 1
 235 684 l 1
 152 89 l 1
EndSplineSet
Substitution2: "'c2sc' Capitals to Small Capitals lookup 23 subtable" jcircumflex.sc
Substitution2: "'aalt' Access All Alternates lookup 0 subtable" jcircumflex.sc
Position2: "'cpsp' Capital Spacing lookup 0 subtable" dx=5 dy=0 dh=10 dv=0
EndChar
StartChar: jcircumflex
Encoding: 309 309 500
Width: 265
GlyphClass: 2
Flags: MW
HStem: -200 21G<-39 -39> 502 20G<146 192 192 192>
VStem: -52 380
AnchorPoint: "Anchor-14" 0 0 basechar 0
AnchorPoint: "Anchor-13" 0 0 basechar 0
AnchorPoint: "Anchor-12" 202 775 basechar 0
AnchorPoint: "Anchor-11" 0 0 basechar 0
AnchorPoint: "Anchor-10" 63 -195 basechar 0
LayerCount: 2
Back
Fore
SplineSet
68 647 m 1
 47 672 l 1
 189 775 l 1
 216 775 l 1
 328 672 l 1
 306 647 l 1
 197 731 l 1
 68 647 l 1
192 522 m 1
 120 13 l 2
 101 -124 55 -158 -39 -200 c 1
 -52 -166 l 1
 21 -131 58 -101 75 15 c 2
 146 522 l 1
 192 522 l 1
EndSplineSet
Substitution2: "'smcp' Lowercase to Small Capitals lookup 28 subtable" jcircumflex.sc
Substitution2: "'aalt' Access All Alternates lookup 0 subtable" jcircumflex.sc
EndChar
StartChar: Kcommaaccent
Encoding: 310 310 139
Width: 531
GlyphClass: 2
Flags: MW
HStem: 0 21G<78 125 78 78 438 438 438 494> 664 20G<174 221 221 221 516 574 574 574>
VStem: 78 496 210 78<-131.5 -116.5>
AnchorPoint: "Anchor-14" 0 0 basechar 0
AnchorPoint: "Anchor-13" 0 0 basechar 0
AnchorPoint: "Anchor-12" 358 684 basechar 0
AnchorPoint: "Anchor-11" 0 0 basechar 0
AnchorPoint: "Anchor-10" 266 0 basechar 0
LayerCount: 2
Back
Fore
SplineSet
221 684 m 1xe0
 125 0 l 1
 78 0 l 1
 174 684 l 1
 221 684 l 1xe0
574 684 m 1
 236 365 l 1
 494 0 l 1
 438 0 l 1
 180 367 l 1
 516 684 l 1
 574 684 l 1
252 -87 m 0xd0
 274 -87 288 -103 288 -122 c 0
 288 -141 281 -152 259 -189 c 2
 207 -273 l 1
 178 -273 l 1
 228 -159 l 1
 216 -152 210 -139 210 -128 c 0
 210 -105 227 -87 252 -87 c 0xd0
EndSplineSet
Substitution2: "'c2sc' Capitals to Small Capitals lookup 27 subtable" kcommaaccent.sc
Substitution2: "'aalt' Access All Alternates lookup 0 subtable" kcommaaccent.sc
Position2: "'cpsp' Capital Spacing lookup 0 subtable" dx=5 dy=0 dh=10 dv=0
EndChar
StartChar: kcommaaccent
Encoding: 311 311 507
Width: 515
GlyphClass: 2
Flags: MW
HStem: 0 21G<73 118 73 73 382 433 382 382> 494 38<337 392> 721 20G<223 223>
VStem: 187 78<-131.5 -116.5> 442 48<380.5 442>
AnchorPoint: "Anchor-14" 0 0 basechar 0
AnchorPoint: "Anchor-13" 0 0 basechar 0
AnchorPoint: "Anchor-12" 350 735 basechar 0
AnchorPoint: "Anchor-11" 0 0 basechar 0
AnchorPoint: "Anchor-10" 244 0 basechar 0
LayerCount: 2
Back
Fore
SplineSet
223 741 m 1
 172 381 l 1
 230 489 301 532 373 532 c 0
 442 532 490 491 490 423 c 0
 490 337 428 273 314 237 c 1
 433 0 l 1
 382 0 l 1
 258 253 l 1
 379 286 442 341 442 420 c 0
 442 464 420 494 364 494 c 0
 286 494 217 421 161 301 c 1
 118 0 l 1
 73 0 l 1
 177 735 l 1
 223 741 l 1
229 -87 m 0
 251 -87 265 -103 265 -122 c 0
 265 -141 258 -152 236 -189 c 2
 184 -273 l 1
 155 -273 l 1
 205 -159 l 1
 193 -152 187 -139 187 -128 c 0
 187 -105 204 -87 229 -87 c 0
EndSplineSet
Substitution2: "'smcp' Lowercase to Small Capitals lookup 28 subtable" kcommaaccent.sc
Substitution2: "'aalt' Access All Alternates lookup 0 subtable" kcommaaccent.sc
EndChar
StartChar: kgreenlandic
Encoding: 312 312 508
Width: 479
GlyphClass: 2
Flags: MW
HStem: 0 21G<73 118 73 73 376 376 376 430> 502 20G<147 192 192 192 424 481 481 481>
VStem: 73 408
LayerCount: 2
Back
Fore
SplineSet
192 522 m 1
 118 0 l 1
 73 0 l 1
 147 522 l 1
 192 522 l 1
481 522 m 1
 217 274 l 1
 430 0 l 1
 376 0 l 1
 163 275 l 1
 424 522 l 1
 481 522 l 1
EndSplineSet
Substitution2: "'smcp' Lowercase to Small Capitals lookup 28 subtable" kgreenlandic.sc
Substitution2: "'aalt' Access All Alternates lookup 0 subtable" kgreenlandic.sc
EndChar

StartChar: lacute
Encoding: 314 314 195
Width: 279
GlyphClass: 2
Flags: MW
HStem: -11 39<144.5 163.5> 721 20G<217 217>
VStem: 80 44<83 89>
AnchorPoint: "Anchor-11" 98 0 basechar 0
AnchorPoint: "Anchor-10" 0 0 basechar 0
AnchorPoint: "Anchor-9" 0 0 basechar 0
AnchorPoint: "Anchor-8" 0 0 basechar 0
LayerCount: 2
Fore
SplineSet
294 886 m 1
 91 809 l 1
 83 838 l 1
 278 930 l 1
 294 886 l 1
124 83 m 1
 120 46 129 28 160 28 c 0
 174 28 186 32 199 37 c 1
 210 2 l 1
 193 -6 173 -11 154 -11 c 0
 100 -11 70 21 80 89 c 2
 171 735 l 1
 217 741 l 1
 124 83 l 1
EndSplineSet
Substitution2: "'smcp' Lowercase to Small Capitals lookup 24 subtable" lacute.sc
Substitution2: "'aalt' Access All Alternates lookup 0 subtable" lacute.sc
EndChar
StartChar: Lcommaaccent
Encoding: 315 315 147
Width: 465
GlyphClass: 2
Flags: MW
HStem: 0 44<132 404> 664 20G<174 221 221 221>
VStem: 78 340<0 44> 185 78<-131.5 -116.5>
AnchorPoint: "Anchor-14" 375 363 basechar 0
AnchorPoint: "Anchor-13" 257 684 basechar 0
AnchorPoint: "Anchor-12" 198 684 basechar 0
AnchorPoint: "Anchor-11" 0 0 basechar 0
AnchorPoint: "Anchor-10" 241 0 basechar 0
LayerCount: 2
Back
Fore
SplineSet
221 684 m 1xe0
 132 44 l 1
 418 44 l 1
 404 0 l 1
 78 0 l 1
 174 684 l 1
 221 684 l 1xe0
227 -87 m 0xd0
 249 -87 263 -103 263 -122 c 0
 263 -141 256 -152 234 -189 c 2
 182 -273 l 1
 153 -273 l 1
 203 -159 l 1
 191 -152 185 -139 185 -128 c 0
 185 -105 202 -87 227 -87 c 0xd0
EndSplineSet
Substitution2: "'c2sc' Capitals to Small Capitals lookup 27 subtable" lcommaaccent.sc
Substitution2: "'aalt' Access All Alternates lookup 0 subtable" lcommaaccent.sc
Position2: "'cpsp' Capital Spacing lookup 0 subtable" dx=5 dy=0 dh=10 dv=0
EndChar

StartChar: lcommaaccent
Encoding: 316 316 197
Width: 279
GlyphClass: 2
Flags: MW
HStem: -11 39<144.5 163.5> 721 20G<217 217>
VStem: 42 78<-131.5 -116.5> 80 44<83 89>
AnchorPoint: "Anchor-11" 98 0 basechar 0
AnchorPoint: "Anchor-10" 0 0 basechar 0
AnchorPoint: "Anchor-9" 0 0 basechar 0
AnchorPoint: "Anchor-8" 0 0 basechar 0
LayerCount: 2
Fore
SplineSet
124 83 m 1xd0
 120 46 129 28 160 28 c 0
 174 28 186 32 199 37 c 1
 210 2 l 1
 193 -6 173 -11 154 -11 c 0
 100 -11 70 21 80 89 c 2
 171 735 l 1
 217 741 l 1
 124 83 l 1xd0
84 -87 m 0xe0
 106 -87 120 -103 120 -122 c 0
 120 -141 113 -152 91 -189 c 2
 39 -273 l 1
 10 -273 l 1
 60 -159 l 1
 48 -152 42 -139 42 -128 c 0
 42 -105 59 -87 84 -87 c 0xe0
EndSplineSet
Substitution2: "'smcp' Lowercase to Small Capitals lookup 24 subtable" lcommaaccent.sc
Substitution2: "'aalt' Access All Alternates lookup 0 subtable" lcommaaccent.sc
EndChar
StartChar: Lcaron
Encoding: 317 317 145
Width: 465
GlyphClass: 2
Flags: MW
HStem: 0 44<132 404> 511 20G<275 275> 664 20G<174 221 221 221> 669 20G<314 314>
VStem: 78 340<0 44>
AnchorPoint: "Anchor-14" 375 363 basechar 0
AnchorPoint: "Anchor-13" 257 684 basechar 0
AnchorPoint: "Anchor-12" 198 684 basechar 0
AnchorPoint: "Anchor-11" 0 0 basechar 0
AnchorPoint: "Anchor-10" 241 0 basechar 0
LayerCount: 2
Back
Fore
SplineSet
314 689 m 1xd8
 359 683 l 1
 304 527 l 1
 275 531 l 1
 314 689 l 1xd8
221 684 m 1xe8
 132 44 l 1
 418 44 l 1
 404 0 l 1
 78 0 l 1
 174 684 l 1
 221 684 l 1xe8
EndSplineSet
Substitution2: "'c2sc' Capitals to Small Capitals lookup 27 subtable" lcaron.sc
Substitution2: "'aalt' Access All Alternates lookup 0 subtable" lcaron.sc
Position2: "'cpsp' Capital Spacing lookup 0 subtable" dx=5 dy=0 dh=10 dv=0
EndChar

StartChar: lcaron
Encoding: 318 318 196
Width: 279
GlyphClass: 2
Flags: MW
HStem: -11 39<144.5 163.5> 714 20G<347 347> 720 20G<302 302> 721 20G<217 217>
VStem: 80 44<83 89>
AnchorPoint: "Anchor-11" 98 0 basechar 0
AnchorPoint: "Anchor-10" 0 0 basechar 0
AnchorPoint: "Anchor-9" 0 0 basechar 0
AnchorPoint: "Anchor-8" 0 0 basechar 0
LayerCount: 2
Fore
SplineSet
124 83 m 1x98
 120 46 129 28 160 28 c 0
 174 28 186 32 199 37 c 1
 210 2 l 1
 193 -6 173 -11 154 -11 c 0
 100 -11 70 21 80 89 c 2
 171 735 l 1
 217 741 l 1
 124 83 l 1x98
347 734 m 1xc8
 292 578 l 1
 263 582 l 1
 302 740 l 1xa8
 347 734 l 1xc8
EndSplineSet
Substitution2: "'smcp' Lowercase to Small Capitals lookup 24 subtable" lcaron.sc
Substitution2: "'aalt' Access All Alternates lookup 0 subtable" lcaron.sc
EndChar

StartChar: Ldot
Encoding: 319 319 62
Width: 465
GlyphClass: 2
Flags: MW
HStem: 0 44<132 404> 328 70<367 383.5> 664 20G<174 221 221 221>
VStem: 78 340<0 44> 340 70
AnchorPoint: "Anchor-11" 244 0 basechar 0
AnchorPoint: "Anchor-10" 0 0 basechar 0
AnchorPoint: "Anchor-9" 198 684 basechar 0
AnchorPoint: "Anchor-8" 0 0 basechar 0
LayerCount: 2
Fore
SplineSet
132 44 m 1xf0
 418 44 l 1
 404 0 l 1
 78 0 l 1
 174 684 l 1
 221 684 l 1
 132 44 l 1xf0
377 398 m 0xe8
 401 398 413 381 410 360 c 0
 407 342 394 328 373 328 c 0
 350 328 337 345 340 366 c 0
 343 384 357 398 377 398 c 0xe8
EndSplineSet
Ligature2: "Ligature Substitution lookup 29 subtable" L periodcentered
Substitution2: "'c2sc' Capitals to Small Capitals lookup 23 subtable" ldot.sc
Substitution2: "'aalt' Access All Alternates lookup 0 subtable" ldot.sc
Position2: "'cpsp' Capital Spacing lookup 0 subtable" dx=5 dy=0 dh=10 dv=0
EndChar

StartChar: ldot
Encoding: 320 320 198
Width: 290
GlyphClass: 2
Flags: MW
HStem: -11 39<106.5 125.5> 341 70<238 254.5> 721 20G<179 179>
VStem: 42 45<83 89> 211 70
AnchorPoint: "Anchor-11" 60 0 basechar 0
AnchorPoint: "Anchor-10" 0 0 basechar 0
AnchorPoint: "Anchor-9" 0 0 basechar 0
AnchorPoint: "Anchor-8" 0 0 basechar 0
LayerCount: 2
Fore
SplineSet
87 83 m 2
 82 46 91 28 122 28 c 0
 136 28 149 32 161 37 c 1
 172 2 l 1
 155 -6 135 -11 116 -11 c 0
 62 -11 32 21 42 89 c 2
 133 735 l 1
 179 741 l 1
 87 83 l 2
248 411 m 0
 272 411 284 394 281 373 c 0
 278 355 265 341 244 341 c 0
 221 341 208 358 211 379 c 0
 214 397 228 411 248 411 c 0
EndSplineSet
Ligature2: "Ligature Substitution lookup 29 subtable" l periodcentered
Substitution2: "'smcp' Lowercase to Small Capitals lookup 24 subtable" ldot.sc
Substitution2: "'aalt' Access All Alternates lookup 0 subtable" ldot.sc
EndChar
StartChar: Lslash
Encoding: 321 321 151
Width: 475
GlyphClass: 2
Flags: MW
HStem: 0 44<142 415> 664 20G<185 232 232 232>
VStem: 43 386<44 280>
LayerCount: 2
Back
Fore
SplineSet
429 44 m 1
 415 0 l 1
 88 0 l 1
 130 289 l 1
 59 248 l 1
 43 280 l 1
 136 333 l 1
 185 684 l 1
 232 684 l 1
 187 363 l 1
 391 481 l 1
 407 449 l 1
 181 318 l 1
 142 44 l 1
 429 44 l 1
EndSplineSet
Substitution2: "'c2sc' Capitals to Small Capitals lookup 27 subtable" lslash.sc
Substitution2: "'aalt' Access All Alternates lookup 0 subtable" lslash.sc
Position2: "'cpsp' Capital Spacing lookup 0 subtable" dx=5 dy=0 dh=10 dv=0
EndChar
StartChar: lslash
Encoding: 322 322 527
Width: 286
GlyphClass: 2
Flags: MW
HStem: -11 41<145.5 164.5> 721 20G<218 218>
VStem: 81 44<83 89>
AnchorPoint: "Anchor-14" 287 376 basechar 0
AnchorPoint: "Anchor-13" 242 735 basechar 0
AnchorPoint: "Anchor-12" 195 735 basechar 0
AnchorPoint: "Anchor-11" 0 0 basechar 0
AnchorPoint: "Anchor-10" 149 0 basechar 0
LayerCount: 2
Back
Fore
SplineSet
161 30 m 0
 175 30 189 34 200 38 c 1
 211 2 l 1
 194 -6 174 -11 155 -11 c 0
 101 -11 71 21 81 89 c 2
 115 335 l 1
 57 302 l 1
 43 335 l 1
 122 380 l 1
 172 735 l 1
 218 741 l 1
 171 408 l 1
 279 470 l 1
 293 436 l 1
 165 363 l 1
 125 83 l 2
 121 48 130 30 161 30 c 0
EndSplineSet
Substitution2: "'smcp' Lowercase to Small Capitals lookup 28 subtable" lslash.sc
Substitution2: "'aalt' Access All Alternates lookup 0 subtable" lslash.sc
EndChar

StartChar: Nacute
Encoding: 323 323 66
Width: 667
GlyphClass: 2
Flags: MW
HStem: 0 46<485 485 485 516 456 485> 640 44<205 205>
VStem: 78 534
AnchorPoint: "Anchor-11" 297 0 basechar 0
AnchorPoint: "Anchor-10" 0 0 basechar 0
AnchorPoint: "Anchor-9" 401 684 basechar 0
AnchorPoint: "Anchor-8" 0 0 basechar 0
LayerCount: 2
Fore
SplineSet
526 836 m 1
 323 759 l 1
 315 788 l 1
 510 880 l 1
 526 836 l 1
516 0 m 1
 456 0 l 1
 205 640 l 1
 204 585 197 526 180 405 c 2
 123 0 l 1
 78 0 l 1
 174 684 l 1
 235 684 l 1
 485 46 l 1
 488 101 494 164 506 254 c 2
 567 684 l 1
 612 684 l 1
 516 0 l 1
EndSplineSet
Substitution2: "'c2sc' Capitals to Small Capitals lookup 23 subtable" nacute.sc
Substitution2: "'locl' Localized Forms in Latin lookup 7 subtable" Nacute.loclPLK
AlternateSubs2: "'aalt' Access All Alternates lookup 1 subtable" Nacute.loclPLK nacute.sc
Position2: "'cpsp' Capital Spacing lookup 0 subtable" dx=5 dy=0 dh=10 dv=0
EndChar

StartChar: nacute
Encoding: 324 324 202
Width: 581
GlyphClass: 2
Flags: MW
HStem: 0 21G<73 118 73 73 394 440 394 394> 493 39<335 396> 502 20G<147 185 185 185>
VStem: 448.86 46.14
AnchorPoint: "Anchor-11" 252 0 basechar 0
AnchorPoint: "Anchor-10" 137 522 basechar 0
AnchorPoint: "Anchor-9" 333 522 basechar 0
AnchorPoint: "Anchor-8" 0 0 basechar 0
LayerCount: 2
Fore
SplineSet
454 732 m 1xd0
 254 648 l 1
 242 676 l 1
 439 776 l 1
 454 732 l 1xd0
374 532 m 0
 466 532 507 472 492 371 c 2
 440 0 l 1
 394 0 l 1
 446 367 l 2
 459 457 429 493 363 493 c 0xd0
 285 493 217 415 162 312 c 1
 118 0 l 1
 73 0 l 1
 147 522 l 1
 185 522 l 1xb0
 170 382 l 1
 223 476 296 532 374 532 c 0
EndSplineSet
Substitution2: "'smcp' Lowercase to Small Capitals lookup 24 subtable" nacute.sc
Substitution2: "'locl' Localized Forms in Latin lookup 7 subtable" nacute.loclPLK
AlternateSubs2: "'aalt' Access All Alternates lookup 1 subtable" nacute.loclPLK nacute.sc
EndChar

StartChar: Ncommaaccent
Encoding: 325 325 68
Width: 667
GlyphClass: 2
Flags: MW
HStem: 0 46<485 485 485 516 456 485> 640 44<205 205>
VStem: 78 534 241 78<-131.5 -116.5>
AnchorPoint: "Anchor-11" 297 0 basechar 0
AnchorPoint: "Anchor-10" 0 0 basechar 0
AnchorPoint: "Anchor-9" 401 684 basechar 0
AnchorPoint: "Anchor-8" 0 0 basechar 0
LayerCount: 2
Fore
SplineSet
516 0 m 1xe0
 456 0 l 1
 205 640 l 1
 204 585 197 526 180 405 c 2
 123 0 l 1
 78 0 l 1
 174 684 l 1
 235 684 l 1
 485 46 l 1
 488 101 494 164 506 254 c 2
 567 684 l 1
 612 684 l 1
 516 0 l 1xe0
283 -87 m 0xd0
 305 -87 319 -103 319 -122 c 0
 319 -141 312 -152 290 -189 c 2
 238 -273 l 1
 209 -273 l 1
 259 -159 l 1
 247 -152 241 -139 241 -128 c 0
 241 -105 258 -87 283 -87 c 0xd0
EndSplineSet
Substitution2: "'c2sc' Capitals to Small Capitals lookup 23 subtable" ncommaaccent.sc
Substitution2: "'aalt' Access All Alternates lookup 0 subtable" ncommaaccent.sc
Position2: "'cpsp' Capital Spacing lookup 0 subtable" dx=5 dy=0 dh=10 dv=0
EndChar
StartChar: ncommaaccent
Encoding: 326 326 540
Width: 581
GlyphClass: 2
Flags: MW
HStem: 0 21G<73 118 73 73 394 440 394 394> 493 39<334 397> 502 20G<147 185 185 185>
VStem: 200 78<-131.5 -116.5> 448.54 46.34
AnchorPoint: "Anchor-14" 0 0 basechar 0
AnchorPoint: "Anchor-13" 0 0 basechar 0
AnchorPoint: "Anchor-12" 328 522 basechar 0
AnchorPoint: "Anchor-11" 0 0 basechar 0
AnchorPoint: "Anchor-10" 257 0 basechar 0
LayerCount: 2
Back
Fore
SplineSet
374 532 m 0xc8
 463 532 507 472 492 369 c 2
 440 0 l 1
 394 0 l 1
 446 367 l 2
 458 455 428 493 366 493 c 0xc8
 285 493 217 415 162 312 c 1
 118 0 l 1
 73 0 l 1
 147 522 l 1
 185 522 l 1xa8
 170 382 l 1
 223 476 294 532 374 532 c 0xc8
242 -87 m 0xd8
 264 -87 278 -103 278 -122 c 0
 278 -141 271 -152 249 -189 c 2
 197 -273 l 1
 168 -273 l 1
 218 -159 l 1
 206 -152 200 -139 200 -128 c 0
 200 -105 217 -87 242 -87 c 0xd8
EndSplineSet
Substitution2: "'smcp' Lowercase to Small Capitals lookup 28 subtable" ncommaaccent.sc
Substitution2: "'aalt' Access All Alternates lookup 0 subtable" ncommaaccent.sc
EndChar
StartChar: Ncaron
Encoding: 327 327 159
Width: 667
GlyphClass: 2
Flags: MW
HStem: 0 46<485 485 485 516 456 485> 640 44<205 205>
VStem: 78 534
AnchorPoint: "Anchor-14" 0 0 basechar 0
AnchorPoint: "Anchor-13" 0 0 basechar 0
AnchorPoint: "Anchor-12" 422 880 basechar 0
AnchorPoint: "Anchor-11" 0 0 basechar 0
AnchorPoint: "Anchor-10" 297 0 basechar 0
LayerCount: 2
Back
Fore
SplineSet
541 880 m 1
 560 855 l 1
 420 757 l 1
 393 757 l 1
 279 855 l 1
 302 879 l 1
 411 801 l 1
 541 880 l 1
612 684 m 1
 516 0 l 1
 456 0 l 1
 205 640 l 1
 204 585 197 526 180 405 c 2
 123 0 l 1
 78 0 l 1
 174 684 l 1
 235 684 l 1
 485 46 l 1
 488 101 494 164 506 254 c 2
 567 684 l 1
 612 684 l 1
EndSplineSet
Substitution2: "'c2sc' Capitals to Small Capitals lookup 27 subtable" ncaron.sc
Substitution2: "'aalt' Access All Alternates lookup 0 subtable" ncaron.sc
Position2: "'cpsp' Capital Spacing lookup 0 subtable" dx=5 dy=0 dh=10 dv=0
EndChar
StartChar: ncaron
Encoding: 328 328 538
Width: 581
GlyphClass: 2
Flags: MW
HStem: 0 21G<73 118 73 73 394 440 394 394> 493 39<334 397> 502 20G<147 185 185 185> 719 20G<217 217 498 498>
VStem: 448.54 46.34
AnchorPoint: "Anchor-14" 0 0 basechar 0
AnchorPoint: "Anchor-13" 0 0 basechar 0
AnchorPoint: "Anchor-12" 360 763 basechar 0
AnchorPoint: "Anchor-11" 0 0 basechar 0
AnchorPoint: "Anchor-10" 257 0 basechar 0
LayerCount: 2
Back
Fore
SplineSet
479 763 m 1xd8
 498 739 l 1
 357 635 l 1
 330 635 l 1
 217 739 l 1
 239 763 l 1
 348 679 l 1
 479 763 l 1xd8
374 532 m 0
 463 532 507 472 492 369 c 2
 440 0 l 1
 394 0 l 1
 446 367 l 2
 458 455 428 493 366 493 c 0xd8
 285 493 217 415 162 312 c 1
 118 0 l 1
 73 0 l 1
 147 522 l 1
 185 522 l 1xb8
 170 382 l 1
 223 476 294 532 374 532 c 0
EndSplineSet
Substitution2: "'smcp' Lowercase to Small Capitals lookup 28 subtable" ncaron.sc
Substitution2: "'aalt' Access All Alternates lookup 0 subtable" ncaron.sc
EndChar

StartChar: napostrophe
Encoding: 329 329 203
Width: 581
GlyphClass: 2
Flags: MW
HStem: 0 21G<73 118 73 73 394 440 394 394> 493 39<335 396> 502 20G<147 185 185 185> 721 20G<164.5 188.5>
VStem: 135 78<704 704> 448.86 46.14
AnchorPoint: "Anchor-11" 252 0 basechar 0
AnchorPoint: "Anchor-10" 137 522 basechar 0
AnchorPoint: "Anchor-9" 333 522 basechar 0
AnchorPoint: "Anchor-8" 0 0 basechar 0
LayerCount: 2
Fore
SplineSet
176 741 m 0xdc
 201 741 214 723 213 705 c 0
 212 687 206 676 186 640 c 2
 137 551 l 1
 107 551 l 1
 155 670 l 1
 142 677 135 689 135 704 c 0
 136 725 153 741 176 741 c 0xdc
374 532 m 0
 466 532 507 472 492 371 c 2
 440 0 l 1
 394 0 l 1
 446 367 l 2
 459 457 429 493 363 493 c 0xdc
 285 493 217 415 162 312 c 1
 118 0 l 1
 73 0 l 1
 147 522 l 1
 185 522 l 1xbc
 170 382 l 1
 223 476 296 532 374 532 c 0
EndSplineSet
Substitution2: "'smcp' Lowercase to Small Capitals lookup 24 subtable" napostrophe.sc
Substitution2: "'aalt' Access All Alternates lookup 0 subtable" napostrophe.sc
EndChar

StartChar: Eng
Encoding: 330 330 69
Width: 667
GlyphClass: 2
Flags: MW
HStem: -200 21G<359 359> 0 21G<78 123 78 78 456 476 456 456 516 516> 640 44<205 205>
VStem: 78 534
AnchorPoint: "Anchor-11" 297 0 basechar 0
AnchorPoint: "Anchor-10" 0 0 basechar 0
AnchorPoint: "Anchor-9" 401 684 basechar 0
AnchorPoint: "Anchor-8" 0 0 basechar 0
LayerCount: 2
Fore
SplineSet
612 684 m 1
 516 0 l 1
 497 -123 454 -160 359 -200 c 1
 347 -165 l 1
 420 -132 458 -104 476 0 c 1
 456 0 l 1
 205 640 l 1
 204 585 197 526 180 405 c 2
 123 0 l 1
 78 0 l 1
 174 684 l 1
 235 684 l 1
 485 46 l 1
 488 101 494 164 506 254 c 2
 567 684 l 1
 612 684 l 1
EndSplineSet
Substitution2: "'c2sc' Capitals to Small Capitals lookup 23 subtable" eng.sc
Substitution2: "'aalt' Access All Alternates lookup 0 subtable" eng.sc
Position2: "'cpsp' Capital Spacing lookup 0 subtable" dx=5 dy=0 dh=10 dv=0
EndChar

StartChar: eng
Encoding: 331 331 206
Width: 581
GlyphClass: 2
Flags: MW
HStem: -200 21G<283 283> 0 21G<73 118 73 73> 493 39<335 396> 502 20G<147 185 185 185>
VStem: 448.86 45.85
LayerCount: 2
Fore
SplineSet
374 532 m 0xe8
 466 532 506 472 492 371 c 2
 441 12 l 2
 421 -124 377 -158 283 -200 c 1
 269 -166 l 1
 342 -131 381 -101 396 9 c 2
 446 367 l 2
 459 457 429 493 363 493 c 0xe8
 287 493 217 415 162 312 c 1
 118 0 l 1
 73 0 l 1
 147 522 l 1
 185 522 l 1xd8
 170 380 l 1
 222 474 296 532 374 532 c 0xe8
EndSplineSet
Substitution2: "'smcp' Lowercase to Small Capitals lookup 24 subtable" eng.sc
Substitution2: "'aalt' Access All Alternates lookup 0 subtable" eng.sc
EndChar

StartChar: Omacron
Encoding: 332 332 78
Width: 689
GlyphClass: 2
Flags: MW
HStem: -11 42<253.5 419 253.5 432.5> 653 41<295.5 460> 805 39<295 530 301 524>
VStem: 75 49<180.5 334 180.5 347> 588 49<352.5 505>
AnchorPoint: "Anchor-11" 0 0 basechar 0
AnchorPoint: "Anchor-10" 75 524 basechar 0
AnchorPoint: "Anchor-9" 394 684 basechar 0
AnchorPoint: "Anchor-8" 0 0 basechar 0
LayerCount: 2
Fore
SplineSet
295 805 m 1
 301 844 l 1
 530 844 l 1
 524 805 l 1
 295 805 l 1
404 694 m 0
 546 694 637 602 637 425 c 0
 637 247 556 -11 309 -11 c 0
 166 -11 75 85 75 261 c 0
 75 433 159 694 404 694 c 0
402 653 m 0
 189 653 124 412 124 256 c 0
 124 105 197 31 310 31 c 0
 528 31 588 275 588 430 c 0
 588 580 518 653 402 653 c 0
EndSplineSet
Substitution2: "'c2sc' Capitals to Small Capitals lookup 23 subtable" omacron.sc
Substitution2: "'aalt' Access All Alternates lookup 0 subtable" omacron.sc
Position2: "'cpsp' Capital Spacing lookup 0 subtable" dx=5 dy=0 dh=10 dv=0
EndChar

StartChar: Obreve
Encoding: 334 334 73
Width: 689
GlyphClass: 2
Flags: MW
HStem: -11 42<253.5 419 253.5 432.5> 653 41<295.5 460> 767 39<380 427 380 434.5>
VStem: 75 49<180.5 334 180.5 347> 588 49<352.5 505>
AnchorPoint: "Anchor-11" 0 0 basechar 0
AnchorPoint: "Anchor-10" 75 524 basechar 0
AnchorPoint: "Anchor-9" 394 684 basechar 0
AnchorPoint: "Anchor-8" 0 0 basechar 0
LayerCount: 2
Fore
SplineSet
403 767 m 0
 336 767 292 809 291 861 c 1
 322 865 l 1
 330 830 357 806 403 806 c 0
 451 806 486 832 504 868 c 1
 536 858 l 1
 520 806 466 767 403 767 c 0
404 694 m 0
 546 694 637 602 637 425 c 0
 637 247 556 -11 309 -11 c 0
 166 -11 75 85 75 261 c 0
 75 433 159 694 404 694 c 0
402 653 m 0
 189 653 124 412 124 256 c 0
 124 105 197 31 310 31 c 0
 528 31 588 275 588 430 c 0
 588 580 518 653 402 653 c 0
EndSplineSet
Substitution2: "'c2sc' Capitals to Small Capitals lookup 23 subtable" obreve.sc
Substitution2: "'aalt' Access All Alternates lookup 0 subtable" obreve.sc
Position2: "'cpsp' Capital Spacing lookup 0 subtable" dx=5 dy=0 dh=10 dv=0
EndChar

StartChar: obreve
Encoding: 335 335 210
Width: 565
GlyphClass: 2
Flags: MW
HStem: -11 40<203 327 203 344.5> 493 39<237.5 362.5> 656 40<318 365 318 372.5>
VStem: 62 47<141.5 252 141.5 265.5> 231 33<729.5 765> 456 48<269 381.5>
AnchorPoint: "Anchor-11" 0 0 basechar 0
AnchorPoint: "Anchor-10" 0 0 basechar 0
AnchorPoint: "Anchor-9" 320 522 basechar 0
AnchorPoint: "Anchor-8" 0 0 basechar 0
LayerCount: 2
Fore
SplineSet
341 656 m 0
 274 656 231 699 231 760 c 1
 264 765 l 1
 270 719 295 696 341 696 c 0
 389 696 426 722 445 767 c 1
 476 757 l 1
 459 696 404 656 341 656 c 0
319 532 m 0
 436 532 504 458 504 325 c 0
 504 195 442 -11 247 -11 c 0
 129 -11 62 68 62 199 c 0
 62 332 126 532 319 532 c 0
318 493 m 0
 157 493 109 308 109 196 c 0
 109 87 159 29 247 29 c 0
 407 29 456 211 456 327 c 0
 456 436 407 493 318 493 c 0
EndSplineSet
Substitution2: "'smcp' Lowercase to Small Capitals lookup 24 subtable" obreve.sc
Substitution2: "'aalt' Access All Alternates lookup 0 subtable" obreve.sc
EndChar
StartChar: Ohungarumlaut
Encoding: 336 336 196
Width: 689
GlyphClass: 2
Flags: MW
HStem: -11 42<253.5 419 253.5 432.5> 653 41<295.5 460>
VStem: 75 49<182 335.5 182 347> 588 49<351 503.5>
AnchorPoint: "Anchor-14" 0 0 basechar 0
AnchorPoint: "Anchor-13" 598 684 basechar 0
AnchorPoint: "Anchor-12" 405 684 basechar 0
AnchorPoint: "Anchor-11" 0 0 basechar 0
AnchorPoint: "Anchor-10" 307 0 basechar 0
LayerCount: 2
Back
Fore
SplineSet
549 930 m 1
 590 907 l 1
 483 771 l 1
 453 786 l 1
 549 930 l 1
428 929 m 1
 468 907 l 1
 370 775 l 1
 340 790 l 1
 428 929 l 1
404 694 m 0
 546 694 637 602 637 425 c 0
 637 247 556 -11 309 -11 c 0
 166 -11 75 85 75 261 c 0
 75 433 159 694 404 694 c 0
402 653 m 0
 189 653 124 412 124 259 c 0
 124 105 197 31 310 31 c 0
 528 31 588 275 588 427 c 0
 588 580 518 653 402 653 c 0
EndSplineSet
Substitution2: "'c2sc' Capitals to Small Capitals lookup 27 subtable" ohungarumlaut.sc
Substitution2: "'aalt' Access All Alternates lookup 0 subtable" ohungarumlaut.sc
Position2: "'cpsp' Capital Spacing lookup 0 subtable" dx=5 dy=0 dh=10 dv=0
EndChar
StartChar: ohungarumlaut
Encoding: 337 337 576
Width: 565
GlyphClass: 2
Flags: MW
HStem: -11 40<203 327 203 344.5> 493 39<237.5 362.5>
VStem: 62 47<141.5 252 141.5 265.5> 456 48<269 381.5>
AnchorPoint: "Anchor-14" 0 0 basechar 0
AnchorPoint: "Anchor-13" 497 522 basechar 0
AnchorPoint: "Anchor-12" 320 522 basechar 0
AnchorPoint: "Anchor-11" 0 0 basechar 0
AnchorPoint: "Anchor-10" 247 0 basechar 0
LayerCount: 2
Back
Fore
SplineSet
471 804 m 1
 512 781 l 1
 405 645 l 1
 375 660 l 1
 471 804 l 1
350 803 m 1
 390 781 l 1
 292 649 l 1
 262 664 l 1
 350 803 l 1
319 532 m 0
 436 532 504 458 504 325 c 0
 504 195 442 -11 247 -11 c 0
 129 -11 62 68 62 199 c 0
 62 332 126 532 319 532 c 0
318 493 m 0
 157 493 109 308 109 196 c 0
 109 87 159 29 247 29 c 0
 407 29 456 211 456 327 c 0
 456 436 407 493 318 493 c 0
EndSplineSet
Substitution2: "'smcp' Lowercase to Small Capitals lookup 28 subtable" ohungarumlaut.sc
Substitution2: "'aalt' Access All Alternates lookup 0 subtable" ohungarumlaut.sc
EndChar

StartChar: OE
Encoding: 338 338 82
Width: 862
GlyphClass: 2
Flags: MW
HStem: -11 42<247.5 309.5> 0 31<368 403 247.5 778 368 368> 0 41<450 778> 336 41<615 775 610 780> 643 41<530 856 530 530> 653 31<292 868> 653 41<292 404 277.5 445.5>
VStem: 75 49<180 332 180 344.5> 569 48<418 476.5 418 506.5>
LayerCount: 2
Fore
SplineSet
856 643 m 1x3980
 530 643 l 1
 585 600 617 527 617 426 c 0
 617 410 616 394 615 377 c 1
 780 377 l 1
 775 336 l 1
 610 336 l 1
 594 226 547 105 450 41 c 1
 785 41 l 1
 778 0 l 1
 368 0 l 1x3980
 345 -7 321 -11 298 -11 c 0
 165 -11 75 85 75 260 c 0
 75 429 163 694 392 694 c 0x9380
 416 694 439 691 459 684 c 1
 868 684 l 1
 856 643 l 1x3980
569 433 m 0x5580
 569 580 499 653 392 653 c 0
 192 653 124 409 124 255 c 0
 124 105 195 31 300 31 c 0
 506 31 569 283 569 433 c 0x5580
EndSplineSet
Substitution2: "'c2sc' Capitals to Small Capitals lookup 23 subtable" oe.sc
Substitution2: "'aalt' Access All Alternates lookup 0 subtable" oe.sc
Position2: "'cpsp' Capital Spacing lookup 0 subtable" dx=5 dy=0 dh=10 dv=0
EndChar
StartChar: oe
Encoding: 339 339 592
Width: 903
GlyphClass: 2
Flags: MW
HStem: -11 40<203 300> 209 37 493 39<237.5 362.5 653.5 743.5>
VStem: 62 47<141.5 252 141.5 265.5> 456 41 815 48<358.5 430.5>
AnchorPoint: "Anchor-14" 0 0 basechar 0
AnchorPoint: "Anchor-13" 0 0 basechar 0
AnchorPoint: "Anchor-12" 489 522 basechar 0
AnchorPoint: "Anchor-11" 0 0 basechar 0
AnchorPoint: "Anchor-10" 447 0 basechar 0
LayerCount: 2
Back
Fore
SplineSet
863 409 m 0
 863 280 717 224 495 209 c 1
 494 199 l 1
 494 80 552 30 635 30 c 0
 694 30 736 49 785 84 c 1
 807 51 l 1
 754 12 700 -11 633 -11 c 0
 537 -11 479 43 456 134 c 1
 418 54 353 -11 247 -11 c 0
 129 -11 62 68 62 199 c 0
 62 332 126 532 319 532 c 0
 416 532 473 480 493 387 c 1
 533 470 600 532 707 532 c 0
 805 532 863 480 863 409 c 0
706 493 m 0
 573 493 510 363 497 246 c 1
 706 262 815 310 815 407 c 0
 815 454 781 493 706 493 c 0
247 29 m 0
 407 29 456 211 456 327 c 0
 456 436 407 493 318 493 c 0
 157 493 109 308 109 196 c 0
 109 87 159 29 247 29 c 0
EndSplineSet
Substitution2: "'smcp' Lowercase to Small Capitals lookup 28 subtable" oe.sc
Substitution2: "'aalt' Access All Alternates lookup 0 subtable" oe.sc
EndChar
StartChar: racute
Encoding: 341 341 604
Width: 368
GlyphClass: 2
Flags: MW
HStem: 0 21G<73 118 73 73> 489 43<301.5 344.5> 502 20G<147 186 186 186> 525 7
VStem: 73 328
AnchorPoint: "Anchor-14" 0 0 basechar 0
AnchorPoint: "Anchor-13" 0 0 basechar 0
AnchorPoint: "Anchor-12" 297 776 basechar 0
AnchorPoint: "Anchor-11" 0 0 basechar 0
AnchorPoint: "Anchor-10" 95 0 basechar 0
LayerCount: 2
Back
Fore
SplineSet
386 776 m 1xc8
 401 732 l 1
 201 648 l 1
 189 676 l 1
 386 776 l 1xc8
341 532 m 0
 361 532 379 529 390 525 c 1x98
 378 483 l 1
 367 486 352 489 337 489 c 0xc8
 256 489 208 419 162 305 c 1
 118 0 l 1
 73 0 l 1
 147 522 l 1
 186 522 l 1xa8
 170 388 l 1
 209 478 262 532 341 532 c 0
EndSplineSet
Substitution2: "'smcp' Lowercase to Small Capitals lookup 28 subtable" racute.sc
Substitution2: "'aalt' Access All Alternates lookup 0 subtable" racute.sc
EndChar
StartChar: Rcommaaccent
Encoding: 342 342 221
Width: 583
GlyphClass: 2
Flags: MW
HStem: 0 21G<78 125 78 78 457 510 457 457> 313 40<174 299 299 318 169 299> 643 41<215 333 333 335 215 215>
VStem: 212 78<-131.5 -116.5> 497 50<489 566.5>
AnchorPoint: "Anchor-14" 0 0 basechar 0
AnchorPoint: "Anchor-13" 0 0 basechar 0
AnchorPoint: "Anchor-12" 351 684 basechar 0
AnchorPoint: "Anchor-11" 0 0 basechar 0
AnchorPoint: "Anchor-10" 268 0 basechar 0
LayerCount: 2
Back
Fore
SplineSet
547 528 m 0
 547 442 503 350 364 320 c 1
 510 0 l 1
 457 0 l 1
 318 313 l 1
 169 313 l 1
 125 0 l 1
 78 0 l 1
 174 684 l 1
 333 684 l 2
 480 684 547 631 547 528 c 0
174 353 m 1
 299 353 l 2
 453 353 497 450 497 528 c 0
 497 605 451 643 335 643 c 2
 215 643 l 1
 174 353 l 1
254 -87 m 0
 276 -87 290 -103 290 -122 c 0
 290 -141 283 -152 261 -189 c 2
 209 -273 l 1
 180 -273 l 1
 230 -159 l 1
 218 -152 212 -139 212 -128 c 0
 212 -105 229 -87 254 -87 c 0
EndSplineSet
Substitution2: "'c2sc' Capitals to Small Capitals lookup 27 subtable" rcommaaccent.sc
Substitution2: "'aalt' Access All Alternates lookup 0 subtable" rcommaaccent.sc
Position2: "'cpsp' Capital Spacing lookup 0 subtable" dx=5 dy=0 dh=10 dv=0
EndChar
StartChar: rcommaaccent
Encoding: 343 343 607
Width: 368
GlyphClass: 2
Flags: MW
HStem: 0 21G<73 118 73 73> 489 43<301.5 344.5> 502 20G<147 186 186 186> 525 7
VStem: 6 384 38 78<-131.5 -116.5>
AnchorPoint: "Anchor-14" 0 0 basechar 0
AnchorPoint: "Anchor-13" 0 0 basechar 0
AnchorPoint: "Anchor-12" 268 522 basechar 0
AnchorPoint: "Anchor-11" 0 0 basechar 0
AnchorPoint: "Anchor-10" 95 0 basechar 0
LayerCount: 2
Back
Fore
SplineSet
341 532 m 0xc8
 361 532 379 529 390 525 c 1x98
 378 483 l 1
 367 486 352 489 337 489 c 0xc8
 256 489 208 419 162 305 c 1
 118 0 l 1
 73 0 l 1
 147 522 l 1
 186 522 l 1xa8
 170 388 l 1
 209 478 262 532 341 532 c 0xc8
80 -87 m 0xc4
 102 -87 116 -103 116 -122 c 0
 116 -141 109 -152 87 -189 c 2
 35 -273 l 1
 6 -273 l 1
 56 -159 l 1
 44 -152 38 -139 38 -128 c 0
 38 -105 55 -87 80 -87 c 0xc4
EndSplineSet
Substitution2: "'smcp' Lowercase to Small Capitals lookup 28 subtable" rcommaaccent.sc
Substitution2: "'aalt' Access All Alternates lookup 0 subtable" rcommaaccent.sc
EndChar
StartChar: Rcaron
Encoding: 344 344 220
Width: 583
GlyphClass: 2
Flags: MW
HStem: 0 21G<78 125 78 78 457 510 457 457> 313 40<174 299 299 318 169 299> 643 41<215 333 333 335 215 215>
VStem: 497 50<489 566.5>
AnchorPoint: "Anchor-14" 0 0 basechar 0
AnchorPoint: "Anchor-13" 0 0 basechar 0
AnchorPoint: "Anchor-12" 372 880 basechar 0
AnchorPoint: "Anchor-11" 0 0 basechar 0
AnchorPoint: "Anchor-10" 268 0 basechar 0
LayerCount: 2
Back
Fore
SplineSet
370 757 m 1
 343 757 l 1
 229 855 l 1
 252 879 l 1
 361 801 l 1
 491 880 l 1
 510 855 l 1
 370 757 l 1
547 528 m 0
 547 442 503 350 364 320 c 1
 510 0 l 1
 457 0 l 1
 318 313 l 1
 169 313 l 1
 125 0 l 1
 78 0 l 1
 174 684 l 1
 333 684 l 2
 480 684 547 631 547 528 c 0
174 353 m 1
 299 353 l 2
 453 353 497 450 497 528 c 0
 497 605 451 643 335 643 c 2
 215 643 l 1
 174 353 l 1
EndSplineSet
Substitution2: "'c2sc' Capitals to Small Capitals lookup 27 subtable" rcaron.sc
Substitution2: "'aalt' Access All Alternates lookup 0 subtable" rcaron.sc
Position2: "'cpsp' Capital Spacing lookup 0 subtable" dx=5 dy=0 dh=10 dv=0
EndChar
StartChar: rcaron
Encoding: 345 345 606
Width: 368
GlyphClass: 2
Flags: MW
HStem: 0 21G<73 118 73 73> 489 43<301.5 344.5> 502 20G<147 186 186 186> 525 7 719 20G<157 157 438 438>
VStem: 73 365
AnchorPoint: "Anchor-14" 0 0 basechar 0
AnchorPoint: "Anchor-13" 0 0 basechar 0
AnchorPoint: "Anchor-12" 300 763 basechar 0
AnchorPoint: "Anchor-11" 0 0 basechar 0
AnchorPoint: "Anchor-10" 95 0 basechar 0
LayerCount: 2
Back
Fore
SplineSet
419 763 m 1xcc
 438 739 l 1
 297 635 l 1
 270 635 l 1
 157 739 l 1
 179 763 l 1
 288 679 l 1
 419 763 l 1xcc
341 532 m 0
 361 532 379 529 390 525 c 1x9c
 378 483 l 1
 367 486 352 489 337 489 c 0xcc
 256 489 208 419 162 305 c 1
 118 0 l 1
 73 0 l 1
 147 522 l 1
 186 522 l 1xac
 170 388 l 1
 209 478 262 532 341 532 c 0
EndSplineSet
Substitution2: "'smcp' Lowercase to Small Capitals lookup 28 subtable" rcaron.sc
Substitution2: "'aalt' Access All Alternates lookup 0 subtable" rcaron.sc
EndChar
StartChar: Scircumflex
Encoding: 348 348 232
Width: 535
GlyphClass: 2
Flags: MW
HStem: -11 42<181 291.5 181 311.5> 653 41<275 355>
VStem: 107 48<486 556.5> 421 48<161 237>
AnchorPoint: "Anchor-14" 0 0 basechar 0
AnchorPoint: "Anchor-13" 429 744 basechar 0
AnchorPoint: "Anchor-12" 351 887 basechar 0
AnchorPoint: "Anchor-11" 0 0 basechar 0
AnchorPoint: "Anchor-10" 225 0 basechar 0
LayerCount: 2
Back
Fore
SplineSet
455 763 m 1
 346 843 l 1
 216 763 l 1
 196 788 l 1
 337 887 l 1
 364 887 l 1
 478 788 l 1
 455 763 l 1
324 694 m 0
 405 694 460 665 505 619 c 1
 475 590 l 1
 431 635 386 653 324 653 c 0
 226 653 155 598 155 519 c 0
 155 453 194 419 296 386 c 0
 407 352 469 301 469 202 c 0
 469 110 402 -11 221 -11 c 0
 128 -11 67 24 18 76 c 1
 49 105 l 1
 91 60 141 31 221 31 c 0
 362 31 421 121 421 201 c 0
 421 273 379 314 277 348 c 0
 158 385 107 432 107 517 c 0
 107 596 174 694 324 694 c 0
EndSplineSet
Substitution2: "'c2sc' Capitals to Small Capitals lookup 27 subtable" scircumflex.sc
Substitution2: "'aalt' Access All Alternates lookup 0 subtable" scircumflex.sc
Position2: "'cpsp' Capital Spacing lookup 0 subtable" dx=5 dy=0 dh=10 dv=0
EndChar

StartChar: Scedilla
Encoding: 350 350 93
Width: 535
GlyphClass: 2
Flags: MW
HStem: -222 35<180 208.5 180 223.5> -201 21G<118 118> -95 28<176 218> -11 42<227 227> -10 41<194 194> 653 41<275 355>
VStem: 107 48<486 556.5> 258 43 421 48<161 237>
AnchorPoint: "Anchor-11" 225 0 basechar 0
AnchorPoint: "Anchor-10" 0 0 basechar 0
AnchorPoint: "Anchor-9" 329 684 basechar 0
AnchorPoint: "Anchor-8" 0 0 basechar 0
LayerCount: 2
Fore
SplineSet
324 694 m 0x6f80
 405 694 460 665 505 619 c 1
 475 590 l 1
 431 635 386 653 324 653 c 0
 226 653 155 598 155 519 c 0
 155 453 194 419 296 386 c 1
 407 352 469 301 469 202 c 0
 469 111 403 -8 227 -11 c 1
 218 -67 l 1
 275 -71 301 -94 301 -133 c 0
 301 -184 254 -222 193 -222 c 0xb780
 158 -222 135 -213 118 -201 c 1x6f80
 137 -172 l 1
 150 -180 168 -187 192 -187 c 0xaf80
 225 -187 257 -170 258 -138 c 0
 259 -108 239 -95 176 -95 c 1
 194 -10 l 1
 116 -4 62 29 18 76 c 1
 49 105 l 1
 91 60 141 31 221 31 c 0
 362 31 421 121 421 201 c 0
 421 273 379 314 277 348 c 1
 158 385 107 432 107 517 c 0
 107 596 174 694 324 694 c 0x6f80
EndSplineSet
Substitution2: "'c2sc' Capitals to Small Capitals lookup 23 subtable" scedilla.sc
Substitution2: "'locl' Localized Forms in Latin lookup 5 subtable" Scommaaccent
Substitution2: "'locl' Localized Forms in Latin lookup 4 subtable" Scommaaccent
AlternateSubs2: "'aalt' Access All Alternates lookup 1 subtable" Scommaaccent scedilla.sc
Position2: "'cpsp' Capital Spacing lookup 0 subtable" dx=5 dy=0 dh=10 dv=0
EndChar

StartChar: scedilla
Encoding: 351 351 230
Width: 461
GlyphClass: 2
Flags: MW
HStem: -222 35<157 185.5 157 200.5> -201 21G<95 95> -95 28<153 195> -11 40<204 204> -10 39<171 171> 493 39<220.5 286>
VStem: 82 47<375 427.5 375 434.5> 235 43 344 48<106 170>
AnchorPoint: "Anchor-11" 194 0 basechar 0
AnchorPoint: "Anchor-10" 0 0 basechar 0
AnchorPoint: "Anchor-9" 268 522 basechar 0
AnchorPoint: "Anchor-8" 0 0 basechar 0
LayerCount: 2
Fore
SplineSet
246 296 m 1x6f80
 350 263 392 220 392 145 c 0
 392 61 328 -7 204 -11 c 1
 195 -67 l 1
 252 -71 278 -94 278 -133 c 0
 278 -184 231 -222 170 -222 c 0xb780
 135 -222 112 -213 95 -201 c 1x6f80
 114 -172 l 1
 127 -180 145 -187 169 -187 c 0xaf80
 202 -187 234 -170 235 -138 c 0
 236 -108 216 -95 153 -95 c 1
 171 -10 l 1
 98 -5 50 23 13 58 c 1
 41 88 l 1
 82 51 127 29 193 29 c 0
 284 29 344 70 344 142 c 0
 344 198 318 228 221 259 c 0
 115 293 82 334 82 397 c 0
 82 472 151 532 260 532 c 0
 323 532 372 513 415 475 c 1
 389 445 l 1
 351 477 312 493 260 493 c 0
 181 493 129 457 129 398 c 0
 129 352 155 323 246 296 c 1x6f80
EndSplineSet
Substitution2: "'smcp' Lowercase to Small Capitals lookup 24 subtable" scedilla.sc
Substitution2: "'locl' Localized Forms in Latin lookup 5 subtable" scommaaccent
Substitution2: "'locl' Localized Forms in Latin lookup 4 subtable" scommaaccent
AlternateSubs2: "'aalt' Access All Alternates lookup 1 subtable" scommaaccent scedilla.sc
EndChar

StartChar: scaron
Encoding: 353 353 229
Width: 461
GlyphClass: 2
Flags: MW
HStem: -11 40<160 238.5 160 259.5> 493 39<220.5 286> 721 20G<162 162 443 443>
VStem: 82 47<375 427.5 375 434.5> 344 48<106 170>
AnchorPoint: "Anchor-11" 194 0 basechar 0
AnchorPoint: "Anchor-10" 0 0 basechar 0
AnchorPoint: "Anchor-9" 268 522 basechar 0
AnchorPoint: "Anchor-8" 0 0 basechar 0
LayerCount: 2
Fore
SplineSet
443 741 m 1
 302 637 l 1
 275 637 l 1
 162 741 l 1
 184 765 l 1
 293 681 l 1
 424 765 l 1
 443 741 l 1
260 532 m 0
 323 532 372 513 415 475 c 1
 389 445 l 1
 351 477 312 493 260 493 c 0
 181 493 129 457 129 398 c 0
 129 352 155 323 246 296 c 1
 350 263 392 220 392 145 c 0
 392 59 325 -11 194 -11 c 0
 108 -11 54 20 13 58 c 1
 41 88 l 1
 82 51 127 29 193 29 c 0
 284 29 344 70 344 142 c 0
 344 198 318 228 221 259 c 0
 115 293 82 334 82 397 c 0
 82 472 151 532 260 532 c 0
EndSplineSet
Substitution2: "'smcp' Lowercase to Small Capitals lookup 24 subtable" scaron.sc
Substitution2: "'aalt' Access All Alternates lookup 0 subtable" scaron.sc
EndChar

StartChar: Tcedilla
Encoding: 354 354 99
Width: 486
GlyphClass: 2
Flags: MW
HStem: -222 35<181 209.5 181 224.5> -201 21G<119 119> -95 28<177 220> 0 21G<182 198 182 182 230 230> 641 43<74 272 68 535 320 523 320 320>
VStem: 259 43
AnchorPoint: "Anchor-11" 206 0 basechar 0
AnchorPoint: "Anchor-10" 0 0 basechar 0
AnchorPoint: "Anchor-9" 295 684 basechar 0
AnchorPoint: "Anchor-8" 0 0 basechar 0
LayerCount: 2
Fore
SplineSet
535 684 m 1x7c
 523 641 l 1
 320 641 l 1
 230 0 l 1
 220 -67 l 1
 276 -71 302 -94 302 -133 c 0
 302 -184 255 -222 194 -222 c 0xbc
 159 -222 136 -213 119 -201 c 1x7c
 138 -172 l 1
 151 -180 169 -187 193 -187 c 0xbc
 226 -187 258 -170 259 -138 c 0
 260 -108 240 -95 177 -95 c 1
 198 0 l 1
 182 0 l 1
 272 641 l 1
 68 641 l 1
 74 684 l 1
 535 684 l 1x7c
EndSplineSet
Substitution2: "'c2sc' Capitals to Small Capitals lookup 23 subtable" tcedilla.sc
Substitution2: "'locl' Localized Forms in Latin lookup 5 subtable" uni021A
Substitution2: "'locl' Localized Forms in Latin lookup 4 subtable" uni021A
AlternateSubs2: "'aalt' Access All Alternates lookup 1 subtable" uni021A tcedilla.sc
Position2: "'cpsp' Capital Spacing lookup 0 subtable" dx=5 dy=0 dh=10 dv=0
EndChar
